# Blender v2.79 (sub 0) OBJ File: 'eglise-sketchfab5.blend'
# www.blender.org
o Circle.051_Circle.048
v -55.936371 -34.046661 -25.549309
v -55.934372 -34.044662 -25.549309
v -55.934372 -34.046661 -25.551310
v -55.936371 -34.046661 25.589012
v -55.934372 -34.046661 25.591013
v -55.934372 -34.044662 25.589012
v 33.993408 -34.046661 25.589012
v 33.991409 -34.044662 25.589012
v 33.991409 -34.046661 25.591013
v 33.993408 -34.046661 -25.549309
v 33.991409 -34.046661 -25.551310
v 33.991409 -34.044662 -25.549309
v -55.936371 -34.144661 -25.549309
v -55.934372 -34.144661 -25.551310
v -55.934372 -34.144661 25.591013
v -55.936371 -34.144661 25.589012
v 33.993408 -34.144661 25.589012
v 33.991409 -34.144661 25.591013
v 33.991409 -34.144661 -25.551310
v 33.993408 -34.144661 -25.549309
v -55.934372 -34.046661 -25.551310
v -55.934372 -34.046661 -25.551310
v -55.934372 -34.046661 -25.551310
v -55.936371 -34.046661 -25.549309
v -55.936371 -34.046661 -25.549309
v -55.936371 -34.046661 -25.549309
v -55.934372 -34.044662 -25.549309
v -55.934372 -34.044662 -25.549309
v -55.934372 -34.044662 -25.549309
v -55.934372 -34.044662 25.589012
v -55.934372 -34.044662 25.589012
v -55.934372 -34.044662 25.589012
v -55.936371 -34.046661 25.589012
v -55.936371 -34.046661 25.589012
v -55.936371 -34.046661 25.589012
v -55.934372 -34.046661 25.591013
v -55.934372 -34.046661 25.591013
v -55.934372 -34.046661 25.591013
v 33.991409 -34.046661 25.591013
v 33.991409 -34.046661 25.591013
v 33.991409 -34.046661 25.591013
v 33.993408 -34.046661 25.589012
v 33.993408 -34.046661 25.589012
v 33.993408 -34.046661 25.589012
v 33.991409 -34.044662 25.589012
v 33.991409 -34.044662 25.589012
v 33.991409 -34.044662 25.589012
v 33.991409 -34.044662 -25.549309
v 33.991409 -34.044662 -25.549309
v 33.991409 -34.044662 -25.549309
v 33.993408 -34.046661 -25.549309
v 33.993408 -34.046661 -25.549309
v 33.993408 -34.046661 -25.549309
v 33.991409 -34.046661 -25.551310
v 33.991409 -34.046661 -25.551310
v 33.991409 -34.046661 -25.551310
v -55.934372 -34.144661 -25.551310
v -55.936371 -34.144661 -25.549309
v -55.936371 -34.144661 25.589012
v -55.934372 -34.144661 25.591013
v 33.991409 -34.144661 25.591013
v 33.993408 -34.144661 25.589012
v 33.993408 -34.144661 -25.549309
v 33.991409 -34.144661 -25.551310
vt 0.999902 0.568681
vt 0.000098 0.568681
vt 0.000098 0.568681
vt 0.999902 0.000098
vt 0.000098 0.568659
vt 0.000098 0.000098
vt 0.999925 0.000098
vt 0.999925 0.568659
vt 0.999925 0.568659
vt 0.000098 0.000075
vt 0.999902 0.000075
vt 0.999902 0.000075
vt 0.000075 0.568659
vt 0.000075 0.568659
vt 0.000075 0.568681
vt 0.000075 0.000098
vt 0.000075 0.000075
vt 0.000075 0.000098
vt 0.999925 0.000098
vt 0.999925 0.000098
vt 0.999925 0.000075
vt 0.999925 0.568659
vt 0.999925 0.568681
vt 0.999925 0.568659
vt 0.000075 0.000098
vt 0.000075 0.568659
vt 0.000075 0.568659
vt 0.999925 0.568659
vt 0.999925 0.000098
vt 0.999925 0.000098
vt 0.000098 0.000098
vt 0.999902 0.000075
vt 0.999902 0.000098
vt 0.000098 0.568681
vt 0.999902 0.568659
vt 0.999902 0.568681
vt 0.000098 0.568681
vt 0.000075 0.568681
vt 0.000098 0.568681
vt 0.000075 0.000098
vt 0.000075 0.000075
vt 0.000075 0.000098
vt 0.999902 0.000075
vt 0.999925 0.000075
vt 0.999902 0.000075
vt 0.999925 0.568659
vt 0.999925 0.568681
vt 0.999925 0.568659
vt 0.000075 0.568659
vt 0.000075 0.000098
vt 0.000075 0.000098
vt 0.999902 0.568681
vt 0.999902 0.568659
vt 0.999925 0.000098
vt 0.000098 0.000075
vt 0.000075 0.000098
vt 0.999925 0.568659
vt 0.000098 0.000075
vt 0.000098 0.568659
vt 0.000075 0.568681
vt 0.000075 0.000075
vt 0.999925 0.000075
vt 0.999925 0.568681
vt 0.000075 0.568659
vn 0.0000 0.0000 -1.0000
vn 0.0000 1.0000 0.0000
vn 1.0000 0.0000 0.0000
vn 0.0000 0.0000 1.0000
vn -0.5774 0.5774 -0.5774
vn -0.5774 0.5774 0.5774
vn 0.5774 0.5774 0.5774
vn 0.5774 0.5774 -0.5774
vn -0.7060 0.7082 0.0000
vn 0.7068 0.7074 0.0000
vn 0.0000 0.7076 0.7066
vn 0.0000 0.7076 -0.7066
vn -0.7073 0.0000 -0.7069
vn -0.7064 0.0000 0.7078
vn 0.7081 0.0000 0.7061
vn 0.7073 0.0000 -0.7069
vn -1.0000 0.0000 0.0000
vn -0.7077 0.7065 0.0000
vn -0.7081 0.0000 0.7061
vn 0.7064 0.0000 0.7078
s off
f 55/1/1 57/2/1 22/3/1
f 46/4/2 28/5/2 31/6/2
f 43/7/3 63/8/3 52/9/3
f 37/10/4 61/11/4 40/12/4
f 24/13/5 27/14/5 21/15/5
f 33/16/6 36/17/6 30/18/6
f 42/19/7 45/20/7 39/21/7
f 51/22/8 54/23/8 48/24/8
f 34/25/9 2/26/9 25/27/9
f 53/28/10 8/29/10 7/30/10
f 6/31/11 41/32/11 47/33/11
f 3/34/12 50/35/12 56/36/12
f 14/37/13 26/38/13 23/39/13
f 59/40/14 5/41/14 35/42/14
f 18/43/15 44/44/15 9/45/15
f 20/46/16 11/47/16 10/48/16
f 1/49/17 16/50/17 4/51/17
f 55/1/1 19/52/1 57/2/1
f 46/4/2 49/53/2 28/5/2
f 43/7/3 17/54/3 63/8/3
f 37/10/4 15/55/4 61/11/4
f 34/25/18 32/56/18 2/26/18
f 53/28/10 12/57/10 8/29/10
f 6/31/11 38/58/11 41/32/11
f 3/34/12 29/59/12 50/35/12
f 14/37/13 58/60/13 26/38/13
f 59/40/19 60/61/19 5/41/19
f 18/43/20 62/62/20 44/44/20
f 20/46/16 64/63/16 11/47/16
f 1/49/17 13/64/17 16/50/17
