# Blender v2.79 (sub 0) OBJ File: ''
# www.blender.org
mtllib bench2.mtl
o bench2
v -1.284825 0.767662 0.308898
v -1.284828 0.767663 -0.308890
v -1.284828 0.709713 -0.308890
v -1.284825 0.709713 0.308898
v 1.571795 0.768203 -0.314664
v 1.575927 0.766374 -0.295171
v 1.575927 0.711002 -0.295171
v 1.571795 0.709173 -0.314664
v 1.575928 0.766374 0.295161
v 1.575928 0.711001 0.295161
v -1.281011 0.768202 0.314663
v -1.281011 0.709173 0.314663
v 1.571796 0.709173 0.314655
v -1.281013 0.768203 -0.314655
v 1.571796 0.768202 0.314655
v -1.281013 0.709173 -0.314655
v 1.208513 0.743277 -0.094243
v 1.208513 0.743277 -0.245776
v 1.249032 -0.006498 -0.335790
v 1.249032 -0.006498 -0.129294
v 1.278393 0.743277 -0.245776
v 1.318911 -0.006498 -0.335791
v 1.278393 0.743277 0.114489
v 1.278394 0.743277 0.250557
v 1.318914 -0.006498 0.340572
v 1.318913 -0.006498 0.155149
v 1.208514 0.743277 0.250559
v 1.249033 -0.006498 0.340572
v 1.318913 -0.006498 -0.129294
v 1.278393 0.772928 0.114489
v 1.278394 0.772927 0.250557
v 1.208513 0.772928 -0.245776
v 1.278393 0.772928 -0.245776
v 1.249033 -0.006498 0.155149
v 1.278393 0.743277 0.072743
v 1.318913 0.019656 0.098261
v 1.208514 0.743277 0.114489
v 1.278393 0.743277 -0.094243
v 1.278393 0.743277 -0.052497
v 1.208513 0.743277 -0.052497
v 1.249032 0.019656 -0.072405
v 1.318913 0.019656 -0.072405
v 1.208514 0.743277 0.072743
v 1.249032 0.019656 0.098261
v 1.208514 0.743277 0.030996
v 1.249032 0.033138 0.041372
v 1.208513 0.743277 -0.010750
v 1.249032 0.033138 -0.015516
v 1.318913 0.033138 0.041372
v 1.318913 0.033138 -0.015516
v 1.278393 0.743277 0.030996
v 1.278393 0.743277 -0.010750
v 1.278393 0.772928 -0.094243
v 1.208513 0.772928 -0.094243
v 1.208514 0.772928 0.114489
v 1.208514 0.772927 0.250559
v -0.960443 0.743277 -0.094236
v -0.960443 0.743277 -0.245770
v -0.996947 -0.006498 -0.335784
v -0.996945 -0.006498 -0.129286
v -0.890563 0.743277 -0.245770
v -0.927066 -0.006498 -0.335784
v -0.890562 0.743277 0.114497
v -0.890562 0.743277 0.250565
v -0.927065 -0.006498 0.340578
v -0.927065 -0.006498 0.155155
v -0.960441 0.743277 0.250565
v -0.996945 -0.006498 0.340578
v -0.927066 -0.006498 -0.129286
v -0.890562 0.772928 0.114497
v -0.890562 0.772927 0.250565
v -0.960443 0.772928 -0.245770
v -0.890563 0.772928 -0.245770
v -0.996945 -0.006498 0.155155
v -0.890562 0.743277 0.072750
v -0.927065 0.019656 0.098268
v -0.960443 0.743277 0.114497
v -0.890562 0.743277 -0.094237
v -0.890562 0.743277 -0.052489
v -0.960443 0.743277 -0.052489
v -0.996945 0.019656 -0.072398
v -0.927065 0.019656 -0.072399
v -0.960443 0.743277 0.072750
v -0.996945 0.019656 0.098268
v -0.960443 0.743277 0.031004
v -0.996945 0.033138 0.041379
v -0.960443 0.743277 -0.010743
v -0.996945 0.033138 -0.015510
v -0.927065 0.033138 0.041379
v -0.927065 0.033138 -0.015510
v -0.890562 0.743277 0.031004
v -0.890562 0.743277 -0.010743
v -0.890562 0.772928 -0.094237
v -0.960443 0.772928 -0.094236
v -0.960443 0.772928 0.114497
v -0.960441 0.772927 0.250565
v -1.103917 0.306071 -0.023484
v -1.103917 0.306071 0.053142
v -1.105839 0.311933 0.048483
v -1.105839 0.311933 -0.018825
v -1.086318 0.481103 -0.014683
v 1.394753 0.481103 -0.018453
v 1.415487 0.306071 -0.023491
v 1.394753 0.481103 0.048095
v 1.397930 0.476468 0.045297
v 1.397930 0.476468 -0.015654
v -1.086318 0.481103 0.044342
v 1.415487 0.306071 0.053135
v 1.416919 0.311669 0.049913
v 1.416919 0.311669 -0.020269
v -1.091491 0.475239 0.040752
v -1.091493 0.475239 -0.011094
vt 0.592900 0.874700
vt 0.824900 0.844700
vt 0.824900 0.874700
vt 0.992100 0.007700
vt 0.962400 0.000400
vt 0.993000 0.000400
vt 0.992100 0.229400
vt 0.963400 0.007700
vt 0.827100 0.875000
vt 0.827100 0.844400
vt 0.963400 0.229400
vt 0.962400 0.236700
vt 0.590800 0.875000
vt 0.993000 0.236700
vt 0.000400 0.000400
vt 0.257900 0.898100
vt 0.000400 0.898100
vt 0.918100 0.000400
vt 0.939500 0.862000
vt 0.918100 0.862000
vt 0.592900 0.844700
vt 0.590800 0.844400
vt 0.258700 0.898100
vt 0.516300 0.000400
vt 0.516300 0.898100
vt 0.961600 0.862000
vt 0.940300 0.000400
vt 0.961600 0.000400
vt 0.674100 0.600500
vt 0.917300 0.633300
vt 0.674100 0.643200
vt 0.974000 0.506800
vt 0.962700 0.764500
vt 0.962400 0.506800
vt 0.674100 0.217400
vt 0.917300 0.244300
vt 0.674100 0.255700
vt 0.976300 0.495800
vt 0.962400 0.237500
vt 0.976300 0.237500
vt 0.575300 0.876000
vt 0.556400 0.844400
vt 0.575300 0.844400
vt 0.664500 0.217400
vt 0.974300 0.496600
vt 0.904000 0.874400
vt 0.885100 0.902800
vt 0.885100 0.874400
vt 0.908900 0.260300
vt 0.674100 0.267500
vt 0.674100 0.740500
vt 0.917300 0.713600
vt 0.917300 0.765900
vt 0.674100 0.357400
vt 0.917300 0.324500
vt 0.917300 0.382700
vt 0.536700 0.844400
vt 0.555600 0.850800
vt 0.536700 0.850800
vt 0.757100 0.766700
vt 0.776000 0.810100
vt 0.757100 0.810100
vt 0.908900 0.649400
vt 0.674100 0.655000
vt 0.674100 0.702100
vt 0.908900 0.697500
vt 0.674100 0.690300
vt 0.904500 0.681500
vt 0.674100 0.678600
vt 0.904500 0.665400
vt 0.674100 0.666800
vt 0.815300 0.766700
vt 0.796400 0.810000
vt 0.796400 0.766700
vt 0.815300 0.832800
vt 0.815300 0.810000
vt 0.815300 0.842300
vt 0.796400 0.833600
vt 0.815300 0.833600
vt 0.776000 0.833100
vt 0.757100 0.833100
vt 0.536700 0.869900
vt 0.555600 0.876300
vt 0.536700 0.876300
vt 0.536700 0.863500
vt 0.555600 0.869900
vt 0.536700 0.857200
vt 0.555600 0.863500
vt 0.555600 0.857200
vt 0.674100 0.314600
vt 0.908900 0.308400
vt 0.674100 0.302800
vt 0.904500 0.292400
vt 0.674100 0.279300
vt 0.674100 0.291100
vt 0.904500 0.276400
vt 0.904800 0.874400
vt 0.923600 0.897600
vt 0.904800 0.897600
vt 0.590800 0.896600
vt 0.609600 0.875800
vt 0.609600 0.896600
vt 0.835800 0.814700
vt 0.854600 0.766700
vt 0.854600 0.814700
vt 0.917300 0.873600
vt 0.885100 0.766700
vt 0.917300 0.766700
vt 0.664500 0.314600
vt 0.664500 0.702100
vt 0.664500 0.600500
vt 0.874300 0.815300
vt 0.855400 0.863100
vt 0.855400 0.815300
vt 0.674100 0.408900
vt 0.917300 0.441800
vt 0.674100 0.451700
vt 0.986700 0.754300
vt 0.975300 0.496600
vt 0.986900 0.496600
vt 0.674100 0.025800
vt 0.917300 0.052700
vt 0.674100 0.064200
vt 0.999400 0.506800
vt 0.988000 0.763400
vt 0.987700 0.506800
vt 0.874300 0.863900
vt 0.855400 0.895500
vt 0.855400 0.863900
vt 0.664500 0.025800
vt 0.975300 0.764500
vt 0.975100 0.754300
vt 0.854600 0.892600
vt 0.835800 0.864300
vt 0.854600 0.864300
vt 0.908900 0.068700
vt 0.674100 0.075900
vt 0.674100 0.548900
vt 0.917300 0.522000
vt 0.917300 0.574300
vt 0.674100 0.165800
vt 0.917300 0.132900
vt 0.917300 0.191200
vt 0.517100 0.850800
vt 0.536000 0.844400
vt 0.536000 0.850800
vt 0.776800 0.810100
vt 0.795600 0.766700
vt 0.795600 0.810100
vt 0.908900 0.457800
vt 0.674100 0.463400
vt 0.674100 0.510500
vt 0.908900 0.506000
vt 0.674100 0.498800
vt 0.904500 0.489900
vt 0.674100 0.487000
vt 0.904500 0.473900
vt 0.674100 0.475200
vt 0.835000 0.810000
vt 0.816100 0.766700
vt 0.835000 0.766700
vt 0.835000 0.832800
vt 0.816100 0.810000
vt 0.835000 0.842300
vt 0.816100 0.833600
vt 0.835000 0.833600
vt 0.795600 0.833100
vt 0.776800 0.833100
vt 0.517100 0.869900
vt 0.536000 0.876300
vt 0.517100 0.876300
vt 0.517100 0.863500
vt 0.536000 0.869900
vt 0.517100 0.857200
vt 0.536000 0.863500
vt 0.536000 0.857200
vt 0.674100 0.123000
vt 0.908900 0.116900
vt 0.674100 0.111300
vt 0.904500 0.100800
vt 0.674100 0.087700
vt 0.674100 0.099500
vt 0.904500 0.084800
vt 0.855400 0.919400
vt 0.874300 0.896300
vt 0.874300 0.919400
vt 0.610400 0.875800
vt 0.629300 0.896600
vt 0.610400 0.896600
vt 0.854600 0.815500
vt 0.835800 0.863500
vt 0.835800 0.815500
vt 0.855400 0.814500
vt 0.874300 0.766700
vt 0.874300 0.814500
vt 0.664500 0.123000
vt 0.664500 0.510500
vt 0.664500 0.408900
vt 0.999600 0.496600
vt 0.756300 0.837300
vt 0.753200 0.804500
vt 0.756300 0.802400
vt 0.517100 0.007300
vt 0.590000 0.843600
vt 0.517100 0.837700
vt 0.664500 0.769000
vt 0.666900 0.798000
vt 0.664500 0.799300
vt 0.663700 0.007300
vt 0.590800 0.843600
vt 0.590800 0.000400
vt 0.000400 0.898900
vt 0.853100 0.924400
vt 0.000400 0.924400
vt 0.840100 0.947400
vt 0.000400 0.926500
vt 0.840100 0.925200
vt 0.666900 0.770200
vt 0.753400 0.800100
vt 0.756300 0.801600
vt 0.753400 0.768100
vt 0.756300 0.766700
vt 0.667500 0.808000
vt 0.753200 0.835200
vt 0.667500 0.831600
vt 0.664500 0.806400
vt 0.664500 0.833300
vt 0.257900 0.000400
vt 0.939500 0.000400
vt 0.258700 0.000400
vt 0.940300 0.862000
vt 0.917300 0.575100
vt 0.974300 0.764500
vt 0.917300 0.192000
vt 0.962400 0.495800
vt 0.556400 0.876000
vt 0.664500 0.255700
vt 0.962700 0.496600
vt 0.904000 0.902800
vt 0.555600 0.844400
vt 0.776000 0.766700
vt 0.796400 0.832800
vt 0.796400 0.842300
vt 0.923600 0.874400
vt 0.590800 0.875800
vt 0.835800 0.766700
vt 0.885100 0.873600
vt 0.664500 0.357400
vt 0.664500 0.740500
vt 0.664500 0.643200
vt 0.874300 0.863100
vt 0.917300 0.383500
vt 0.917300 0.000400
vt 0.999600 0.763400
vt 0.874300 0.895500
vt 0.664500 0.064200
vt 0.986900 0.764500
vt 0.835800 0.892600
vt 0.517100 0.844400
vt 0.776800 0.766700
vt 0.816100 0.832800
vt 0.816100 0.842300
vt 0.855400 0.896300
vt 0.629300 0.875800
vt 0.854600 0.863500
vt 0.855400 0.766700
vt 0.664500 0.165800
vt 0.664500 0.548900
vt 0.664500 0.451700
vt 0.988000 0.496600
vt 0.590000 0.000400
vt 0.663700 0.837700
vt 0.853100 0.898900
vt 0.000400 0.946100
vn -1.0000 0.0000 0.0000
vn 0.9783 0.0000 -0.2074
vn 1.0000 0.0000 -0.0000
vn -0.8340 0.0000 0.5518
vn 0.4046 -0.9145 -0.0000
vn -0.1405 0.9901 -0.0000
vn 0.4046 0.9145 -0.0000
vn -0.0000 -1.0000 -0.0000
vn 0.9783 0.0000 0.2074
vn -0.0000 0.0000 -1.0000
vn -0.8340 0.0000 -0.5518
vn -0.1405 -0.9901 -0.0000
vn 0.0000 1.0000 0.0000
vn 0.0000 0.0000 1.0000
vn -0.9985 -0.0540 -0.0000
vn -0.0000 0.1192 -0.9929
vn 0.9985 0.0540 -0.0000
vn 0.0000 0.1192 0.9929
vn 0.9984 0.0559 0.0012
vn 0.9983 0.0563 0.0167
vn 0.9984 0.0564 0.0003
vn 0.0000 -0.9086 0.4177
vn -0.9984 -0.0559 0.0012
vn -0.9983 -0.0563 0.0167
vn -0.9984 -0.0564 0.0003
vn -0.9984 -0.0559 -0.0012
vn -0.9983 -0.0563 -0.0167
vn -0.9981 -0.0553 -0.0254
vn -0.9984 -0.0564 -0.0003
vn -0.9984 -0.0569 -0.0031
vn -0.9984 -0.0570 0.0000
vn -0.9984 -0.0572 0.0031
vn 0.0000 -0.9086 -0.4177
vn 0.0000 -0.9730 -0.2306
vn 0.0000 -0.9730 0.2306
vn 0.9984 0.0559 -0.0012
vn 0.9983 0.0563 -0.0167
vn 0.9982 0.0551 -0.0253
vn 0.9984 0.0564 -0.0003
vn 0.9984 0.0572 -0.0031
vn 0.9984 0.0570 0.0000
vn 0.9984 0.0569 0.0031
vn -0.9988 0.0486 0.0000
vn -0.9986 0.0497 -0.0159
vn -0.9988 0.0488 0.0060
vn 0.9988 -0.0486 -0.0000
vn 0.9986 -0.0498 -0.0159
vn 0.9988 -0.0487 0.0061
vn 0.9986 -0.0507 -0.0151
vn 0.9987 -0.0509 -0.0003
vn -0.9986 0.0498 0.0160
vn 0.9986 -0.0497 0.0159
vn -0.9986 0.0507 -0.0150
vn -0.9987 0.0508 -0.0003
vn -0.9988 0.0486 -0.0060
vn -0.9986 0.0507 0.0151
vn -0.9987 0.0509 0.0003
vn -0.9987 0.0508 0.0028
vn -0.9987 0.0513 0.0000
vn -0.9987 0.0512 -0.0027
vn 0.9988 -0.0488 -0.0061
vn 0.9986 -0.0507 0.0150
vn 0.9987 -0.0508 0.0003
vn 0.9987 -0.0511 0.0027
vn 0.9987 -0.0513 0.0000
vn 0.9987 -0.0508 -0.0028
vn -0.9502 -0.3115 0.0000
vn -0.9503 -0.3115 0.0000
vn -0.9503 -0.3114 0.0000
vn -0.0001 0.0297 -0.9996
vn -0.0014 0.0493 -0.9988
vn -0.0015 0.0504 -0.9987
vn 0.8248 0.5654 0.0000
vn -0.0001 0.0297 0.9996
vn -0.0014 0.0493 0.9988
vn 0.0000 0.0288 0.9996
vn 0.9934 0.1145 0.0000
vn 0.7412 0.1041 -0.6631
vn 0.8192 0.1132 -0.5623
vn 0.8198 0.1133 -0.5613
vn 0.7411 0.1041 0.6633
vn 0.8192 0.1132 0.5623
vn 0.7382 0.1037 0.6665
vn 0.9688 -0.2479 0.0000
vn -0.9962 0.0875 0.0000
vn -0.7498 0.6617 0.0000
vn -0.7498 0.6616 0.0000
vn -0.7499 0.6616 0.0000
vn -0.6460 0.0931 -0.7577
vn -0.8589 0.1113 -0.5000
vn -0.6359 0.0921 -0.7663
vn -0.6461 0.0931 0.7575
vn -0.8589 0.1113 0.5000
vn -0.8614 0.1115 0.4956
vn 0.9981 0.0553 0.0254
vn -0.9982 -0.0551 0.0253
vn -0.0000 0.0288 -0.9996
vn -0.0015 0.0504 0.9987
vn 0.7384 0.1037 -0.6663
vn 0.8198 0.1133 0.5613
vn -0.7497 0.6617 0.0000
vn -0.8614 0.1115 -0.4956
vn -0.6360 0.0921 0.7662
usemtl bench2
s 1
f 2/1/1 4/2/1 1/3/1
f 6/4/2 8/5/2 5/6/2
f 9/7/3 7/8/3 6/4/3
f 11/9/4 4/2/4 12/10/4
f 8/5/5 10/11/5 13/12/5
f 14/13/6 1/3/6 11/9/6
f 9/7/7 5/6/7 15/14/7
f 12/15/8 8/16/8 13/17/8
f 9/7/9 13/12/9 10/11/9
f 5/18/10 16/19/10 14/20/10
f 14/13/11 3/21/11 2/1/11
f 4/2/12 16/22/12 12/10/12
f 5/23/13 11/24/13 15/25/13
f 11/26/14 13/27/14 15/28/14
f 18/29/15 20/30/15 17/31/15
f 21/32/16 19/33/16 18/34/16
f 24/35/17 26/36/17 23/37/17
f 24/38/18 28/39/18 25/40/18
f 19/41/8 29/42/8 20/43/8
f 23/37/3 31/44/3 24/35/3
f 18/34/10 33/45/10 21/32/10
f 28/46/8 26/47/8 25/48/8
f 23/37/19 36/49/20 35/50/21
f 27/51/15 34/52/15 28/53/15
f 21/54/17 29/55/17 22/56/17
f 38/57/13 40/58/13 39/59/13
f 20/60/22 42/61/22 41/62/22
f 17/31/23 41/63/24 40/64/25
f 37/65/26 44/66/27 34/52/28
f 43/67/29 46/68/30 44/66/27
f 45/69/31 48/70/32 46/68/30
f 40/64/25 48/70/32 47/71/31
f 34/72/33 36/73/33 26/74/33
f 46/75/34 36/73/34 44/76/34
f 48/77/8 49/78/8 46/79/8
f 41/62/35 50/80/35 48/81/35
f 35/82/13 37/83/13 23/84/13
f 51/85/13 43/86/13 35/82/13
f 52/87/13 45/88/13 51/85/13
f 39/59/13 47/89/13 52/87/13
f 38/90/36 42/91/37 29/55/38
f 39/92/39 50/93/40 42/91/37
f 51/94/41 50/93/40 52/95/41
f 35/50/21 49/96/42 51/94/41
f 33/97/13 54/98/13 53/99/13
f 31/100/13 55/101/13 56/102/13
f 37/103/10 30/104/10 23/105/10
f 38/106/14 54/107/14 17/108/14
f 21/54/3 53/109/3 38/90/3
f 27/51/1 55/110/1 37/65/1
f 17/31/1 32/111/1 18/29/1
f 24/112/14 56/113/14 27/114/14
f 58/115/43 60/116/44 57/117/45
f 58/118/16 62/119/16 59/120/16
f 64/121/46 66/122/47 63/123/48
f 67/124/18 65/125/18 64/126/18
f 60/127/8 62/128/8 69/129/8
f 63/123/3 71/130/3 64/121/3
f 58/118/10 73/131/10 61/132/10
f 74/133/8 65/134/8 68/135/8
f 63/123/48 76/136/49 75/137/50
f 67/138/43 74/139/51 68/140/43
f 61/141/46 69/142/52 62/143/46
f 79/144/13 57/145/13 80/146/13
f 81/147/22 69/148/22 82/149/22
f 57/117/45 81/150/53 80/151/54
f 77/152/55 84/153/56 74/139/51
f 83/154/57 86/155/58 84/153/56
f 85/156/59 88/157/60 86/155/58
f 80/151/54 88/157/60 87/158/59
f 84/159/33 66/160/33 74/161/33
f 86/162/34 76/163/34 84/159/34
f 88/164/8 89/165/8 86/166/8
f 81/147/35 90/167/35 88/168/35
f 75/169/13 77/170/13 63/171/13
f 91/172/13 83/173/13 75/169/13
f 92/174/13 85/175/13 91/172/13
f 79/144/13 87/176/13 92/174/13
f 78/177/61 82/178/62 69/142/52
f 79/179/63 90/180/64 82/178/62
f 91/181/65 90/180/64 92/182/65
f 75/137/50 89/183/66 91/181/65
f 93/184/13 72/185/13 94/186/13
f 70/187/13 96/188/13 71/189/13
f 77/190/10 70/191/10 63/192/10
f 78/193/14 94/194/14 57/195/14
f 61/141/3 93/196/3 78/177/3
f 67/138/1 95/197/1 77/152/1
f 57/117/1 72/198/1 58/115/1
f 64/126/14 96/199/14 67/124/14
f 98/200/67 100/201/68 97/202/69
f 102/203/70 97/204/71 101/205/72
f 104/206/73 106/207/73 102/208/73
f 104/209/74 98/210/75 108/211/76
f 97/212/8 108/213/8 98/214/8
f 102/215/13 107/216/13 104/217/13
f 105/218/77 110/219/77 106/207/77
f 102/208/78 110/219/79 103/220/80
f 104/206/81 109/221/82 105/218/83
f 103/220/84 109/221/84 108/222/84
f 112/223/85 99/224/85 111/225/85
f 101/226/86 111/225/87 107/227/88
f 101/226/89 100/201/90 112/223/91
f 107/227/92 99/224/93 98/200/94
f 2/1/1 3/21/1 4/2/1
f 6/4/2 7/8/2 8/5/2
f 9/7/3 10/11/3 7/8/3
f 11/9/4 1/3/4 4/2/4
f 8/5/5 7/8/5 10/11/5
f 14/13/6 2/1/6 1/3/6
f 9/7/7 6/4/7 5/6/7
f 12/15/8 16/228/8 8/16/8
f 9/7/9 15/14/9 13/12/9
f 5/18/10 8/229/10 16/19/10
f 14/13/11 16/22/11 3/21/11
f 4/2/12 3/21/12 16/22/12
f 5/23/13 14/230/13 11/24/13
f 11/26/14 12/231/14 13/27/14
f 18/29/15 19/232/15 20/30/15
f 21/32/16 22/233/16 19/33/16
f 24/35/17 25/234/17 26/36/17
f 24/38/18 27/235/18 28/39/18
f 19/41/8 22/236/8 29/42/8
f 23/37/3 30/237/3 31/44/3
f 18/34/10 32/238/10 33/45/10
f 28/46/8 34/239/8 26/47/8
f 23/37/19 26/36/95 36/49/20
f 27/51/15 37/65/15 34/52/15
f 21/54/17 38/90/17 29/55/17
f 38/57/13 17/240/13 40/58/13
f 20/60/22 29/241/22 42/61/22
f 17/31/23 20/30/96 41/63/24
f 37/65/26 43/67/29 44/66/27
f 43/67/29 45/69/31 46/68/30
f 45/69/31 47/71/31 48/70/32
f 40/64/25 41/63/24 48/70/32
f 34/72/33 44/76/33 36/73/33
f 46/75/34 49/242/34 36/73/34
f 48/77/8 50/243/8 49/78/8
f 41/62/35 42/61/35 50/80/35
f 35/82/13 43/86/13 37/83/13
f 51/85/13 45/88/13 43/86/13
f 52/87/13 47/89/13 45/88/13
f 39/59/13 40/58/13 47/89/13
f 38/90/36 39/92/39 42/91/37
f 39/92/39 52/95/41 50/93/40
f 51/94/41 49/96/42 50/93/40
f 35/50/21 36/49/20 49/96/42
f 33/97/13 32/244/13 54/98/13
f 31/100/13 30/245/13 55/101/13
f 37/103/10 55/246/10 30/104/10
f 38/106/14 53/247/14 54/107/14
f 21/54/3 33/248/3 53/109/3
f 27/51/1 56/249/1 55/110/1
f 17/31/1 54/250/1 32/111/1
f 24/112/14 31/251/14 56/113/14
f 58/115/43 59/252/43 60/116/44
f 58/118/16 61/132/16 62/119/16
f 64/121/46 65/253/46 66/122/47
f 67/124/18 68/254/18 65/125/18
f 60/127/8 59/255/8 62/128/8
f 63/123/3 70/256/3 71/130/3
f 58/118/10 72/257/10 73/131/10
f 74/133/8 66/258/8 65/134/8
f 63/123/48 66/122/47 76/136/49
f 67/138/43 77/152/55 74/139/51
f 61/141/46 78/177/61 69/142/52
f 79/144/13 78/259/13 57/145/13
f 81/147/22 60/260/22 69/148/22
f 57/117/45 60/116/44 81/150/53
f 77/152/55 83/154/57 84/153/56
f 83/154/57 85/156/59 86/155/58
f 85/156/59 87/158/59 88/157/60
f 80/151/54 81/150/53 88/157/60
f 84/159/33 76/163/33 66/160/33
f 86/162/34 89/261/34 76/163/34
f 88/164/8 90/262/8 89/165/8
f 81/147/35 82/149/35 90/167/35
f 75/169/13 83/173/13 77/170/13
f 91/172/13 85/175/13 83/173/13
f 92/174/13 87/176/13 85/175/13
f 79/144/13 80/146/13 87/176/13
f 78/177/61 79/179/63 82/178/62
f 79/179/63 92/182/65 90/180/64
f 91/181/65 89/183/66 90/180/64
f 75/137/50 76/136/49 89/183/66
f 93/184/13 73/263/13 72/185/13
f 70/187/13 95/264/13 96/188/13
f 77/190/10 95/265/10 70/191/10
f 78/193/14 93/266/14 94/194/14
f 61/141/3 73/267/3 93/196/3
f 67/138/1 96/268/1 95/197/1
f 57/117/1 94/269/1 72/198/1
f 64/126/14 71/270/14 96/199/14
f 98/200/67 99/224/67 100/201/68
f 102/203/70 103/271/97 97/204/71
f 104/206/73 105/218/73 106/207/73
f 104/209/74 107/272/98 98/210/75
f 97/212/8 103/273/8 108/213/8
f 102/215/13 101/274/13 107/216/13
f 105/218/77 109/221/77 110/219/77
f 102/208/78 106/207/99 110/219/79
f 104/206/81 108/222/100 109/221/82
f 103/220/84 110/219/84 109/221/84
f 112/223/85 100/201/85 99/224/85
f 101/226/86 112/223/101 111/225/87
f 101/226/89 97/202/102 100/201/90
f 107/227/92 111/225/103 99/224/93
