# Blender v2.79 (sub 0) OBJ File: ''
# www.blender.org
o plane_Untitled
v 87.904205 3.697215 -88.829895
v 59.999802 0.000010 -59.999802
v 90.000198 0.000010 -59.999802
v 29.999901 0.000015 -90.000198
v 59.999802 0.000015 -90.000198
v 90.000198 0.000005 -29.999901
v 29.999901 0.000010 -59.999802
v 59.999802 0.000005 -29.999901
v 0.000000 0.000015 -90.000198
v -29.999901 0.000015 -90.000198
v 0.000000 0.000010 -59.999802
v 29.999901 0.000005 -29.999901
v -29.999901 0.000010 -59.999802
v 0.000000 0.000005 -29.999901
v 90.000198 0.000000 0.000000
v 59.999802 0.000000 0.000000
v 90.000198 -0.000005 29.999901
v 29.999901 0.000000 0.000000
v 59.999802 -0.000005 29.999901
v -29.999901 0.000005 -29.999901
v 0.000000 0.000000 0.000000
v 29.999901 -0.000005 29.999901
v -29.999901 0.000000 0.000000
v 0.000000 -0.000005 29.999901
v -59.975998 0.431315 -89.900604
v -89.729202 1.911010 -59.937401
v -59.999802 0.000010 -59.999802
v -59.999802 0.000005 -29.999901
v -89.730400 19.098614 -89.826294
v -118.041504 13.248210 -58.807198
v -148.102203 18.475016 -88.632896
v -118.952705 22.439915 -89.068901
v -116.729607 10.871605 -29.681597
v -90.000198 0.000005 -29.999901
v -150.682098 16.952005 -30.268997
v -59.999802 0.000000 0.000000
v -29.999901 -0.000005 29.999901
v -90.000198 0.000000 0.000000
v -59.999802 -0.000005 29.999901
v -118.062904 6.594500 -0.909799
v -117.169205 8.360395 29.941803
v -90.000198 -0.000005 29.999901
v -150.790497 16.977493 30.050703
v 90.000198 -0.000010 59.999802
v 59.999802 -0.000010 59.999802
v 89.681702 1.326185 89.697601
v 29.999901 -0.000010 59.999802
v 59.999802 -0.000015 90.000198
v 0.000000 -0.000010 59.999802
v 29.999901 -0.000015 90.000198
v -29.999901 -0.000010 59.999802
v 0.000000 -0.000015 90.000198
v 60.133099 7.117881 118.977592
v 89.147301 9.223580 119.395195
v 60.209900 21.276775 146.412689
v 92.421700 19.105474 149.310196
v 32.020901 15.647375 152.143600
v 0.000000 0.494780 119.999695
v 29.999901 1.291380 119.999695
v -29.999901 0.022980 119.999695
v 2.360000 17.605175 151.239304
v -24.167999 21.624178 142.604996
v -59.999802 -0.000010 59.999802
v -29.999901 -0.000015 90.000198
v -90.000198 -0.000010 59.999802
v -59.999802 -0.000015 90.000198
v -117.030800 9.972891 58.039600
v -89.979301 1.949585 89.971901
v -151.615494 24.176592 59.165302
v -117.351997 27.142984 86.039909
v -59.999901 0.090980 119.999695
v -57.186199 27.267376 142.213303
v -89.272202 25.507580 117.321510
v -153.943298 13.843685 92.078903
v -122.508392 21.106882 121.265198
v -90.140305 12.883374 150.058502
v -151.658493 4.532075 151.677292
v -120.174805 6.690975 150.955704
v 119.572792 17.015984 89.562500
v 149.652298 17.204481 121.115303
v 149.308899 16.916985 89.512802
v 119.689499 24.866480 123.672707
v 119.948601 6.880475 154.079788
v 150.007111 1.222476 150.007202
v 143.123108 14.571595 29.785004
v 119.948997 7.297091 59.949303
v 142.645798 22.384190 59.169003
v 119.999695 1.113395 29.999901
v 142.926300 14.873904 -29.963799
v 119.999695 0.844400 0.000000
v 149.744705 18.558701 0.023703
v 119.996407 1.138705 -29.999701
v 115.741798 20.546814 -86.431801
v 142.569901 17.820009 -59.092594
v 143.527695 23.981815 -88.373993
v 116.102898 9.043810 -59.037899
v -89.711502 20.359524 -155.912903
v -119.809898 26.426620 -120.424095
v -89.209000 25.174620 -119.937386
v -120.008301 4.085624 -150.109299
v -150.025497 12.797420 -119.961502
v -29.844702 23.284725 -150.239502
v -58.393700 22.048918 -116.278992
v -30.059900 11.605219 -119.440498
v -59.657700 22.149124 -155.277298
v 0.175700 18.504925 -149.378296
v 29.657598 4.644419 -119.404396
v 29.664499 17.854324 -151.344391
v 0.050300 5.008120 -119.395195
v 90.343597 19.485624 -147.089096
v 59.443401 13.728118 -112.211800
v 88.415703 14.963719 -114.404297
v 60.293503 19.484125 -152.015305
v 120.578506 18.979425 -151.234497
v 149.090698 8.953720 -120.007896
v 150.000000 2.777624 -150.000000
v 117.391800 24.112919 -117.807594
v -150.785599 18.240810 -59.039295
v -151.845596 19.902300 1.616603
v -159.430099 16.711178 124.261902
v -150.000000 3.144525 -150.000000
vt 0.791628 0.791628
vt 0.694418 0.694418
vt 0.791628 0.694418
vt 0.597209 0.791628
vt 0.694418 0.791628
vt 0.791628 0.597209
vt 0.597209 0.694418
vt 0.694418 0.597209
vt 0.500000 0.791628
vt 0.402791 0.791628
vt 0.500000 0.694418
vt 0.597209 0.597209
vt 0.402791 0.694418
vt 0.500000 0.597209
vt 0.791628 0.500000
vt 0.694418 0.500000
vt 0.791628 0.402791
vt 0.597209 0.500000
vt 0.694418 0.402791
vt 0.402791 0.597209
vt 0.500000 0.500000
vt 0.597209 0.402791
vt 0.402791 0.500000
vt 0.500000 0.402791
vt 0.305582 0.791628
vt 0.208372 0.694418
vt 0.305582 0.694418
vt 0.305582 0.597209
vt 0.208372 0.791628
vt 0.111163 0.694418
vt 0.013954 0.791628
vt 0.111163 0.791628
vt 0.111163 0.597209
vt 0.208372 0.597209
vt 0.013954 0.597209
vt 0.305582 0.500000
vt 0.402791 0.402791
vt 0.208372 0.500000
vt 0.305582 0.402791
vt 0.111163 0.500000
vt 0.111163 0.402791
vt 0.208372 0.402791
vt 0.013954 0.402791
vt 0.791628 0.305582
vt 0.694418 0.305582
vt 0.791628 0.208372
vt 0.597209 0.305582
vt 0.694418 0.208372
vt 0.500000 0.305582
vt 0.597209 0.208372
vt 0.402791 0.305582
vt 0.500000 0.208372
vt 0.694418 0.111163
vt 0.791628 0.111163
vt 0.694418 0.013954
vt 0.791628 0.013954
vt 0.597209 0.013954
vt 0.500000 0.111163
vt 0.597209 0.111163
vt 0.402791 0.111163
vt 0.500000 0.013954
vt 0.402791 0.013954
vt 0.305582 0.305582
vt 0.402791 0.208372
vt 0.208372 0.305582
vt 0.305582 0.208372
vt 0.111163 0.305582
vt 0.208372 0.208372
vt 0.013954 0.305582
vt 0.111163 0.208372
vt 0.305582 0.111163
vt 0.305582 0.013954
vt 0.208372 0.111163
vt 0.013954 0.208372
vt 0.111163 0.111163
vt 0.208372 0.013954
vt 0.013954 0.013954
vt 0.111163 0.013954
vt 0.888837 0.208372
vt 0.986046 0.111163
vt 0.986046 0.208372
vt 0.888837 0.111163
vt 0.888837 0.013954
vt 0.986046 0.013954
vt 0.986046 0.402791
vt 0.888837 0.305582
vt 0.986046 0.305582
vt 0.888837 0.402791
vt 0.986046 0.597209
vt 0.888837 0.500000
vt 0.986046 0.500000
vt 0.888837 0.597209
vt 0.888837 0.791628
vt 0.986046 0.694418
vt 0.986046 0.791628
vt 0.888837 0.694418
vt 0.208372 0.986046
vt 0.111163 0.888837
vt 0.208372 0.888837
vt 0.111163 0.986046
vt 0.013954 0.888837
vt 0.402791 0.986046
vt 0.305582 0.888837
vt 0.402791 0.888837
vt 0.305582 0.986046
vt 0.500000 0.986046
vt 0.597209 0.888837
vt 0.597209 0.986046
vt 0.500000 0.888837
vt 0.791628 0.986046
vt 0.694418 0.888837
vt 0.791628 0.888837
vt 0.694418 0.986046
vt 0.888837 0.986046
vt 0.986046 0.888837
vt 0.986046 0.986046
vt 0.888837 0.888837
vt 0.013954 0.694418
vt 0.013954 0.500000
vt 0.013954 0.111163
vt 0.013954 0.986046
vn -0.2696 0.9177 0.2919
vn -0.0162 0.9997 0.0163
vn -0.1655 0.9839 0.0674
vn -0.0477 0.9913 0.1226
vn -0.0686 0.9594 0.2736
vn -0.0530 0.9979 0.0375
vn 0.0000 1.0000 0.0000
vn 0.0015 0.9966 0.0828
vn 0.0335 0.9864 0.1611
vn 0.0018 1.0000 0.0018
vn -0.0141 0.9999 0.0000
vn -0.0174 0.9998 -0.0011
vn 0.2383 0.9099 0.3395
vn 0.2692 0.9402 0.2085
vn 0.0321 0.9995 0.0072
vn 0.0080 0.9999 0.0080
vn 0.2734 0.8917 0.3608
vn 0.2027 0.9643 0.1705
vn -0.1330 0.9883 0.0746
vn -0.0174 0.9755 0.2195
vn 0.2755 0.9550 0.1103
vn 0.1727 0.9836 0.0517
vn 0.2226 0.9741 0.0407
vn 0.1235 0.9923 -0.0084
vn 0.2753 0.9612 0.0157
vn 0.2633 0.9634 -0.0514
vn 0.1556 0.9878 -0.0070
vn 0.3189 0.9454 -0.0668
vn -0.0942 0.9944 -0.0481
vn -0.0056 1.0000 -0.0056
vn -0.2243 0.9592 -0.1722
vn -0.0227 0.9925 -0.1202
vn -0.0280 0.9987 -0.0426
vn -0.0020 1.0000 -0.0063
vn -0.1083 0.9418 -0.3182
vn -0.2119 0.9410 -0.2640
vn -0.1216 0.8993 -0.4200
vn 0.0066 0.9966 -0.0827
vn -0.0771 0.9049 -0.4185
vn 0.0193 0.9554 -0.2946
vn -0.0957 0.9675 -0.2342
vn 0.0169 0.9215 -0.3880
vn 0.1493 0.8700 -0.4698
vn 0.1394 0.7511 -0.6453
vn 0.0000 1.0000 -0.0004
vn 0.1816 0.9831 -0.0240
vn 0.0246 0.9997 -0.0094
vn 0.3667 0.9048 -0.2166
vn 0.4046 0.8660 -0.2938
vn 0.1679 0.9749 -0.1460
vn 0.1943 0.9631 -0.1863
vn 0.2265 0.8522 -0.4717
vn 0.1263 0.8431 -0.5228
vn 0.2476 0.9551 -0.1630
vn -0.2289 0.9688 0.0954
vn -0.1475 0.9641 0.2206
vn -0.1799 0.9318 0.3152
vn -0.0632 0.9005 0.4302
vn -0.1097 0.8907 0.4411
vn -0.2644 0.9503 -0.1644
vn 0.1936 0.9632 0.1864
vn -0.0121 0.9967 0.0803
vn -0.0099 0.9971 0.0757
vn 0.2387 0.8536 0.4630
vn 0.2244 0.8539 0.4696
vn -0.5160 0.8506 -0.1012
vn -0.4111 0.8875 -0.2081
vn -0.4263 0.8933 -0.1423
vn -0.2994 0.9509 -0.0783
vn -0.4649 0.8790 0.1063
vn -0.2799 0.9600 0.0019
vn -0.5117 0.8592 0.0060
vn -0.2867 0.9465 0.1483
vn -0.3113 0.9212 0.2335
vn -0.2620 0.9442 0.1997
vn 0.0196 0.9990 0.0393
vn -0.3288 0.9145 0.2355
vn -0.1645 0.9516 -0.2594
vn -0.2109 0.9554 -0.2067
vn 0.0612 0.9970 0.0470
vn -0.3346 0.8058 -0.4886
vn -0.3129 0.9007 -0.3014
vn 0.1363 0.9584 0.2508
vn 0.2294 0.9208 0.3154
vn 0.2289 0.8890 0.3966
vn -0.0047 0.9996 -0.0285
vn 0.0979 0.9170 0.3868
vn -0.1220 0.9617 0.2455
vn 0.0046 0.9232 0.3842
vn 0.0811 0.9463 0.3130
vn -0.0830 0.9950 0.0553
vn -0.1448 0.9491 0.2797
vn -0.1854 0.9576 0.2205
vn -0.0992 0.9734 0.2064
vn 0.2204 0.9658 -0.1366
vn 0.4029 0.8885 -0.2195
vn 0.4812 0.8614 -0.1628
vn 0.0391 0.9980 -0.0502
vn 0.1490 0.9883 0.0338
vn 0.3662 0.9305 0.0083
vn -0.1057 0.9807 0.1647
vn -0.0310 0.9516 -0.3058
s 1
f 1/1/1 2/2/2 3/3/3
f 4/4/4 2/2/2 5/5/5
f 2/2/2 6/6/6 3/3/3
f 7/7/7 8/8/7 2/2/2
f 9/9/8 7/7/7 4/4/4
f 10/10/9 11/11/7 9/9/8
f 11/11/7 12/12/7 7/7/7
f 13/13/10 14/14/7 11/11/7
f 8/8/7 15/15/11 6/6/6
f 12/12/7 16/16/7 8/8/7
f 16/16/7 17/17/12 15/15/11
f 18/18/7 19/19/7 16/16/7
f 14/14/7 18/18/7 12/12/7
f 20/20/7 21/21/7 14/14/7
f 21/21/7 22/22/7 18/18/7
f 23/23/7 24/24/7 21/21/7
f 25/25/13 13/13/10 10/10/9
f 25/25/13 26/26/14 27/27/15
f 27/27/15 20/20/7 13/13/10
f 26/26/14 28/28/16 27/27/15
f 29/29/17 30/30/18 26/26/14
f 31/31/19 30/30/18 32/32/20
f 26/26/14 33/33/21 34/34/22
f 30/30/18 35/35/23 33/33/21
f 28/28/16 23/23/7 20/20/7
f 34/34/22 36/36/7 28/28/16
f 36/36/7 37/37/7 23/23/7
f 38/38/24 39/39/7 36/36/7
f 34/34/22 40/40/25 38/38/24
f 35/35/23 40/40/25 33/33/21
f 38/38/24 41/41/26 42/42/27
f 40/40/25 43/43/28 41/41/26
f 19/19/7 44/44/29 17/17/12
f 22/22/7 45/45/30 19/19/7
f 45/45/30 46/46/31 44/44/29
f 47/47/7 48/48/32 45/45/30
f 24/24/7 47/47/7 22/22/7
f 37/37/7 49/49/7 24/24/7
f 49/49/7 50/50/33 47/47/7
f 51/51/7 52/52/34 49/49/7
f 46/46/31 53/53/35 54/54/36
f 50/50/33 53/53/35 48/48/32
f 54/54/36 55/55/37 56/56/38
f 53/53/35 57/57/39 55/55/37
f 50/50/33 58/58/40 59/59/41
f 52/52/34 60/60/42 58/58/40
f 59/59/41 61/61/43 57/57/39
f 58/58/40 62/62/44 61/61/43
f 39/39/7 51/51/7 37/37/7
f 42/42/27 63/63/7 39/39/7
f 63/63/7 64/64/45 51/51/7
f 65/65/46 66/66/47 63/63/7
f 42/42/27 67/67/48 65/65/46
f 43/43/28 67/67/48 41/41/26
f 67/67/48 68/68/49 65/65/46
f 69/69/50 70/70/51 67/67/48
f 66/66/47 60/60/42 64/64/45
f 68/68/49 71/71/52 66/66/47
f 60/60/42 72/72/53 62/62/44
f 73/73/54 72/72/53 71/71/52
f 70/70/51 73/73/54 68/68/49
f 74/74/55 75/75/56 70/70/51
f 75/75/56 76/76/57 73/73/54
f 75/75/56 77/77/58 78/78/59
f 79/79/60 80/80/61 81/81/62
f 79/79/60 54/54/36 82/82/63
f 80/80/61 83/83/64 84/84/65
f 82/82/63 56/56/38 83/83/64
f 85/85/66 86/86/67 87/87/68
f 88/88/69 44/44/29 86/86/67
f 87/87/68 79/79/60 81/81/62
f 86/86/67 46/46/31 79/79/60
f 89/89/70 90/90/71 91/91/72
f 6/6/6 90/90/71 92/92/73
f 90/90/71 85/85/66 91/91/72
f 90/90/71 17/17/12 88/88/69
f 93/93/74 94/94/75 95/95/76
f 1/1/1 96/96/77 93/93/74
f 96/96/77 89/89/70 94/94/75
f 96/96/77 6/6/6 92/92/73
f 97/97/78 98/98/79 99/99/80
f 100/100/81 101/101/82 98/98/79
f 99/99/80 32/32/20 29/29/17
f 98/98/79 31/31/19 32/32/20
f 102/102/83 103/103/84 104/104/85
f 105/105/86 99/99/80 103/103/84
f 104/104/85 25/25/13 10/10/9
f 103/103/84 29/29/17 25/25/13
f 106/106/87 107/107/88 108/108/89
f 106/106/87 104/104/85 109/109/90
f 107/107/88 9/9/8 4/4/4
f 109/109/90 10/10/9 9/9/8
f 110/110/91 111/111/92 112/112/93
f 113/113/94 107/107/88 111/111/92
f 111/111/92 1/1/1 112/112/93
f 111/111/92 4/4/4 5/5/5
f 114/114/95 115/115/96 116/116/97
f 110/110/91 117/117/98 114/114/95
f 117/117/98 95/95/76 115/115/96
f 112/112/93 93/93/74 117/117/98
f 1/1/1 5/5/5 2/2/2
f 4/4/4 7/7/7 2/2/2
f 2/2/2 8/8/7 6/6/6
f 7/7/7 12/12/7 8/8/7
f 9/9/8 11/11/7 7/7/7
f 10/10/9 13/13/10 11/11/7
f 11/11/7 14/14/7 12/12/7
f 13/13/10 20/20/7 14/14/7
f 8/8/7 16/16/7 15/15/11
f 12/12/7 18/18/7 16/16/7
f 16/16/7 19/19/7 17/17/12
f 18/18/7 22/22/7 19/19/7
f 14/14/7 21/21/7 18/18/7
f 20/20/7 23/23/7 21/21/7
f 21/21/7 24/24/7 22/22/7
f 23/23/7 37/37/7 24/24/7
f 25/25/13 27/27/15 13/13/10
f 25/25/13 29/29/17 26/26/14
f 27/27/15 28/28/16 20/20/7
f 26/26/14 34/34/22 28/28/16
f 29/29/17 32/32/20 30/30/18
f 31/31/19 118/118/99 30/30/18
f 26/26/14 30/30/18 33/33/21
f 30/30/18 118/118/99 35/35/23
f 28/28/16 36/36/7 23/23/7
f 34/34/22 38/38/24 36/36/7
f 36/36/7 39/39/7 37/37/7
f 38/38/24 42/42/27 39/39/7
f 34/34/22 33/33/21 40/40/25
f 35/35/23 119/119/100 40/40/25
f 38/38/24 40/40/25 41/41/26
f 40/40/25 119/119/100 43/43/28
f 19/19/7 45/45/30 44/44/29
f 22/22/7 47/47/7 45/45/30
f 45/45/30 48/48/32 46/46/31
f 47/47/7 50/50/33 48/48/32
f 24/24/7 49/49/7 47/47/7
f 37/37/7 51/51/7 49/49/7
f 49/49/7 52/52/34 50/50/33
f 51/51/7 64/64/45 52/52/34
f 46/46/31 48/48/32 53/53/35
f 50/50/33 59/59/41 53/53/35
f 54/54/36 53/53/35 55/55/37
f 53/53/35 59/59/41 57/57/39
f 50/50/33 52/52/34 58/58/40
f 52/52/34 64/64/45 60/60/42
f 59/59/41 58/58/40 61/61/43
f 58/58/40 60/60/42 62/62/44
f 39/39/7 63/63/7 51/51/7
f 42/42/27 65/65/46 63/63/7
f 63/63/7 66/66/47 64/64/45
f 65/65/46 68/68/49 66/66/47
f 42/42/27 41/41/26 67/67/48
f 43/43/28 69/69/50 67/67/48
f 67/67/48 70/70/51 68/68/49
f 69/69/50 74/74/55 70/70/51
f 66/66/47 71/71/52 60/60/42
f 68/68/49 73/73/54 71/71/52
f 60/60/42 71/71/52 72/72/53
f 73/73/54 76/76/57 72/72/53
f 70/70/51 75/75/56 73/73/54
f 74/74/55 120/120/101 75/75/56
f 75/75/56 78/78/59 76/76/57
f 75/75/56 120/120/101 77/77/58
f 79/79/60 82/82/63 80/80/61
f 79/79/60 46/46/31 54/54/36
f 80/80/61 82/82/63 83/83/64
f 82/82/63 54/54/36 56/56/38
f 85/85/66 88/88/69 86/86/67
f 88/88/69 17/17/12 44/44/29
f 87/87/68 86/86/67 79/79/60
f 86/86/67 44/44/29 46/46/31
f 89/89/70 92/92/73 90/90/71
f 6/6/6 15/15/11 90/90/71
f 90/90/71 88/88/69 85/85/66
f 90/90/71 15/15/11 17/17/12
f 93/93/74 96/96/77 94/94/75
f 1/1/1 3/3/3 96/96/77
f 96/96/77 92/92/73 89/89/70
f 96/96/77 3/3/3 6/6/6
f 97/97/78 100/100/81 98/98/79
f 100/100/81 121/121/102 101/101/82
f 99/99/80 98/98/79 32/32/20
f 98/98/79 101/101/82 31/31/19
f 102/102/83 105/105/86 103/103/84
f 105/105/86 97/97/78 99/99/80
f 104/104/85 103/103/84 25/25/13
f 103/103/84 99/99/80 29/29/17
f 106/106/87 109/109/90 107/107/88
f 106/106/87 102/102/83 104/104/85
f 107/107/88 109/109/90 9/9/8
f 109/109/90 104/104/85 10/10/9
f 110/110/91 113/113/94 111/111/92
f 113/113/94 108/108/89 107/107/88
f 111/111/92 5/5/5 1/1/1
f 111/111/92 107/107/88 4/4/4
f 114/114/95 117/117/98 115/115/96
f 110/110/91 112/112/93 117/117/98
f 117/117/98 93/93/74 95/95/76
f 112/112/93 1/1/1 93/93/74
