# Blender v2.77 (sub 0) OBJ File: 'mage_tower.blend'
# www.blender.org
o Circle
v 0.000000 0.153330 -0.926971
v -0.802780 0.153330 -0.463485
v -0.802780 0.153330 0.463486
v 0.000000 0.153330 0.926971
v 0.802780 0.153330 0.463485
v 0.802780 0.153330 -0.463485
v 0.000000 4.540989 -0.926971
v -0.802780 4.540989 -0.463485
v -0.802780 4.540989 0.463486
v 0.000000 4.540989 0.926971
v 0.802780 4.540989 0.463485
v 0.802780 4.540989 -0.463485
v -0.000000 4.860007 -1.138673
v -0.986120 4.860007 -0.569337
v -0.986120 4.860007 0.569337
v 0.000000 4.860007 1.138673
v 0.986120 4.860007 0.569337
v 0.986120 4.860007 -0.569337
v -0.000000 5.124194 -1.138673
v -0.986120 5.124194 -0.569337
v -0.986120 5.124194 0.569337
v 0.000000 5.124194 1.138673
v 0.986120 5.124194 0.569337
v 0.986120 5.124194 -0.569337
v -0.000000 5.309124 -1.273364
v -1.102766 5.309124 -0.636682
v -1.102765 5.309124 0.636682
v 0.000000 5.309124 1.273364
v 1.102765 5.309124 0.636682
v 1.102765 5.309124 -0.636682
v -0.000000 6.022427 -1.273364
v -1.102766 6.022427 -0.636682
v -1.102765 6.022427 0.636682
v 0.000000 6.022427 1.273364
v 1.102765 6.022427 0.636682
v 1.102765 6.022427 -0.636682
v -0.000000 6.326241 -1.025822
v -0.888388 6.326241 -0.512911
v -0.888388 6.326241 0.512911
v 0.000000 6.326241 1.025822
v 0.888388 6.326241 0.512911
v 0.888388 6.326241 -0.512911
v -0.000000 6.735729 -0.855830
v -0.741171 6.735729 -0.427915
v -0.741171 6.735729 0.427915
v 0.000000 6.735729 0.855831
v 0.741171 6.735729 0.427915
v 0.741171 6.735729 -0.427915
v -0.000000 7.211265 -0.547927
v -0.474519 7.211265 -0.273964
v -0.474519 7.211265 0.273964
v 0.000000 7.211265 0.547928
v 0.474519 7.211265 0.273964
v 0.474519 7.211265 -0.273964
v -0.000000 7.515079 -0.246979
v -0.213890 7.515079 -0.123489
v -0.213890 7.515079 0.123490
v 0.000000 7.515079 0.246979
v 0.213890 7.515079 0.123489
v 0.213890 7.515079 -0.123489
v -0.000000 7.673590 -0.108144
v -0.093656 7.673590 -0.054072
v -0.093656 7.673590 0.054072
v -0.000000 7.673590 0.108144
v 0.093656 7.673590 0.054072
v 0.093656 7.673590 -0.054072
v -0.000000 8.167831 0.000000
v 0.000000 5.990234 1.027526
v 0.889864 5.990234 0.513763
v -0.000000 5.990234 -1.027526
v 0.889864 5.990234 -0.513763
v -0.889864 5.990234 -0.513763
v -0.889864 5.990234 0.513763
v 0.889864 5.350697 0.513763
v -0.889864 5.350697 0.513763
v -0.000000 5.350697 -1.027526
v 0.000000 5.350697 1.027526
v -0.889864 5.350697 -0.513763
v 0.889864 5.350697 -0.513763
v -0.000000 0.015564 -1.116696
v -0.967087 0.015564 -0.558348
v -0.967087 0.015564 0.558348
v 0.000000 0.015564 1.116696
v 0.967087 0.015564 0.558348
v 0.967087 0.015564 -0.558348
v -0.802780 0.153330 -0.463485
v -0.802780 0.153330 -0.463485
v -0.802780 0.153330 -0.463485
v 0.000000 0.153330 -0.926971
v 0.000000 0.153330 -0.926971
v 0.000000 0.153330 -0.926971
v -0.802780 0.153330 0.463486
v -0.802780 0.153330 0.463486
v -0.802780 0.153330 0.463486
v 0.000000 0.153330 0.926971
v 0.000000 0.153330 0.926971
v 0.000000 0.153330 0.926971
v 0.802780 0.153330 0.463485
v 0.802780 0.153330 0.463485
v 0.802780 0.153330 0.463485
v 0.802780 0.153330 -0.463485
v 0.802780 0.153330 -0.463485
v 0.802780 0.153330 -0.463485
v -0.802780 4.540989 -0.463485
v -0.802780 4.540989 0.463486
v 0.000000 4.540989 0.926971
v 0.802780 4.540989 0.463485
v 0.000000 4.540989 -0.926971
v 0.802780 4.540989 -0.463485
v -0.000000 4.860007 -1.138673
v 0.986120 4.860007 -0.569337
v -0.986120 4.860007 -0.569337
v -0.986120 4.860007 0.569337
v 0.000000 4.860007 1.138673
v 0.986120 4.860007 0.569337
v -0.986120 5.124194 -0.569337
v -0.986120 5.124194 -0.569337
v -0.986120 5.124194 -0.569337
v -0.000000 5.124194 -1.138673
v -0.000000 5.124194 -1.138673
v -0.000000 5.124194 -1.138673
v -0.986120 5.124194 0.569337
v -0.986120 5.124194 0.569337
v -0.986120 5.124194 0.569337
v 0.000000 5.124194 1.138673
v 0.000000 5.124194 1.138673
v 0.000000 5.124194 1.138673
v 0.986120 5.124194 0.569337
v 0.986120 5.124194 0.569337
v 0.986120 5.124194 0.569337
v 0.986120 5.124194 -0.569337
v 0.986120 5.124194 -0.569337
v 0.986120 5.124194 -0.569337
v -1.102766 5.309124 -0.636682
v -1.102766 5.309124 -0.636682
v -0.000000 5.309124 -1.273364
v -0.000000 5.309124 -1.273364
v -1.102765 5.309124 0.636682
v -1.102765 5.309124 0.636682
v 0.000000 5.309124 1.273364
v 0.000000 5.309124 1.273364
v 1.102765 5.309124 0.636682
v 1.102765 5.309124 0.636682
v 1.102765 5.309124 -0.636682
v 1.102765 5.309124 -0.636682
v -1.102766 6.022427 -0.636682
v -1.102766 6.022427 -0.636682
v -0.000000 6.022427 -1.273364
v -0.000000 6.022427 -1.273364
v -1.102765 6.022427 0.636682
v -1.102765 6.022427 0.636682
v 0.000000 6.022427 1.273364
v 0.000000 6.022427 1.273364
v 1.102765 6.022427 0.636682
v 1.102765 6.022427 0.636682
v 1.102765 6.022427 -0.636682
v 1.102765 6.022427 -0.636682
v 0.000000 6.326241 1.025822
v 0.888388 6.326241 0.512911
v -0.000000 6.326241 -1.025822
v 0.888388 6.326241 -0.512911
v -0.888388 6.326241 -0.512911
v -0.888388 6.326241 0.512911
v -0.741171 6.735729 -0.427915
v -0.741171 6.735729 0.427915
v 0.000000 6.735729 0.855831
v 0.741171 6.735729 0.427915
v -0.000000 6.735729 -0.855830
v 0.741171 6.735729 -0.427915
v -0.474519 7.211265 -0.273964
v -0.474519 7.211265 0.273964
v 0.000000 7.211265 0.547928
v 0.474519 7.211265 0.273964
v -0.000000 7.211265 -0.547927
v 0.474519 7.211265 -0.273964
v -0.213890 7.515079 -0.123489
v -0.213890 7.515079 0.123490
v 0.000000 7.515079 0.246979
v 0.213890 7.515079 0.123489
v -0.000000 7.515079 -0.246979
v 0.213890 7.515079 -0.123489
v -0.093656 7.673590 -0.054072
v -0.093656 7.673590 0.054072
v -0.000000 7.673590 0.108144
v 0.093656 7.673590 0.054072
v -0.000000 7.673590 -0.108144
v 0.093656 7.673590 -0.054072
v -0.000000 8.167831 0.000000
v -0.000000 8.167831 0.000000
v -0.000000 8.167831 0.000000
v -0.000000 8.167831 0.000000
v -0.000000 8.167831 0.000000
v 0.000000 5.990234 1.027526
v 0.000000 5.990234 1.027526
v 0.889864 5.990234 0.513763
v 0.889864 5.990234 0.513763
v 0.889864 5.990234 -0.513763
v 0.889864 5.990234 -0.513763
v -0.000000 5.990234 -1.027526
v -0.000000 5.990234 -1.027526
v -0.889864 5.990234 -0.513763
v -0.889864 5.990234 -0.513763
v -0.889864 5.990234 0.513763
v -0.889864 5.990234 0.513763
v -0.889864 5.350697 -0.513763
v -0.889864 5.350697 -0.513763
v -0.889864 5.350697 0.513763
v -0.889864 5.350697 0.513763
v 0.000000 5.350697 1.027526
v 0.000000 5.350697 1.027526
v -0.000000 5.350697 -1.027526
v -0.000000 5.350697 -1.027526
v 0.889864 5.350697 0.513763
v 0.889864 5.350697 0.513763
v 0.889864 5.350697 -0.513763
v 0.889864 5.350697 -0.513763
v -0.967087 0.015564 -0.558348
v -0.967087 0.015564 0.558348
v 0.000000 0.015564 1.116696
v 0.967087 0.015564 0.558348
v -0.000000 0.015564 -1.116696
v 0.967087 0.015564 -0.558348
vt 0.6898 0.5125
vt 0.5865 0.5125
vt 0.5865 0.0239
vt 0.1225 0.5125
vt 0.0193 0.5125
vt 0.0193 0.0239
vt 0.1611 0.5125
vt 0.1611 0.0239
vt 0.2643 0.0239
vt 0.4061 0.5125
vt 0.3029 0.5125
vt 0.3029 0.0239
vt 0.5480 0.5125
vt 0.4447 0.5125
vt 0.4447 0.0239
vt 0.8316 0.5125
vt 0.7283 0.5125
vt 0.7283 0.0239
vt 0.1493 0.5535
vt 0.2643 0.5125
vt 0.4179 0.5535
vt 0.2911 0.5535
vt 0.5597 0.5535
vt 0.4329 0.5535
vt 0.8434 0.5535
vt 0.7166 0.5535
vt 0.7016 0.5535
vt 0.5747 0.5535
vt 0.1343 0.5535
vt 0.0075 0.5535
vt 0.1493 0.5829
vt 0.2761 0.5535
vt 0.4179 0.5829
vt 0.2911 0.5829
vt 0.5597 0.5829
vt 0.4329 0.5829
vt 0.8434 0.5829
vt 0.7166 0.5829
vt 0.7016 0.5829
vt 0.5747 0.5829
vt 0.1343 0.5829
vt 0.0075 0.5829
vt 0.1418 0.6073
vt 0.0000 0.6073
vt 0.0075 0.5829
vt 0.1418 0.6073
vt 0.1493 0.5829
vt 0.2761 0.5829
vt 0.4254 0.6073
vt 0.2836 0.6073
vt 0.4179 0.5829
vt 0.5672 0.6073
vt 0.4254 0.6073
vt 0.4329 0.5829
vt 0.8509 0.6073
vt 0.7091 0.6073
vt 0.7166 0.5829
vt 0.7091 0.6073
vt 0.5672 0.6073
vt 0.5747 0.5829
vt 0.1281 0.6314
vt 0.0137 0.6314
vt 0.1418 0.6073
vt 0.1555 0.6314
vt 0.1418 0.6073
vt 0.2699 0.6314
vt 0.4117 0.6314
vt 0.2973 0.6314
vt 0.4254 0.6073
vt 0.5536 0.6314
vt 0.4391 0.6314
vt 0.5672 0.6073
vt 0.8372 0.6314
vt 0.7227 0.6314
vt 0.7091 0.6073
vt 0.6954 0.6314
vt 0.5809 0.6314
vt 0.7091 0.6073
vt 0.1280 0.7680
vt 0.0138 0.7680
vt 0.1418 0.7266
vt 0.1556 0.7680
vt 0.1418 0.7266
vt 0.2698 0.7680
vt 0.4117 0.7680
vt 0.2974 0.7680
vt 0.2836 0.7266
vt 0.5535 0.7680
vt 0.4392 0.7680
vt 0.5672 0.7266
vt 0.8371 0.7680
vt 0.7228 0.7680
vt 0.7091 0.7266
vt 0.6953 0.7680
vt 0.5810 0.7680
vt 0.5672 0.7266
vt 0.6858 0.8165
vt 0.5905 0.8165
vt 0.1186 0.8165
vt 0.0233 0.8165
vt 0.1651 0.8165
vt 0.4022 0.8165
vt 0.3069 0.8165
vt 0.5440 0.8165
vt 0.4487 0.8165
vt 0.8276 0.8165
vt 0.7323 0.8165
vt 0.6687 0.8772
vt 0.6076 0.8772
vt 0.1014 0.8772
vt 0.0404 0.8772
vt 0.1822 0.8772
vt 0.2432 0.8772
vt 0.3850 0.8772
vt 0.3240 0.8772
vt 0.5269 0.8772
vt 0.4658 0.8772
vt 0.8105 0.8772
vt 0.7495 0.8772
vt 0.6519 0.9218
vt 0.6244 0.9218
vt 0.0847 0.9218
vt 0.0572 0.9218
vt 0.1990 0.9218
vt 0.3683 0.9218
vt 0.3408 0.9218
vt 0.5101 0.9218
vt 0.4826 0.9218
vt 0.7937 0.9218
vt 0.7662 0.9218
vt 0.6442 0.9440
vt 0.6321 0.9440
vt 0.0769 0.9440
vt 0.0649 0.9440
vt 0.2067 0.9440
vt 0.2265 0.9218
vt 0.3606 0.9440
vt 0.3485 0.9440
vt 0.5024 0.9440
vt 0.4903 0.9440
vt 0.7860 0.9439
vt 0.7739 0.9439
vt 0.7800 1.0000
vt 0.6382 1.0000
vt 0.0709 1.0000
vt 0.2127 1.0000
vt 0.2187 0.9440
vt 0.3545 1.0000
vt 0.4963 1.0000
vt 0.1418 0.7266
vt 0.0000 0.7266
vt 0.0137 0.7026
vt 0.1418 0.7266
vt 0.1555 0.7026
vt 0.2699 0.7026
vt 0.4254 0.7266
vt 0.2836 0.7266
vt 0.2973 0.7026
vt 0.5672 0.7266
vt 0.4254 0.7266
vt 0.4391 0.7027
vt 0.8509 0.7266
vt 0.7091 0.7266
vt 0.7227 0.7027
vt 0.7091 0.7266
vt 0.5672 0.7266
vt 0.5809 0.7026
vt 0.4117 0.7026
vt 0.2973 0.7026
vt 0.2973 0.6314
vt 0.6954 0.7026
vt 0.5809 0.7026
vt 0.5809 0.6314
vt 0.1281 0.7026
vt 0.0137 0.7026
vt 0.0137 0.6314
vt 0.5536 0.7027
vt 0.4391 0.7027
vt 0.4391 0.6314
vt 0.8372 0.7027
vt 0.7227 0.7027
vt 0.7227 0.6314
vt 0.1555 0.7026
vt 0.1555 0.6314
vt 0.2699 0.6314
vt 0.6898 0.0239
vt 0.5865 0.0239
vt 0.5760 0.0000
vt 0.1225 0.0239
vt 0.0193 0.0239
vt 0.1331 0.0000
vt 0.1505 0.0000
vt 0.2749 0.0000
vt 0.2643 0.0239
vt 0.4061 0.0239
vt 0.3029 0.0239
vt 0.4167 0.0000
vt 0.5480 0.0239
vt 0.4447 0.0239
vt 0.4342 0.0000
vt 0.8316 0.0239
vt 0.7283 0.0239
vt 0.7178 0.0000
vt 0.6898 0.0239
vt 0.1225 0.0239
vt 0.4061 0.0239
vt 0.5480 0.0239
vt 0.8316 0.0239
vt 0.2761 0.5829
vt 0.1343 0.5829
vt 0.2836 0.6073
vt 0.2911 0.5829
vt 0.5597 0.5829
vt 0.8434 0.5829
vt 0.7016 0.5829
vt 0.0000 0.6073
vt 0.2836 0.6073
vt 0.4254 0.6073
vt 0.8509 0.6073
vt 0.5672 0.6073
vt 0.0000 0.7266
vt 0.2836 0.7266
vt 0.4254 0.7266
vt 0.4254 0.7266
vt 0.8509 0.7266
vt 0.7091 0.7266
vt 0.2604 0.8165
vt 0.1281 0.7026
vt 0.4117 0.7026
vt 0.5536 0.7027
vt 0.8372 0.7027
vt 0.6954 0.7026
vt 0.4117 0.6314
vt 0.6954 0.6314
vt 0.1281 0.6314
vt 0.5536 0.6314
vt 0.8372 0.6314
vt 0.2699 0.7026
vt 0.7003 0.0000
vt 0.0087 0.0000
vt 0.1611 0.0239
vt 0.2924 0.0000
vt 0.5585 0.0000
vt 0.8421 0.0000
vn -0.9603 -0.2789 0.0000
vn -1.0000 0.0000 0.0000
vn 0.4801 -0.2789 0.8317
vn 0.5000 0.0000 0.8660
vn 0.4801 -0.2789 -0.8317
vn 0.5000 0.0000 -0.8660
vn -0.4801 -0.2789 -0.8317
vn -0.5000 0.0000 -0.8660
vn -0.4801 -0.2789 0.8317
vn -0.5000 0.0000 0.8660
vn 0.9603 -0.2789 0.0000
vn 1.0000 0.0000 0.0000
vn 0.4863 -0.2325 -0.8423
vn -0.4863 -0.2325 -0.8423
vn -0.4863 -0.2325 0.8423
vn 0.9726 -0.2325 0.0000
vn -0.9726 -0.2325 0.0000
vn 0.4863 -0.2325 0.8423
vn 0.4229 -0.5335 0.7325
vn 0.4229 -0.5335 -0.7325
vn -0.4229 -0.5335 -0.7325
vn -0.4229 -0.5335 0.7325
vn 0.8458 -0.5335 0.0000
vn -0.8458 -0.5335 0.0000
vn 0.1444 0.9860 0.0833
vn 0.0000 0.9860 0.1667
vn 0.1444 0.9860 -0.0833
vn 0.0000 0.9860 -0.1667
vn -0.1444 0.9860 -0.0833
vn -0.1444 0.9860 0.0833
vn 0.4385 0.4804 0.7595
vn 0.4085 0.5765 0.7076
vn 0.4385 0.4804 -0.7595
vn 0.4085 0.5765 -0.7076
vn -0.4385 0.4804 -0.7595
vn -0.4085 0.5765 -0.7076
vn -0.4385 0.4804 0.7595
vn -0.4085 0.5765 0.7076
vn 0.8770 0.4804 0.0000
vn 0.8170 0.5765 0.0000
vn -0.8770 0.4804 0.0000
vn -0.8170 0.5765 0.0000
vn -0.9149 0.4035 0.0000
vn 0.4575 0.4035 0.7924
vn 0.4575 0.4035 -0.7924
vn -0.4575 0.4035 -0.7924
vn -0.4575 0.4035 0.7924
vn 0.9149 0.4035 0.0000
vn -0.8312 0.5559 0.0000
vn 0.4156 0.5559 0.7199
vn 0.4156 0.5559 -0.7199
vn -0.4156 0.5559 -0.7199
vn -0.4156 0.5559 0.7199
vn 0.8312 0.5559 0.0000
vn -0.7740 0.6331 0.0000
vn 0.3870 0.6331 0.6703
vn 0.3870 0.6331 -0.6703
vn -0.3870 0.6331 -0.6703
vn -0.3870 0.6331 0.6703
vn 0.7740 0.6331 0.0000
vn -0.9009 0.4340 0.0000
vn 0.4504 0.4340 0.7802
vn 0.4504 0.4340 -0.7802
vn -0.4504 0.4340 -0.7802
vn -0.4504 0.4340 0.7802
vn 0.9009 0.4340 0.0000
vn 0.9825 0.1862 0.0000
vn -0.9825 0.1862 0.0000
vn 0.4913 0.1862 0.8509
vn 0.4913 0.1862 -0.8509
vn -0.4913 0.1862 -0.8509
vn -0.4913 0.1862 0.8509
vn 0.1124 -0.9915 0.0649
vn 0.0000 -0.9915 0.1298
vn 0.1124 -0.9915 -0.0649
vn 0.0000 -0.9915 -0.1298
vn -0.1124 -0.9915 -0.0649
vn -0.1124 -0.9915 0.0649
vn -0.6425 0.7663 0.0000
vn 0.3212 0.7663 0.5564
vn 0.3212 0.7663 -0.5564
vn -0.3212 0.7663 -0.5564
vn -0.3212 0.7663 0.5564
vn 0.6425 0.7663 0.0000
s 1
f 9/1/1 104/2/1 86/3/2
f 11/4/3 106/5/3 95/6/4
f 109/7/5 101/8/6 89/9/6
f 8/10/7 7/11/7 1/12/8
f 10/13/9 105/14/9 92/15/10
f 12/16/11 107/17/11 98/18/12
f 111/19/13 109/7/5 108/20/5
f 14/21/14 13/22/14 7/11/7
f 16/23/15 113/24/15 10/13/9
f 18/25/16 115/26/16 107/17/11
f 15/27/17 112/28/17 104/2/1
f 17/29/18 114/30/18 106/5/3
f 131/31/6 111/19/13 110/32/13
f 20/33/8 19/34/8 13/22/14
f 22/35/10 122/36/10 113/24/15
f 24/37/12 128/38/12 115/26/16
f 21/39/2 116/40/2 112/28/17
f 23/41/4 125/42/4 114/30/18
f 29/43/19 140/44/19 126/45/19
f 144/46/20 132/47/20 120/48/20
f 26/49/21 25/50/21 117/51/21
f 28/52/22 138/53/22 123/54/22
f 30/55/23 142/56/23 130/57/23
f 27/58/24 134/59/24 118/60/24
f 74/61/25 77/62/26 143/63/25
f 79/64/27 145/65/27 76/66/28
f 78/67/29 76/68/28 135/69/29
f 77/70/26 75/71/30 141/72/26
f 79/73/27 74/74/25 143/75/25
f 75/76/30 78/77/29 139/78/30
f 41/79/31 158/80/31 35/81/32
f 161/82/33 156/83/34 160/84/33
f 38/85/35 37/86/35 31/87/36
f 40/88/37 163/89/37 34/90/38
f 42/91/39 159/92/39 154/93/40
f 39/94/41 162/95/41 146/96/42
f 45/97/43 164/98/43 162/95/41
f 47/99/44 166/100/44 158/80/31
f 169/101/45 161/82/33 160/84/33
f 44/102/46 43/103/46 37/86/35
f 46/104/47 165/105/47 163/89/37
f 48/106/48 167/107/48 42/91/39
f 51/108/49 170/109/49 45/97/43
f 53/110/50 172/111/50 47/99/44
f 175/112/51 169/101/45 174/113/51
f 50/114/52 49/115/52 43/103/46
f 52/116/53 171/117/53 165/105/47
f 54/118/54 173/119/54 167/107/48
f 57/120/55 176/121/55 170/109/49
f 59/122/56 178/123/56 53/110/50
f 181/124/57 175/112/51 174/113/51
f 56/125/58 55/126/58 49/115/52
f 58/127/59 177/128/59 171/117/53
f 60/129/60 179/130/60 173/119/54
f 63/131/61 182/132/61 176/121/55
f 65/133/62 184/134/62 59/122/56
f 187/135/63 181/124/57 180/136/57
f 62/137/64 61/138/64 55/126/58
f 64/139/65 183/140/65 177/128/59
f 66/141/66 185/142/66 179/130/60
f 188/143/67 185/142/66 66/141/66
f 189/144/68 182/132/61 63/131/61
f 190/145/69 184/134/62 65/133/62
f 67/146/70 187/135/63 186/147/63
f 191/148/71 61/138/64 62/137/64
f 192/149/72 183/140/65 64/139/65
f 155/150/73 153/151/74 68/152/74
f 157/153/75 71/154/75 70/155/76
f 147/156/77 149/157/76 70/158/76
f 153/159/74 151/160/78 73/161/78
f 157/162/75 155/163/73 69/164/73
f 151/165/78 147/166/77 72/167/77
f 201/168/8 199/169/8 211/170/8
f 203/171/2 202/172/2 206/173/2
f 195/174/4 193/175/4 209/176/4
f 194/177/10 204/178/10 208/179/10
f 197/180/12 196/181/12 214/182/12
f 198/183/6 216/184/6 212/185/6
f 93/186/79 87/187/79 217/188/79
f 99/189/80 96/190/80 84/191/80
f 222/192/81 221/193/81 90/194/81
f 88/195/82 91/196/82 81/197/82
f 97/198/83 94/199/83 218/200/83
f 103/201/84 100/202/84 220/203/84
f 3/204/2 9/1/1 86/3/2
f 5/205/4 11/4/3 95/6/4
f 108/20/5 109/7/5 89/9/6
f 2/206/8 8/10/7 1/12/8
f 4/207/10 10/13/9 92/15/10
f 6/208/12 12/16/11 98/18/12
f 110/32/13 111/19/13 108/20/5
f 8/10/7 14/21/14 7/11/7
f 113/24/15 105/14/9 10/13/9
f 12/16/11 18/25/16 107/17/11
f 9/1/1 15/27/17 104/2/1
f 11/4/3 17/29/18 106/5/3
f 119/209/6 131/31/6 110/32/13
f 14/21/14 20/33/8 13/22/14
f 16/23/15 22/35/10 113/24/15
f 18/25/16 24/37/12 115/26/16
f 15/27/17 21/39/2 112/28/17
f 17/29/18 23/41/4 114/30/18
f 129/210/19 29/43/19 126/45/19
f 136/211/20 144/46/20 120/48/20
f 25/50/21 121/212/21 117/51/21
f 127/213/22 28/52/22 123/54/22
f 133/214/23 30/55/23 130/57/23
f 124/215/24 27/58/24 118/60/24
f 77/62/26 141/216/26 143/63/25
f 145/65/27 137/217/28 76/66/28
f 76/68/28 137/217/28 135/69/29
f 75/71/30 139/218/30 141/72/26
f 145/219/27 79/73/27 143/75/25
f 78/77/29 135/220/29 139/78/30
f 158/80/31 152/221/32 35/81/32
f 156/83/34 148/222/34 160/84/33
f 32/223/36 38/85/35 31/87/36
f 163/89/37 150/224/38 34/90/38
f 36/225/40 42/91/39 154/93/40
f 33/226/42 39/94/41 146/96/42
f 39/94/41 45/97/43 162/95/41
f 41/79/31 47/99/44 158/80/31
f 168/227/45 169/101/45 160/84/33
f 38/85/35 44/102/46 37/86/35
f 40/88/37 46/104/47 163/89/37
f 167/107/48 159/92/39 42/91/39
f 170/109/49 164/98/43 45/97/43
f 172/111/50 166/100/44 47/99/44
f 169/101/45 168/227/45 174/113/51
f 44/102/46 50/114/52 43/103/46
f 46/104/47 52/116/53 165/105/47
f 48/106/48 54/118/54 167/107/48
f 51/108/49 57/120/55 170/109/49
f 178/123/56 172/111/50 53/110/50
f 180/136/57 181/124/57 174/113/51
f 50/114/52 56/125/58 49/115/52
f 52/116/53 58/127/59 171/117/53
f 54/118/54 60/129/60 173/119/54
f 57/120/55 63/131/61 176/121/55
f 184/134/62 178/123/56 59/122/56
f 186/147/63 187/135/63 180/136/57
f 56/125/58 62/137/64 55/126/58
f 58/127/59 64/139/65 177/128/59
f 60/129/60 66/141/66 179/130/60
f 69/228/73 155/150/73 68/152/74
f 149/157/76 157/153/75 70/155/76
f 72/229/77 147/156/77 70/158/76
f 68/230/74 153/159/74 73/161/78
f 71/231/75 157/162/75 69/164/73
f 73/232/78 151/165/78 72/167/77
f 205/233/8 201/168/8 211/170/8
f 207/234/2 203/171/2 206/173/2
f 213/235/4 195/174/4 209/176/4
f 210/236/10 194/177/10 208/179/10
f 215/237/12 197/180/12 214/182/12
f 200/238/6 198/183/6 212/185/6
f 82/239/79 93/186/79 217/188/79
f 96/190/80 219/240/80 84/191/80
f 102/241/81 222/192/81 90/194/81
f 91/196/82 80/242/82 81/197/82
f 83/243/83 97/198/83 218/200/83
f 85/244/84 103/201/84 220/203/84
