# Blender v2.79 (sub 0) OBJ File: ''
# www.blender.org
o Circle.006_Circle.000
v -0.083679 0.295481 -0.025391
v -0.100550 0.297378 -0.064474
v -0.142620 0.302109 -0.069312
v -0.108878 0.298314 0.008853
v -0.150948 0.303045 0.004015
v -0.142620 0.302109 -0.069312
v -0.108878 0.298314 0.008853
v -0.150948 0.303045 0.004015
v -0.142620 0.302109 -0.069312
v -0.083679 0.295481 -0.025391
v -0.111100 0.308098 -0.048698
v -0.100550 0.297378 -0.064474
v -0.150948 0.303045 0.004015
v -0.101130 0.311475 0.048165
v -0.108878 0.298314 0.008853
v -0.108878 0.298314 0.008853
v -0.045194 0.305185 -0.011130
v -0.082993 0.309436 0.040237
v -0.167820 0.304942 -0.035068
v -0.180127 0.320358 0.029065
v -0.205434 0.323204 -0.029559
v -0.165389 0.318701 -0.100696
v -0.084147 0.309565 -0.101366
v -0.068255 0.307778 -0.089524
v -0.042948 0.304933 -0.030900
v -0.141988 0.318596 -0.141905
v -0.081796 0.306775 -0.135126
v -0.210472 0.327806 0.041036
v -0.236591 0.322673 -0.014644
v -0.012965 0.298955 -0.045452
v -0.164235 0.318571 0.040907
v -0.105827 0.314533 0.081397
v -0.228697 0.329650 -0.070319
v -0.193769 0.318063 -0.119862
v -0.018810 0.305297 0.009836
v -0.055488 0.303264 0.059427
v -0.245860 0.313718 -0.096694
v -0.223962 0.311256 -0.126453
v -0.243004 0.313397 0.041213
v -0.257665 0.315046 0.007249
v -0.167152 0.316370 0.074716
v -0.122653 0.299863 0.105560
v -0.159212 0.303975 0.101356
v -0.007340 0.286896 0.034967
v -0.010436 0.287245 -0.100823
v -0.036736 0.306840 -0.101858
v -0.128845 0.300560 -0.166019
v -0.130230 0.277224 -0.013749
v -0.108574 0.167475 -0.028119
v -0.125672 0.145687 -0.005029
v -0.113239 0.275313 -0.036839
v -0.142620 0.302109 -0.069312
v -0.108878 0.298314 0.008853
v -0.141606 0.278503 -0.040101
v -0.167820 0.304942 -0.035068
v -0.137120 -0.004113 -0.031381
v -0.137120 0.145687 -0.031381
v -0.115592 0.308603 -0.009152
v -0.138281 0.311154 -0.011761
v -0.133789 0.310649 -0.051307
v -0.150948 0.303045 0.004015
v -0.147379 0.312177 -0.032839
v -0.102002 0.307074 -0.027620
v -0.125672 -0.004113 -0.005029
v -0.108574 -0.004113 -0.028119
v -0.084612 0.166787 0.028728
v -0.061382 0.196389 -0.002642
v -0.040567 0.175885 0.039560
v -0.029850 0.189542 0.025087
v -0.150948 0.303045 0.004015
v -0.167820 0.304942 -0.035068
v -0.100550 0.297378 -0.064474
v -0.083679 0.295481 -0.025391
v -0.167820 0.304942 -0.035068
v -0.100550 0.297378 -0.064474
v -0.083679 0.295481 -0.025391
v -0.203188 0.322952 -0.049329
v -0.147252 0.316662 -0.108624
v -0.029238 0.289359 0.064725
v 0.004225 0.285596 -0.066860
v -0.092286 0.296449 -0.161815
v 0.223731 0.255008 0.007047
v 0.191767 0.250416 -0.009717
v 0.163027 0.246287 0.046213
v 0.225342 0.255239 0.043394
v 0.194990 0.250879 0.062977
v 0.163027 0.246287 0.046213
v 0.225342 0.255239 0.043394
v 0.194990 0.250879 0.062977
v 0.163027 0.246287 0.046213
v 0.223731 0.255008 0.007047
v 0.209466 0.261131 0.035671
v 0.208597 0.261006 0.016068
v 0.163027 0.246287 0.046213
v 0.186353 0.261667 0.096230
v 0.194990 0.250879 0.062977
v 0.225342 0.255239 0.043394
v 0.203154 0.264080 0.095470
v 0.194990 0.250879 0.062977
v 0.161415 0.246056 0.009866
v 0.129356 0.253479 0.056765
v 0.126940 0.253132 0.002244
v 0.134689 0.254245 -0.012836
v 0.180217 0.260785 -0.042210
v 0.197018 0.263199 -0.042971
v 0.244963 0.270086 -0.017825
v 0.256432 0.271734 0.051015
v 0.256679 0.274080 -0.043519
v 0.098765 0.250982 0.004520
v 0.254015 0.271386 -0.003505
v 0.284405 0.277301 0.048753
v 0.126024 0.255842 0.096781
v 0.172461 0.256830 0.121669
v 0.163913 0.260535 -0.065634
v 0.248683 0.270620 0.066095
v 0.218888 0.268532 0.118930
v 0.120296 0.250086 -0.037970
v 0.144386 0.243610 -0.080242
v 0.100558 0.247445 0.057066
v 0.077268 0.233968 0.016058
v 0.127091 0.241125 0.121316
v 0.263646 0.270578 0.091193
v 0.241402 0.257546 0.131969
v 0.267778 0.261335 0.114951
v 0.283015 0.274003 -0.003821
v 0.307689 0.267068 0.037283
v 0.306289 0.266867 0.005697
v 0.211579 0.262980 -0.068411
v 0.259666 0.260170 -0.068056
v 0.231890 0.256180 -0.082624
v 0.189753 0.229990 0.039201
v 0.212070 0.123794 0.025996
v 0.191394 0.123794 0.039201
v 0.225342 0.255239 0.043394
v 0.210219 0.232930 0.025996
v 0.191767 0.250416 -0.009717
v 0.188667 0.229834 0.014693
v 0.161415 0.246056 0.009866
v 0.190297 0.123794 0.014693
v 0.187034 -0.004113 0.039201
v 0.185937 -0.004113 0.014693
v 0.193097 0.258779 0.046232
v 0.175859 0.256303 0.037191
v 0.191359 0.258530 0.007028
v 0.163027 0.246287 0.046213
v 0.194990 0.250879 0.062977
v 0.174990 0.256178 0.017589
v 0.207710 -0.004113 0.025996
v 0.161415 0.246056 0.009866
v 0.191767 0.250416 -0.009717
v 0.223731 0.255008 0.007047
v 0.161415 0.246056 0.009866
v 0.191767 0.250416 -0.009717
v 0.223731 0.255008 0.007047
v 0.138408 0.254780 0.071084
v 0.118009 0.239821 -0.063224
v 0.078669 0.234169 0.047644
v 0.154867 0.245115 0.135884
vt 0.000000 0.000000
vt 0.000000 0.000000
vt 0.000000 0.000000
vt 0.000000 0.000000
vt 0.000000 0.000000
vt 0.000000 0.000000
vt 0.000000 0.000000
vt 0.000000 0.000000
vt 0.000000 0.000000
vt 0.221677 0.687257
vt 0.190657 0.669432
vt 0.200951 0.651502
vt 0.076154 0.023995
vt 0.092349 0.036403
vt 0.089110 0.023995
vt 0.020933 0.079118
vt 0.033340 0.062924
vt 0.033340 0.082358
vt 0.053421 0.027235
vt 0.041014 0.043429
vt 0.041014 0.023995
vt 0.053402 0.059654
vt 0.040995 0.043459
vt 0.053403 0.046698
vt 0.069646 0.055763
vt 0.053451 0.043356
vt 0.056690 0.055763
vt 0.052790 0.066163
vt 0.065198 0.082357
vt 0.065198 0.062924
vt 0.072519 0.033100
vt 0.053755 0.033036
vt 0.030849 0.043014
vt 0.030513 0.024252
vt 0.075487 0.063291
vt 0.072915 0.036403
vt 0.091983 0.046643
vt 0.030755 0.062487
vt 0.030584 0.043723
vt 0.043579 0.063305
vt 0.043705 0.082069
vt 0.020933 0.058182
vt 0.021515 0.046939
vt 0.020933 0.038688
vt 0.021538 0.027445
vt 0.073218 0.046738
vt 0.087873 0.055762
vt 0.076622 0.055343
vt 0.052760 0.067495
vt 0.084571 0.077927
vt 0.075488 0.082056
vt 0.068408 0.023995
vt 0.185302 0.779616
vt 0.194070 0.805801
vt 0.184550 0.811106
vt 0.205453 0.820938
vt 0.194918 0.814147
vt 0.207185 0.812119
vt 0.194918 0.805650
vt 0.150975 0.838508
vt 0.150975 0.838508
vt 0.146295 0.831560
vt 0.164724 0.841260
vt 0.160655 0.832767
vt 0.166771 0.829939
vt 0.173796 0.837066
vt 0.194918 0.826711
vt 0.206681 0.820938
vt 0.206681 0.829913
vt 0.162689 0.809859
vt 0.173796 0.779616
vt 0.168870 0.806803
vt 0.184550 0.779616
vt 0.173796 0.806340
vt 0.175002 0.780508
vt 0.190454 0.705540
vt 0.169957 0.705076
vt 0.169792 0.669558
vt 0.159591 0.723160
vt 0.201198 0.723257
vt 0.159417 0.651502
vt 0.159182 0.687416
vt 0.138520 0.687465
vt 0.200960 0.687721
vt 0.206681 0.822624
vt 0.213979 0.820938
vt 0.213979 0.827003
vt 0.183567 0.811409
vt 0.174922 0.847299
vt 0.194918 0.846757
vt 0.185289 0.846862
vt 0.210028 0.802281
vt 0.194918 0.792418
vt 0.210028 0.787840
vt 0.195564 0.781727
vt 0.202535 0.779616
vt 0.000000 0.000000
vt 0.000000 0.000000
vt 0.000000 0.000000
vt 0.000000 0.000000
vt 0.000000 0.000000
vt 0.000000 0.000000
vt 0.000000 0.000000
vt 0.000000 0.000000
vt 0.000000 0.000000
vt 0.020933 0.066163
vt 0.053421 0.040191
vt 0.040996 0.062894
vt 0.072885 0.043355
vt 0.052790 0.079119
vt 0.052255 0.078743
vt 0.084131 0.066676
vt 0.057157 0.024416
vt 0.194918 0.779967
vt 0.207185 0.806390
vt 0.157500 0.828083
vt 0.164724 0.841260
vt 0.167615 0.782672
vt 0.184550 0.847167
vt 0.198906 0.805650
vt 0.209817 0.794247
vt 0.221344 0.799959
vt 0.209816 0.817184
vt 0.186753 0.794289
vt 0.175217 0.788545
vt 0.175217 0.777056
vt 0.186753 0.817267
vt 0.175217 0.811523
vt 0.175217 0.800034
vt 0.225278 0.665497
vt 0.205799 0.698930
vt 0.205596 0.676285
vt 0.043817 0.037747
vt 0.058276 0.048825
vt 0.055384 0.037747
vt 0.090139 0.037747
vt 0.075680 0.048824
vt 0.078572 0.037747
vt 0.069749 0.023262
vt 0.058672 0.037721
vt 0.058672 0.020370
vt 0.038006 0.049219
vt 0.023547 0.038141
vt 0.040898 0.038141
vt 0.061194 0.066119
vt 0.075653 0.055041
vt 0.058302 0.055041
vt 0.058302 0.080604
vt 0.069380 0.066146
vt 0.058302 0.069037
vt 0.058634 0.045980
vt 0.049665 0.020691
vt 0.069380 0.083497
vt 0.078471 0.066459
vt 0.041273 0.057893
vt 0.058024 0.058164
vt 0.040573 0.029073
vt 0.093032 0.048825
vt 0.076008 0.057910
vt 0.023821 0.028843
vt 0.036925 0.020370
vt 0.049321 0.037441
vt 0.040925 0.024301
vt 0.045035 0.066182
vt 0.092760 0.058110
vt 0.079673 0.066107
vt 0.089718 0.065736
vt 0.078633 0.083212
vt 0.086592 0.070027
vt 0.086328 0.080076
vt 0.075385 0.045726
vt 0.062312 0.037747
vt 0.072357 0.038135
vt 0.166188 0.845240
vt 0.156320 0.811789
vt 0.165301 0.811714
vt 0.198289 0.777068
vt 0.209817 0.771311
vt 0.206945 0.778540
vt 0.221344 0.777023
vt 0.206945 0.786273
vt 0.198289 0.788536
vt 0.209816 0.794247
vt 0.214718 0.782391
vt 0.221344 0.788491
vt 0.175170 0.811712
vt 0.166235 0.771315
vt 0.175217 0.771311
vt 0.156320 0.772368
vt 0.146408 0.805765
vt 0.147422 0.771311
vt 0.175217 0.845191
vt 0.166188 0.811716
vt 0.186036 0.709986
vt 0.166856 0.698668
vt 0.186255 0.665246
vt 0.147352 0.709937
vt 0.186432 0.732427
vt 0.186363 0.642720
vt 0.166719 0.676248
vt 0.147352 0.665008
vt 0.225068 0.710114
vt 0.206048 0.824930
vt 0.198289 0.821055
vt 0.206048 0.817184
vt 0.155389 0.805845
vt 0.147339 0.846168
vt 0.157206 0.771387
vt 0.221344 0.811427
vt 0.198289 0.811473
vt 0.198289 0.800004
vt 0.186753 0.771311
vt 0.198289 0.777056
vt 0.198289 0.788545
vt 0.186753 0.794289
vt 0.198289 0.800034
vt 0.198289 0.811523
vt 0.040925 0.048825
vt 0.069749 0.034829
vt 0.026439 0.049219
vt 0.072761 0.066119
vt 0.026878 0.020700
vt 0.041218 0.034348
vt 0.055075 0.065707
vt 0.157282 0.846244
vt 0.198289 0.788536
vt 0.209816 0.794247
vt 0.156320 0.846248
vn 0.1117 0.9937 0.0000
vn 0.1118 0.9937 -0.0000
vn -0.1117 -0.9937 -0.0000
vn -0.5413 -0.8182 0.1939
vn -0.5413 -0.8182 0.1940
vn 0.1436 0.9296 -0.3395
vn 0.1679 -0.9646 0.2034
vn -0.4165 -0.8989 0.1361
vn -0.3779 -0.9032 -0.2034
vn -0.0665 -0.9383 -0.3395
vn 0.2064 -0.9689 -0.1361
vn -0.1692 -0.9853 0.0219
vn -0.1332 -0.9906 -0.0306
vn -0.1995 -0.9776 0.0669
vn -0.0362 -0.9974 0.0624
vn -0.1371 -0.9890 0.0547
vn 0.0498 -0.9964 0.0685
vn -0.1073 -0.9922 -0.0640
vn -0.1480 -0.9889 -0.0123
vn -0.1812 -0.9830 0.0305
vn 0.0539 0.9983 0.0219
vn 0.0901 0.9955 -0.0307
vn 0.1199 0.9900 -0.0742
vn -0.1266 -0.9877 0.0922
vn -0.1680 -0.9858 0.0053
vn -0.0901 -0.9820 0.1661
vn -0.0992 -0.9923 -0.0744
vn -0.0663 -0.9978 -0.0042
vn -0.1269 -0.9828 -0.1342
vn 0.2076 -0.9337 0.2918
vn 0.2247 -0.9156 0.3334
vn 0.1721 -0.9632 0.2063
vn 0.3038 -0.9449 -0.1220
vn 0.3502 -0.9297 -0.1142
vn 0.2083 -0.9684 -0.1369
vn -0.0164 -0.8912 -0.4533
vn 0.0068 -0.8776 -0.4794
vn -0.0557 -0.9115 -0.4075
vn 0.4406 0.8455 0.3015
vn 0.4529 0.8243 0.3398
vn 0.4637 0.8023 0.3758
vn 0.5305 0.8339 -0.1521
vn 0.5638 0.8129 -0.1462
vn 0.5951 0.7913 -0.1402
vn 0.1823 0.8726 -0.4532
vn 0.2020 0.8540 -0.4795
vn 0.2207 0.8349 -0.5042
vn -0.8002 -0.0801 -0.5943
vn -0.7739 -0.0703 -0.6294
vn -0.7696 -0.0688 -0.6348
vn -0.6142 0.7297 0.3006
vn 0.0152 0.7779 0.6281
vn -0.3495 0.6906 0.6331
vn 0.0000 0.0000 1.0000
vn -0.4183 0.8266 -0.3765
vn 0.1585 0.6428 -0.7495
vn 0.6628 0.7051 -0.2519
vn 0.6758 0.5846 0.4490
vn 0.9172 0.0026 -0.3984
vn 0.9172 0.0000 -0.3985
vn 0.9173 0.0027 -0.3983
vn -0.1150 0.0727 0.9907
vn -0.1520 0.0612 0.9865
vn -0.1055 0.0756 0.9915
vn 0.9181 0.0051 -0.3964
vn 0.9182 0.0050 -0.3961
vn -0.1118 -0.9937 0.0000
vn -0.0427 -0.8742 -0.4837
vn 0.2911 -0.9118 0.2897
vn -0.1525 -0.8619 0.4836
vn -0.4864 -0.8243 -0.2897
vn -0.4863 -0.8244 -0.2897
vn 0.3461 -0.9179 -0.1939
vn 0.3461 -0.9179 -0.1940
vn -0.0000 1.0000 0.0000
vn -0.1135 -0.0000 0.9935
vn -0.8037 0.0000 -0.5951
vn -0.6034 0.7527 0.2634
vn -0.2947 0.7943 0.5313
vn 0.1679 -0.9646 0.2033
vn -0.4165 -0.8989 0.1362
vn -0.1031 -0.9919 -0.0739
vn -0.2203 -0.9743 0.0478
vn -0.0719 -0.9915 -0.1083
vn 0.0226 0.9975 0.0669
vn -0.2013 -0.9772 -0.0672
vn -0.0387 -0.9978 0.0541
vn 0.2436 -0.8922 0.3804
vn 0.4023 -0.9095 -0.1049
vn 0.0290 -0.8633 -0.5039
vn 0.4176 0.8778 0.2347
vn 0.4721 0.8666 -0.1617
vn 0.1482 0.9014 -0.4070
vn -0.8059 -0.0823 -0.5863
vn 0.0153 0.7779 0.6281
vn -0.4183 0.8267 -0.3762
vn 0.6628 0.7051 -0.2520
vn 0.5062 0.5385 0.6737
vn -0.1580 0.0594 0.9857
vn -0.1117 -0.9937 -0.0001
vn -0.0427 -0.8742 -0.4836
vn 0.3461 -0.9180 -0.1939
vn -0.1422 0.9898 0.0000
vn 0.1422 -0.9898 -0.0000
vn -0.3571 -0.9338 0.0218
vn 0.0222 0.9526 -0.3033
vn 0.3157 -0.9041 0.2880
vn -0.2043 -0.9788 0.0153
vn -0.0484 -0.9564 -0.2880
vn 0.2895 -0.9079 -0.3033
vn 0.4715 -0.8817 -0.0153
vn 0.1796 -0.9823 0.0534
vn 0.1793 -0.9837 -0.0146
vn 0.1783 -0.9814 -0.0712
vn 0.1640 -0.9853 -0.0489
vn 0.1163 -0.9930 -0.0207
vn 0.0763 -0.9971 0.0030
vn 0.1239 -0.9915 0.0402
vn 0.1629 -0.9865 0.0169
vn 0.1950 -0.9808 -0.0024
vn -0.0953 0.9933 0.0656
vn -0.0963 0.9952 -0.0179
vn -0.0940 0.9862 0.1362
vn 0.2005 -0.9797 -0.0057
vn 0.1476 -0.9884 -0.0360
vn 0.1031 -0.9928 -0.0612
vn 0.0804 -0.9967 0.0060
vn 0.1362 -0.9900 0.0377
vn 0.1822 -0.9812 0.0640
vn 0.3844 -0.8543 0.3499
vn 0.4070 -0.8393 0.3605
vn 0.4329 -0.8209 0.3725
vn 0.5585 -0.8283 -0.0450
vn 0.5752 -0.8159 -0.0585
vn 0.5941 -0.8010 -0.0742
vn 0.2996 -0.8561 -0.4212
vn 0.2931 -0.8364 -0.4631
vn 0.2864 -0.8161 -0.5020
vn 0.1443 0.9170 0.3718
vn 0.1758 0.9059 0.3854
vn 0.0901 0.9334 0.3475
vn 0.3344 0.9415 -0.0419
vn 0.3542 0.9335 -0.0551
vn 0.3003 0.9536 -0.0194
vn 0.0560 0.9047 -0.4223
vn 0.0553 0.8883 -0.4559
vn 0.0570 0.9299 -0.3634
vn -0.5408 -0.0091 -0.8411
vn -0.5387 -0.0084 -0.8425
vn -0.5382 -0.0083 -0.8428
vn -0.8393 0.5426 0.0338
vn -0.3985 0.7255 0.5611
vn -0.4471 0.7186 -0.5326
vn -0.4470 0.7185 -0.5328
vn -0.4306 0.6922 0.5792
vn 0.2507 0.6992 -0.6695
vn 0.3455 0.5747 0.7418
vn 0.5150 0.8567 -0.0283
vn 0.3086 0.7075 0.6358
vn 0.9984 -0.0340 -0.0447
vn -0.4632 -0.0078 0.8862
vn -0.4611 -0.0072 0.8873
vn -0.4636 -0.0079 0.8860
vn 0.9989 0.0154 -0.0444
vn 0.9989 0.0154 -0.0447
vn 0.3462 -0.8328 -0.4320
vn 0.3836 -0.8274 0.4103
vn 0.3836 -0.8274 0.4102
vn 0.3835 -0.8274 0.4102
vn -0.0978 -0.8965 0.4320
vn -0.1351 -0.9019 -0.4102
vn -0.1351 -0.9019 -0.4103
vn 0.6056 -0.7955 -0.0218
vn -0.4607 0.0157 0.8874
vn -0.5382 0.0183 -0.8426
vn 0.1793 -0.9775 0.1110
vn 0.2038 -0.9763 -0.0727
vn 0.0904 -0.9941 0.0600
vn -0.0965 0.9915 -0.0875
vn 0.2450 -0.9693 0.0201
vn 0.0326 -0.9992 -0.0211
vn 0.3383 -0.8821 0.3279
vn 0.5241 -0.8515 -0.0178
vn 0.3092 -0.8854 -0.3470
vn 0.2058 0.8940 0.3980
vn 0.3732 0.9253 -0.0679
vn 0.0545 0.8715 -0.4874
vn -0.5412 -0.0092 -0.8408
vn 0.5150 0.8567 -0.0279
vn -0.4607 -0.0071 0.8875
vn 0.3462 -0.8327 -0.4321
s 1
f 1/1/1 2/2/2 3/3/1
f 4/4/3 5/5/3 6/6/3
f 7/7/3 8/8/3 9/9/3
f 10/10/4 11/11/4 12/12/5
f 13/13/6 14/14/6 15/15/6
f 16/16/7 17/17/7 18/18/7
f 19/19/8 20/20/8 21/21/8
f 19/22/9 22/23/9 3/24/9
f 3/25/10 23/26/10 2/27/10
f 1/28/11 24/29/11 25/30/11
f 23/26/12 26/31/13 27/32/14
f 21/21/15 28/33/16 29/34/17
f 24/29/18 30/35/19 25/30/20
f 31/36/21 32/37/22 14/14/23
f 22/23/24 33/38/25 34/39/26
f 18/18/27 35/40/28 36/41/29
f 34/39/30 37/42/31 38/43/32
f 29/34/33 39/44/34 40/45/35
f 41/46/36 42/47/37 43/48/38
f 36/41/39 44/49/40 35/40/41
f 30/35/42 45/50/43 46/51/44
f 27/32/45 47/52/46 26/31/47
f 48/53/48 49/54/49 50/55/50
f 10/56/51 12/57/51 51/58/51
f 52/59/52 51/58/52 12/57/52
f 15/60/53 53/61/54 10/62/55
f 13/63/56 15/60/56 48/64/56
f 48/64/57 54/65/57 55/66/57
f 52/67/58 55/68/58 54/69/58
f 50/70/59 56/71/60 57/72/61
f 54/73/62 49/74/63 51/75/64
f 48/64/65 57/72/61 54/65/66
f 58/76/67 59/77/3 60/78/3
f 61/79/68 58/76/68 53/80/68
f 52/81/69 62/82/69 55/83/69
f 52/81/70 11/11/70 60/78/70
f 53/80/71 63/84/71 10/10/72
f 55/83/73 59/77/73 61/79/74
f 64/85/75 65/86/75 56/87/75
f 57/88/76 65/89/76 49/74/76
f 50/55/77 65/90/77 64/91/77
f 49/92/78 66/93/78 67/94/78
f 67/94/79 68/95/79 69/96/79
f 3/3/1 19/97/1 70/98/1
f 70/98/1 16/99/1 3/3/1
f 16/99/1 1/1/1 3/3/1
f 5/5/3 71/100/3 6/6/3
f 6/6/3 72/101/67 73/102/3
f 73/102/3 4/4/3 6/6/3
f 8/8/3 74/103/3 9/9/3
f 9/9/3 75/104/67 76/105/3
f 76/105/3 7/7/3 9/9/3
f 10/10/4 63/84/4 11/11/4
f 13/13/6 31/36/6 14/14/6
f 16/16/80 1/106/80 17/17/80
f 19/19/81 70/107/81 20/20/81
f 19/22/9 77/108/9 22/23/9
f 3/25/10 78/109/10 23/26/10
f 1/28/11 2/110/11 24/29/11
f 23/26/12 78/109/82 26/31/13
f 21/21/15 20/20/83 28/33/16
f 24/29/18 46/51/84 30/35/19
f 31/36/21 41/46/85 32/37/22
f 22/23/24 77/108/86 33/38/25
f 18/18/27 17/17/87 35/40/28
f 34/39/30 33/38/88 37/42/31
f 29/34/33 28/33/89 39/44/34
f 41/46/36 32/37/90 42/47/37
f 36/41/39 79/111/91 44/49/40
f 30/35/42 80/112/92 45/50/43
f 27/32/45 81/113/93 47/52/46
f 48/53/48 51/114/94 49/54/49
f 52/59/52 54/115/95 51/58/52
f 10/62/55 51/116/96 15/60/53
f 51/116/96 48/64/96 15/60/53
f 55/66/97 61/117/54 13/63/98
f 13/63/98 48/64/57 55/66/57
f 50/70/59 64/118/60 56/71/60
f 54/73/62 57/88/99 49/74/63
f 48/64/65 50/70/59 57/72/61
f 59/77/3 62/82/3 60/78/3
f 60/78/3 11/11/100 63/84/67
f 63/84/67 58/76/67 60/78/3
f 61/79/101 59/77/101 58/76/101
f 52/81/69 60/78/69 62/82/69
f 52/81/70 12/12/70 11/11/70
f 53/80/71 58/76/71 63/84/71
f 55/83/73 62/82/102 59/77/73
f 57/88/76 56/119/76 65/89/76
f 50/55/77 49/54/77 65/90/77
f 49/92/78 50/120/78 66/93/78
f 67/94/79 66/93/79 68/95/79
f 82/121/103 83/122/103 84/123/103
f 85/124/104 86/125/104 87/126/104
f 88/127/104 89/128/104 90/129/104
f 91/130/105 92/131/105 93/132/105
f 94/133/106 95/134/106 96/135/106
f 97/136/107 98/137/107 99/138/107
f 100/139/108 101/140/108 102/141/108
f 83/142/109 103/143/109 104/144/109
f 82/145/110 105/146/110 106/147/110
f 82/148/111 107/149/111 97/150/111
f 105/146/112 108/151/113 106/147/114
f 101/140/115 109/152/116 102/141/117
f 110/153/118 111/154/119 107/149/120
f 95/134/121 112/155/122 113/156/123
f 103/143/124 114/157/125 104/144/126
f 115/158/127 116/159/128 98/137/129
f 117/160/130 118/161/131 114/157/132
f 119/162/133 120/163/134 109/152/135
f 113/156/136 121/164/137 112/155/138
f 122/165/139 123/166/140 124/167/141
f 125/168/142 126/169/143 127/170/144
f 128/171/145 129/172/146 130/173/147
f 131/174/148 132/175/149 133/176/150
f 134/177/151 91/178/151 135/179/151
f 136/180/152 135/179/152 91/178/152
f 134/177/153 131/181/154 96/182/155
f 94/183/156 96/182/156 131/181/156
f 94/183/157 137/184/158 138/185/158
f 136/180/159 138/185/159 137/184/159
f 139/186/160 140/187/160 141/188/160
f 137/189/161 132/190/162 135/191/163
f 137/192/164 133/193/165 139/186/165
f 142/194/104 143/195/104 144/196/104
f 145/197/166 142/194/166 146/198/166
f 136/199/167 147/200/168 138/201/169
f 136/199/170 93/132/170 144/196/170
f 146/198/171 92/131/172 134/202/172
f 145/197/173 147/200/173 143/195/173
f 140/203/75 148/204/75 141/205/75
f 139/206/174 148/207/174 132/190/174
f 133/176/175 148/208/175 140/187/175
f 83/122/103 100/209/103 84/123/103
f 84/123/103 99/210/103 97/211/103
f 97/211/103 82/121/103 84/123/103
f 87/126/104 149/212/104 150/213/104
f 150/213/104 151/214/104 87/126/104
f 151/214/104 85/124/104 87/126/104
f 90/129/104 152/215/104 153/216/104
f 153/216/104 154/217/104 90/129/104
f 154/217/104 88/127/104 90/129/104
f 91/130/105 134/202/105 92/131/105
f 94/133/106 155/218/106 95/134/106
f 97/136/107 115/158/107 98/137/107
f 100/139/108 84/219/108 101/140/108
f 83/142/109 100/220/109 103/143/109
f 82/145/110 83/221/110 105/146/110
f 82/148/111 110/153/111 107/149/111
f 105/146/112 128/171/176 108/151/113
f 101/140/115 119/162/177 109/152/116
f 110/153/118 125/168/178 111/154/119
f 95/134/121 155/218/179 112/155/122
f 103/143/124 117/160/180 114/157/125
f 115/158/127 122/165/181 116/159/128
f 117/160/130 156/222/182 118/161/131
f 119/162/133 157/223/183 120/163/134
f 113/156/136 158/224/184 121/164/137
f 122/165/139 116/159/185 123/166/140
f 125/168/142 111/154/186 126/169/143
f 128/171/145 108/151/187 129/172/146
f 131/174/148 135/225/188 132/175/149
f 136/180/152 137/184/152 135/179/152
f 134/177/153 135/179/154 131/181/154
f 96/182/155 146/226/54 134/177/153
f 138/185/189 145/227/54 94/183/157
f 94/183/157 131/181/158 137/184/158
f 139/186/160 133/193/160 140/187/160
f 137/189/161 139/206/190 132/190/162
f 137/192/164 131/174/164 133/193/165
f 143/195/104 147/200/104 144/196/104
f 144/196/104 93/132/104 92/131/104
f 92/131/104 142/194/104 144/196/104
f 145/197/191 143/195/191 142/194/191
f 136/199/167 144/196/167 147/200/168
f 136/199/170 91/130/170 93/132/170
f 146/198/171 142/194/171 92/131/172
f 145/197/173 138/201/173 147/200/173
f 139/206/174 141/228/174 148/207/174
f 133/176/175 132/175/175 148/208/175
