# Blender v2.79 (sub 0) OBJ File: ''
# www.blender.org
mtllib board.mtl
o Corrente_Cube.004
v 0.613027 2.471615 0.153616
v 0.665949 2.472317 0.158278
v 0.665949 2.471615 0.153616
v 0.665949 2.106749 0.208516
v 0.613027 2.107451 0.213178
v 0.613027 2.106749 0.208516
v 0.665949 2.107451 0.213178
v 0.613027 2.472317 0.158278
vt 0.777532 0.218048
vt 0.733158 0.262421
vt 0.733158 0.218048
vt 0.860464 0.218048
vt 0.816090 0.262421
vt 0.816090 0.218048
vt 0.936340 0.972774
vt 0.023539 0.325238
vt 0.936340 0.325238
vt 0.694600 0.262421
vt 0.694600 0.218048
vt 0.045380 0.325238
vt 0.958180 0.972774
vt 0.045380 0.972774
vt 0.777532 0.262421
vt 0.860464 0.262421
vt 0.023539 0.972775
vt 0.958180 0.325238
vn 0.0000 0.9889 -0.1489
vn 0.0000 -0.9889 0.1489
vn 0.0000 -0.9889 0.1488
vn 0.0000 0.1488 0.9889
vn 1.0000 -0.0000 0.0000
vn 0.0000 -0.1488 -0.9889
vn -1.0000 0.0000 0.0000
WE3DTexture board_chain
s 1
f 1/1/1 2/2/1 3/3/1
f 4/4/2 5/5/2 6/6/3
f 2/7/4 5/8/4 7/9/4
f 3/3/5 7/10/5 4/11/5
f 1/12/6 4/13/6 6/14/6
f 8/15/7 6/6/7 5/5/7
f 1/1/1 8/15/1 2/2/1
f 4/4/2 7/16/2 5/5/2
f 2/7/4 8/17/4 5/8/4
f 3/3/5 2/2/5 7/10/5
f 1/12/6 3/18/6 4/13/6
f 8/15/7 1/1/7 6/6/7
o Base_Cube.001
v 0.421815 2.625411 0.195696
v 0.549421 2.497805 0.273929
v 0.549421 2.497805 0.195696
v -0.194700 2.008896 0.204695
v -0.094787 1.853597 0.204695
v -0.194700 2.008896 0.126464
v -0.094787 1.853597 0.126464
v -0.282682 2.716229 0.204696
v -0.321452 2.448962 0.126464
v -0.321452 2.448962 0.204695
v 1.941680 2.660843 0.126464
v 1.969373 2.448962 0.126464
v 1.969373 2.448962 0.204695
v 1.941680 2.660843 0.204696
v -0.282682 2.716229 0.126464
v -0.033669 0.010222 -0.085648
v 0.031428 2.793720 -0.064496
v 0.047019 -0.015061 -0.080204
v 0.101995 0.010222 0.001998
v 0.071661 2.793720 0.059324
v 0.071661 0.010222 0.059323
v 0.031428 2.793720 0.114699
v 0.036854 -0.015202 0.135986
v -0.033669 0.010222 0.135848
v -0.033669 2.793720 0.135848
v -0.116663 0.010222 0.129266
v -0.150956 2.790231 0.089489
v -0.160598 -0.014195 0.057822
v -0.138996 0.010222 -0.009123
v 0.071661 2.793720 -0.009123
v -0.138996 2.793720 -0.009123
v -0.119073 2.769301 -0.070430
v -0.096802 0.003246 -0.092775
v -0.033669 2.793720 -0.085648
v 0.421815 2.625411 0.273929
v -0.098763 2.793720 0.114699
v 0.433123 2.521180 0.273674
v 0.450647 2.501206 0.285010
v 0.458127 2.506815 0.272246
v 0.450647 2.481071 0.283006
v 0.458127 2.478086 0.269387
v 0.433123 2.471002 0.282005
v 0.433123 2.463720 0.267960
v 0.408121 2.478086 0.269387
v 0.415599 2.481071 0.283006
v 0.408121 2.506815 0.272246
v 0.415599 2.501206 0.285010
v -0.071541 2.004066 0.230348
v -0.044846 1.998267 0.220957
v -0.069571 2.012702 0.217239
v -0.054211 1.973714 0.232954
v -0.044846 1.969396 0.220957
v -0.071541 1.963597 0.230348
v -0.069571 1.954960 0.217239
v -0.088870 1.973714 0.227742
v -0.094296 1.969396 0.213521
v -0.094296 1.998267 0.213521
v -0.088870 1.993950 0.227742
v -0.053005 2.608757 0.216120
v -0.028001 2.602959 0.202863
v -0.053005 2.617393 0.202863
v -0.035480 2.598641 0.216120
v -0.028001 2.574088 0.202863
v -0.053005 2.568286 0.216120
v -0.053005 2.559651 0.202863
v -0.078007 2.574088 0.202863
v -0.070527 2.578405 0.216120
v -0.035480 2.578405 0.216120
v -0.078007 2.602959 0.202863
v 0.433123 2.511273 0.286011
v -0.054211 1.993950 0.232954
v -0.070527 2.598641 0.216120
vt 0.853385 0.254501
vt 0.872710 0.256480
vt 0.853354 0.259149
vt 0.872710 0.262987
vt 0.853354 0.268433
vt 0.872731 0.266236
vt 0.853385 0.273069
vt 0.872819 0.239152
vt 0.853353 0.236941
vt 0.853514 0.232343
vt 0.814918 0.567839
vt 0.816606 0.564662
vt 0.818295 0.567839
vt 0.872707 0.242374
vt 0.853353 0.246222
vt 0.872707 0.248879
vt 0.853514 0.250906
vt 0.814918 0.551630
vt 0.814918 0.560693
vt 0.810101 0.560693
vt 0.831304 0.255501
vt 0.833907 0.265341
vt 0.827427 0.269205
vt 0.844932 0.252793
vt 0.846870 0.265341
vt 0.849476 0.255501
vt 0.853354 0.269205
vt 0.827427 0.248801
vt 0.835837 0.237940
vt 0.833902 0.252793
vt 0.831299 0.235142
vt 0.835846 0.232343
vt 0.846865 0.252793
vt 0.844923 0.237940
vt 0.853353 0.248801
vt 0.833910 0.273069
vt 0.846873 0.273069
vt 0.872820 0.247369
vt 0.893185 0.245596
vt 0.893152 0.250012
vt 0.872842 0.244274
vt 0.893185 0.236762
vt 0.872820 0.234986
vt 0.893152 0.232343
vt 0.893186 0.255861
vt 0.872731 0.257633
vt 0.872904 0.253222
vt 0.810101 0.568302
vt 0.811789 0.565225
vt 0.813477 0.568302
vt 0.893065 0.258953
vt 0.872731 0.266467
vt 0.893186 0.268244
vt 0.872904 0.270890
vt 0.819736 0.551490
vt 0.819736 0.560272
vt 0.814918 0.560272
vt 0.872731 0.253222
vt 0.818295 0.574191
vt 0.814918 0.574191
vt 0.816606 0.577367
vt 0.872819 0.252162
vt 0.812509 0.565225
vt 0.810101 0.551630
vt 0.812509 0.547099
vt 0.835846 0.252793
vt 0.844932 0.232343
vt 0.849470 0.235142
vt 0.872842 0.238083
vt 0.813477 0.574457
vt 0.811789 0.577535
vt 0.810101 0.574457
vt 0.893065 0.265144
vt 0.817327 0.564663
vt 0.814918 0.551490
vt 0.817327 0.547099
vt 0.821417 0.523279
vt 0.690096 0.509719
vt 0.804888 0.485900
vt 0.827427 0.240146
vt 0.801946 0.073258
vt 0.827427 0.029047
vt 0.690096 0.044211
vt 0.715577 0.000000
vt 0.978942 0.195319
vt 0.955351 0.358543
vt 0.955456 0.150393
vt 0.706626 0.300207
vt 0.694351 0.247341
vt 0.947123 0.232343
vt 0.827427 0.150393
vt 0.947123 0.150555
vt 0.946723 0.150393
vt 0.852149 0.001818
vt 0.946723 0.000000
vt 0.821417 0.658944
vt 0.916552 0.577196
vt 0.916552 0.658969
vt 0.846139 0.575353
vt 0.940714 0.426778
vt 0.940714 0.577171
vt 0.941423 0.426778
vt 0.821417 0.276389
vt 0.941423 0.276388
vt 0.810101 0.692925
vt 0.690096 0.547147
vt 0.810101 0.547099
vt 0.690096 0.007774
vt 0.657738 0.859486
vt 0.681850 0.000041
vt 0.555835 0.007781
vt 0.467869 0.859489
vt 0.467869 0.007780
vt 0.382882 0.859488
vt 0.350235 0.000000
vt 0.350356 0.007776
vt 0.350123 0.859191
vt 0.339589 0.007469
vt 0.350235 0.007487
vt 0.278381 0.858105
vt 0.229975 0.000000
vt 0.127697 0.007487
vt 0.978896 0.546339
vt 0.979708 0.474791
vt 1.000000 0.474899
vt 0.033923 0.851734
vt 0.000000 0.005375
vt 0.949269 1.000000
vt 0.955351 0.150393
vt 0.955351 0.997069
vt 0.972589 0.401667
vt 0.978896 0.476293
vt 0.956551 0.475009
vt 0.706626 0.547099
vt 0.806202 0.276388
vt 0.978942 0.394852
vt 0.821417 0.276388
vt 0.827427 0.232181
vt 0.827427 0.147848
vt 0.821417 0.577171
vt 0.821417 0.429324
vt 0.821417 0.426778
vt 0.690096 0.692973
vt 0.690096 0.859483
vt 0.572854 0.859488
vt 0.350356 0.859485
vt 0.317311 0.859180
vt 0.127585 0.859191
vt 0.984241 0.416928
vt 0.990762 0.394852
vt 0.998934 0.410770
vt 1.000000 0.577980
vt 0.994655 0.604309
vt 0.982114 0.604243
vt 0.988134 0.626386
vt 0.947123 0.156093
vt 0.971050 0.626392
vt 0.963042 0.620818
vt 0.978896 0.546275
vt 0.955351 0.534962
vt 0.957528 0.394852
vt 0.964397 0.394893
vt 0.977325 0.633762
vn 0.4354 0.7019 0.5636
vn 0.8709 -0.0487 0.4890
vn 0.4355 -0.7992 0.4143
vn 0.4355 -0.7991 0.4144
vn -0.4355 -0.7991 0.4143
vn -0.4355 -0.7992 0.4143
vn -0.4355 -0.7991 0.4144
vn 0.0000 -0.0990 0.9951
vn 0.0000 -0.0989 0.9951
vn -0.8710 -0.0487 0.4889
vn -0.4355 0.7019 0.5636
vn -0.4354 0.7019 0.5636
vn 0.0000 0.0990 -0.9951
vn 0.3576 0.7543 0.5506
vn 0.7883 0.0000 0.6153
vn 0.3576 -0.7543 0.5507
vn 0.3576 -0.7542 0.5507
vn -0.5037 -0.7542 0.4212
vn -0.1487 0.0000 0.9889
vn -0.9343 0.0000 0.3565
vn -0.5037 0.7543 0.4212
vn 0.1487 -0.0000 -0.9889
vn 0.4354 0.7543 0.4914
vn 0.8709 -0.0000 0.4914
vn 0.4355 -0.7543 0.4914
vn 0.4355 -0.7543 0.4913
vn -0.4355 -0.7542 0.4913
vn -0.4355 -0.7542 0.4914
vn -0.4355 -0.7543 0.4913
vn 0.0000 -0.0000 1.0000
vn -0.8709 -0.0000 0.4914
vn -0.4355 0.7543 0.4914
vn 0.0000 0.0000 -1.0000
vn 0.4354 0.7019 0.5637
vn -0.4354 0.7019 0.5637
vn 0.0000 0.0989 -0.9951
vn -0.0000 0.0992 -0.9951
vn 0.3575 -0.7543 0.5506
vn -0.5037 -0.7542 0.4213
vn 0.4355 -0.7542 0.4914
vn 0.7071 0.7071 0.0000
vn -0.0652 -0.0419 0.9970
vn -0.8410 -0.5411 0.0000
vn 0.0652 0.0419 -0.9970
vn 0.7071 -0.7071 0.0000
vn -0.7071 0.7071 0.0000
vn -0.9896 0.1436 0.0000
vn 0.9916 0.1296 0.0000
vn 0.0000 -1.0000 0.0000
vn 0.0249 0.9997 0.0000
vn 0.0692 0.0060 -0.9976
vn 0.8301 0.0077 -0.5575
vn 0.8839 -0.0000 0.4677
vn 0.9099 0.0049 0.4148
vn 0.0008 0.0076 1.0000
vn -0.0791 -0.0000 0.9969
vn -0.8514 -0.0030 0.5246
vn -0.9524 0.0067 -0.3049
vn 0.0000 1.0000 0.0000
vn -0.8930 -0.0036 -0.4501
vn 0.1122 0.0000 -0.9937
vn 0.0991 -0.9587 0.2667
vn -0.0560 -0.0560 0.9969
vn 0.0560 0.0560 -0.9969
vn 0.3090 0.0000 -0.9511
vn 0.8090 0.0065 -0.5878
vn 0.9999 0.0109 0.0000
vn 0.8090 -0.0000 0.5878
vn 0.3090 -0.0000 0.9511
vn -0.3090 0.0070 0.9510
vn -0.4353 0.0075 0.9002
vn -0.9927 0.0000 -0.1204
vn -0.1585 0.8584 0.4878
vn -0.1310 0.9056 -0.4033
vn -0.0111 0.9994 0.0340
vn 0.0000 0.9906 -0.1371
vn -0.0174 0.9998 -0.0126
vn -0.9510 0.0000 -0.3091
vn -0.1772 0.0065 -0.9841
vn -0.2577 -0.8988 -0.3547
vn -0.0140 -0.9531 0.3025
vn -0.1363 -0.9202 -0.3670
vn -0.0773 -0.2091 0.9748
vn 0.1040 -0.9930 0.0551
vn 0.0156 -0.9410 -0.3382
vn 0.0944 -0.9870 0.1299
WE3DTexture board_wood
s 1
f 45/19/8 46/20/8 47/21/8
f 47/21/9 48/22/9 49/23/9
f 49/23/10 50/24/10 51/25/11
f 50/26/12 52/27/13 51/28/14
f 53/29/15 50/30/16 48/31/15
f 53/32/17 54/33/17 52/27/17
f 55/34/18 45/35/19 54/33/18
f 52/36/20 54/37/20 47/38/20
f 56/39/21 57/40/21 58/41/21
f 57/40/22 59/42/22 60/43/22
f 60/43/23 61/44/24 62/45/24
f 62/46/25 63/47/25 64/48/25
f 63/47/26 61/49/26 59/50/26
f 63/47/27 65/51/27 64/48/27
f 66/52/28 58/53/28 65/51/28
f 65/54/29 60/43/29 64/55/29
f 67/56/30 68/57/30 69/58/30
f 70/59/31 71/60/31 68/57/31
f 71/60/32 72/61/33 73/62/33
f 72/63/34 74/64/35 73/65/36
f 75/66/37 72/67/37 76/68/37
f 75/69/38 77/70/38 74/64/38
f 77/70/39 67/71/39 69/72/39
f 74/73/40 77/74/40 68/75/40
f 45/19/8 78/76/41 46/20/8
f 47/21/9 46/20/9 48/22/9
f 49/23/10 48/22/10 50/24/10
f 50/26/12 53/32/13 52/27/13
f 48/31/15 46/77/15 55/78/15
f 46/77/15 78/79/16 55/78/15
f 55/78/15 53/29/15 48/31/15
f 53/32/17 55/34/17 54/33/17
f 55/34/18 78/80/42 45/35/19
f 54/37/20 45/81/43 47/38/20
f 47/38/20 49/82/20 52/36/20
f 49/82/20 51/83/44 52/36/20
f 56/39/21 79/84/21 57/40/21
f 57/40/22 79/84/22 59/42/22
f 60/43/23 59/42/45 61/44/24
f 62/46/25 61/49/46 63/47/25
f 59/50/26 79/85/26 66/52/26
f 79/85/26 56/86/26 66/52/26
f 66/52/26 63/47/26 59/50/26
f 63/47/27 66/52/27 65/51/27
f 66/52/28 56/86/28 58/53/28
f 65/54/29 58/41/29 57/40/29
f 57/40/29 60/43/29 65/54/29
f 60/43/29 62/45/29 64/55/29
f 67/56/30 70/59/30 68/57/30
f 70/59/31 76/87/31 71/60/31
f 71/60/32 76/87/47 72/61/33
f 72/63/34 75/69/35 74/64/35
f 76/68/37 70/88/37 75/66/37
f 70/88/37 67/89/37 80/90/37
f 75/66/37 70/88/37 80/90/37
f 75/69/38 80/91/38 77/70/38
f 77/70/39 80/91/39 67/71/39
f 77/74/40 69/92/40 68/75/40
f 68/75/40 71/93/40 74/73/40
f 71/93/40 73/94/40 74/73/40
f 9/95/48 10/96/48 11/97/48
f 10/98/49 12/99/49 13/100/49
f 13/100/50 14/101/50 15/102/50
f 14/103/51 11/104/51 15/105/51
f 13/106/52 11/97/52 10/96/52
f 12/99/53 9/107/53 14/101/53
f 16/108/54 17/109/54 18/110/54
f 17/111/40 19/112/40 20/113/40
f 19/114/55 21/115/55 20/116/55
f 22/117/37 18/118/37 21/119/37
f 20/120/56 18/121/56 17/122/56
f 23/123/57 22/124/57 19/125/57
f 24/126/58 25/127/58 26/128/58
f 25/127/59 27/129/59 26/128/59
f 27/129/60 28/130/60 29/131/60
f 29/131/61 30/132/61 31/133/61
f 30/132/62 32/134/62 31/133/62
f 33/135/63 34/136/63 32/137/63
f 34/136/64 35/138/64 36/139/64
f 35/138/65 37/140/65 36/139/65
f 28/141/66 38/142/66 39/143/66
f 37/140/67 40/144/67 41/145/67
f 41/146/68 42/147/68 24/148/68
f 34/149/69 36/150/69 29/151/69
f 9/95/48 43/152/48 10/96/48
f 10/98/70 43/153/70 12/99/70
f 13/100/50 12/99/50 14/101/50
f 14/103/71 9/154/71 11/104/71
f 13/106/52 15/155/52 11/97/52
f 12/99/53 43/153/53 9/107/53
f 16/108/54 23/156/54 17/109/54
f 17/111/40 23/157/40 19/112/40
f 19/114/55 22/158/55 21/115/55
f 22/117/37 16/159/37 18/118/37
f 20/120/56 21/160/56 18/121/56
f 23/123/57 16/161/57 22/124/57
f 24/126/72 42/162/72 25/127/72
f 25/127/73 38/163/73 27/129/73
f 27/129/74 38/163/74 28/130/74
f 29/131/75 28/130/75 30/132/75
f 30/132/76 33/164/76 32/134/76
f 33/135/77 44/165/77 34/136/77
f 34/136/78 44/165/78 35/138/78
f 35/138/79 39/166/79 37/140/79
f 38/142/66 25/167/66 39/143/66
f 25/167/80 42/168/80 40/169/80
f 39/143/81 25/167/81 40/169/81
f 39/143/82 35/170/82 28/141/82
f 35/170/83 44/171/83 30/172/83
f 44/171/66 33/173/66 30/172/66
f 30/172/84 28/141/84 35/170/84
f 37/140/85 39/166/85 40/144/85
f 41/146/86 40/174/86 42/147/86
f 24/175/87 26/176/87 37/177/87
f 26/176/88 27/178/88 37/177/88
f 29/151/89 31/179/89 34/149/89
f 31/179/90 32/180/90 34/149/90
f 27/178/91 29/151/91 36/150/91
f 37/177/92 27/178/92 36/150/92
f 37/177/93 41/181/93 24/175/93
o Corrente.001_Cube.000
v 1.572452 2.471615 0.153616
v 1.625375 2.472317 0.158278
v 1.625375 2.471615 0.153616
v 1.625375 2.106749 0.208516
v 1.572452 2.107451 0.213178
v 1.572452 2.106749 0.208516
v 1.625375 2.107451 0.213178
v 1.572452 2.472317 0.158278
vt 0.777532 0.218048
vt 0.733158 0.262421
vt 0.733158 0.218048
vt 0.860464 0.218048
vt 0.816090 0.262421
vt 0.816090 0.218048
vt 0.936340 0.972774
vt 0.023539 0.325238
vt 0.936340 0.325238
vt 0.694600 0.262421
vt 0.694600 0.218048
vt 0.045380 0.325238
vt 0.958180 0.972774
vt 0.045380 0.972774
vt 0.777532 0.262421
vt 0.860464 0.262421
vt 0.023539 0.972775
vt 0.958180 0.325238
vn 0.0000 0.9889 -0.1489
vn 0.0000 0.9888 -0.1490
vn 0.0000 -0.9889 0.1489
vn 0.0000 0.1488 0.9889
vn 1.0000 0.0000 0.0000
vn 0.0000 -0.1488 -0.9889
vn -1.0000 0.0000 0.0000
WE3DTexture board_chain
s 1
f 81/182/94 82/183/95 83/184/95
f 84/185/96 85/186/96 86/187/96
f 82/188/97 85/189/97 87/190/97
f 83/184/98 87/191/98 84/192/98
f 81/193/99 84/194/99 86/195/99
f 88/196/100 86/187/100 85/186/100
f 81/182/94 88/196/94 82/183/95
f 84/185/96 87/197/96 85/186/96
f 82/188/97 88/198/97 85/189/97
f 83/184/98 82/183/98 87/191/98
f 81/193/99 83/199/99 84/194/99
f 88/196/100 81/182/100 86/187/100
o Placa_Cube.003
v 1.833603 2.092405 0.241124
v 0.413761 1.706225 0.299232
v 1.833603 1.706225 0.299232
v 1.883583 2.084879 0.191110
v 1.883583 1.705597 0.295060
v 1.883583 1.698699 0.249218
v 0.413761 2.120030 0.185821
v 1.833603 2.126927 0.231663
v 1.833603 2.120030 0.185821
v 0.363782 2.091777 0.236952
v 0.363782 1.698699 0.249218
v 0.363782 1.705597 0.295060
v 0.413761 2.084251 0.186938
v 1.833603 1.698071 0.245046
v 0.413761 1.698071 0.245046
v 0.413761 1.670449 0.300349
v 0.413761 2.092405 0.241124
v 0.413761 2.126927 0.231663
v 0.413761 1.663551 0.254508
v 0.363782 2.084879 0.191110
v 1.833603 1.670449 0.300349
v 1.883583 2.091777 0.236952
v 1.833603 1.663551 0.254508
v 1.833603 2.084251 0.186938
vt 0.000000 0.538500
vt 0.333048 0.961500
vt 0.000000 0.961500
vt 0.378450 0.461500
vt 0.673876 0.038500
vt 0.673876 0.461500
vt 0.963688 0.967114
vt 0.662093 0.500000
vt 0.963688 0.500000
vt 0.029248 0.461500
vt 0.324673 0.038500
vt 0.324673 0.461500
vt 0.698405 0.467114
vt 1.000000 0.000000
vt 1.000000 0.467114
vt 0.349203 0.461500
vt 0.322314 0.500000
vt 0.026889 0.500000
vt 0.000000 0.461500
vt 0.349202 0.038500
vt 0.322314 0.000000
vt 0.000000 0.038500
vt 0.026889 0.000000
vt 0.029248 0.038500
vt 0.698405 0.038500
vt 0.671516 0.000000
vt 0.349203 0.038500
vt 0.376091 0.000000
vt 0.378450 0.038500
vt 0.698405 0.461500
vt 0.671516 0.500000
vt 0.349203 0.461500
vt 0.376091 0.500000
vt 0.634643 0.500000
vt 0.662093 0.967114
vt 0.634643 0.967114
vt 0.991138 0.967114
vt 0.000000 1.000000
vt 0.333048 1.000000
vt 0.333048 0.500000
vt 0.000000 0.500000
vt 0.333048 0.500000
vt 0.333048 0.538500
vt 0.662093 0.967114
vt 0.698405 0.000000
vt 0.662093 0.500000
vt 0.991138 0.500000
vt 0.333048 0.967114
vn 0.0000 0.1488 0.9889
vn 1.0000 0.0000 0.0000
vn 0.0000 0.9889 -0.1488
vn -1.0000 -0.0000 0.0000
vn 0.0000 -0.1488 -0.9889
vn -0.0835 0.0311 0.9960
vn -0.0835 0.2634 0.9611
vn -0.0835 -0.2634 -0.9611
vn -0.0835 -0.0311 -0.9960
vn 0.0835 0.0311 0.9960
vn 0.0835 0.2634 0.9611
vn 0.0835 -0.2634 -0.9611
vn 0.0835 -0.0311 -0.9960
vn -0.5796 -0.8059 0.1213
vn -0.0841 0.1483 0.9854
vn -0.5796 0.8058 -0.1213
vn -0.5796 0.8058 -0.1212
vn -0.0841 -0.1483 -0.9854
vn 0.0000 -0.2643 -0.9644
vn 0.0000 -0.0312 -0.9995
vn 0.0841 -0.1483 -0.9854
vn 0.5796 -0.8059 0.1213
vn 0.5796 0.8059 -0.1213
vn 0.5796 0.8058 -0.1213
vn 0.0841 0.1483 0.9854
vn 0.0000 0.0312 0.9995
vn 0.0000 0.2643 0.9644
vn 0.0000 -0.9889 0.1488
WE3DTexture board_plank
s 1
f 89/200/101 90/201/101 91/202/101
f 92/203/102 93/204/102 94/205/102
f 95/206/103 96/207/103 97/208/103
f 98/209/104 99/210/104 100/211/104
f 101/212/105 102/213/105 103/214/105
f 104/215/106 90/216/106 100/211/106
f 105/217/107 106/218/107 98/209/107
f 107/219/108 99/210/108 103/220/108
f 95/221/109 101/222/109 108/223/109
f 109/224/110 93/204/110 91/225/110
f 96/226/111 89/227/111 110/228/111
f 111/229/112 102/230/112 94/205/112
f 97/231/113 92/203/113 112/232/113
f 104/215/114 99/210/114 107/219/114
f 105/217/115 100/211/115 90/216/115
f 95/221/116 98/209/116 106/218/117
f 103/220/118 108/223/118 101/222/118
f 107/233/119 102/234/119 111/235/119
f 97/208/120 101/236/120 95/206/120
f 94/205/121 112/232/121 92/203/121
f 111/229/122 93/204/122 109/224/122
f 96/226/123 92/203/123 97/231/124
f 91/225/125 110/228/125 89/227/125
f 109/237/126 90/201/126 104/238/126
f 106/239/127 89/200/127 96/240/127
f 111/235/128 104/241/128 107/233/128
f 89/200/101 105/242/101 90/201/101
f 92/203/102 110/228/102 93/204/102
f 95/206/103 106/243/103 96/207/103
f 98/209/104 108/223/104 99/210/104
f 101/212/105 112/244/105 102/213/105
f 104/215/114 100/211/114 99/210/114
f 105/217/115 98/209/115 100/211/115
f 95/221/116 108/223/116 98/209/116
f 103/220/118 99/210/118 108/223/118
f 107/233/119 103/245/119 102/234/119
f 97/208/120 112/246/120 101/236/120
f 94/205/121 102/230/121 112/232/121
f 111/229/122 94/205/122 93/204/122
f 96/226/123 110/228/123 92/203/123
f 91/225/125 93/204/125 110/228/125
f 109/237/126 91/202/126 90/201/126
f 106/239/127 105/242/127 89/200/127
f 111/235/128 109/247/128 104/241/128
