# Blender v2.79 (sub 0) OBJ File: ''
# www.blender.org
o Cylinder_Cylinder_None_stump.jpg
v 0.000677 -0.036810 0.128336
v 0.257922 -0.036810 -0.128909
v 0.303167 -0.036810 -0.073781
v -0.008607 0.712964 0.153944
v 0.294656 0.694115 -0.074031
v 0.231511 0.701102 -0.129690
v 0.336786 -0.036810 -0.010884
v 0.336786 0.690792 -0.010884
v 0.357487 -0.036810 0.057363
v 0.357487 0.690792 0.057363
v 0.364478 -0.036810 0.128336
v 0.364478 0.690792 0.128338
v 0.357487 -0.036810 0.199310
v 0.357487 0.690792 0.199311
v 0.356704 -0.039093 0.278816
v 0.336784 0.690792 0.267557
v 0.323086 -0.039093 0.341711
v 0.303167 0.690792 0.330454
v 0.277842 -0.039093 0.396841
v 0.257922 0.690792 0.385583
v 0.222713 -0.039093 0.442084
v 0.202794 0.690792 0.430825
v 0.159816 -0.039093 0.475703
v 0.136950 0.702078 0.475892
v 0.091570 -0.039093 0.496406
v 0.062502 0.725814 0.520671
v 0.020597 -0.039093 0.503395
v -0.008470 0.725814 0.527662
v -0.050378 -0.039093 0.496406
v -0.079445 0.725814 0.520673
v -0.138544 -0.036810 0.464444
v -0.147692 0.725814 0.499970
v -0.201441 -0.036810 0.430825
v -0.201485 0.706566 0.441244
v -0.256569 -0.036810 0.385582
v -0.246954 0.702405 0.380035
v -0.301812 -0.036810 0.330452
v -0.292197 0.702405 0.324905
v -0.335431 -0.036810 0.267557
v -0.325816 0.702405 0.262009
v -0.367239 -0.036959 0.207941
v -0.346519 0.702405 0.193763
v -0.388896 -0.035179 0.162169
v -0.360027 0.694534 0.126550
v -0.381906 -0.035179 0.091197
v -0.356134 0.690792 0.057363
v -0.361203 -0.035179 0.022950
v -0.335431 0.690792 -0.010884
v -0.312916 -0.036958 -0.065150
v -0.301814 0.690792 -0.073779
v -0.256569 -0.036810 -0.128911
v -0.256613 0.686651 -0.132104
v -0.201439 -0.036810 -0.174154
v -0.201577 0.677942 -0.184071
v -0.138544 -0.036810 -0.207773
v -0.138680 0.677942 -0.217690
v -0.070297 -0.036810 -0.228474
v -0.070436 0.677942 -0.238391
v 0.000677 -0.036810 -0.235465
v 0.000539 0.677942 -0.245383
v 0.071652 -0.036810 -0.228474
v 0.071514 0.677942 -0.238393
v 0.139899 -0.036810 -0.207773
v 0.132517 0.680768 -0.217907
v 0.202794 -0.036810 -0.174154
v 0.176334 0.696961 -0.178132
v 0.257922 0.145090 -0.128909
v 0.276753 0.337301 -0.074562
v 0.303167 0.145090 -0.073781
v 0.231509 0.519202 -0.129690
v 0.231509 0.337301 -0.129691
v 0.276753 0.519202 -0.074562
v 0.328274 0.330314 -0.011136
v 0.336786 0.145090 -0.010884
v 0.328274 0.512214 -0.011136
v 0.357487 0.145090 0.057363
v 0.357487 0.326991 0.057363
v 0.357487 0.508891 0.057363
v 0.364478 0.145090 0.128336
v 0.364478 0.326991 0.128336
v 0.364478 0.508891 0.128338
v 0.357487 0.145090 0.199311
v 0.357487 0.326991 0.199311
v 0.357487 0.508891 0.199311
v 0.356704 0.142807 0.278816
v 0.356704 0.324708 0.278816
v 0.336784 0.508891 0.267557
v 0.323086 0.142807 0.341711
v 0.303167 0.508891 0.330454
v 0.323086 0.324708 0.341711
v 0.277842 0.142807 0.396841
v 0.277842 0.324708 0.396841
v 0.257922 0.508891 0.385583
v 0.222713 0.324708 0.442084
v 0.222713 0.142807 0.442084
v 0.202794 0.508891 0.430825
v 0.159816 0.142807 0.475703
v 0.159816 0.324708 0.475703
v 0.139897 0.508891 0.464444
v 0.091570 0.142807 0.496406
v 0.091570 0.324708 0.496406
v 0.071650 0.508891 0.485148
v 0.020597 0.142807 0.503395
v 0.020597 0.324708 0.503395
v 0.000677 0.508891 0.492137
v -0.050378 0.142807 0.496406
v -0.050378 0.324708 0.496406
v -0.070297 0.508891 0.485148
v -0.138544 0.145090 0.464444
v -0.138544 0.326991 0.464444
v -0.138544 0.508891 0.464444
v -0.201441 0.145090 0.430825
v -0.198342 0.330733 0.429037
v -0.198342 0.512633 0.429037
v -0.256569 0.145090 0.385583
v -0.246954 0.338604 0.380032
v -0.246954 0.520504 0.380035
v -0.292199 0.338604 0.324904
v -0.301812 0.145090 0.330452
v -0.292199 0.520504 0.324904
v -0.335431 0.145090 0.267557
v -0.325816 0.520504 0.262009
v -0.325816 0.338604 0.262007
v -0.367239 0.144942 0.207941
v -0.346519 0.520504 0.193763
v -0.350650 0.337610 0.190409
v -0.388896 0.146722 0.162172
v -0.360027 0.512633 0.126550
v -0.364156 0.329739 0.123197
v -0.381906 0.146722 0.091197
v -0.356134 0.508891 0.057363
v -0.360265 0.325997 0.054012
v -0.361203 0.146722 0.022950
v -0.335431 0.508891 -0.010884
v -0.339562 0.325997 -0.014235
v -0.312916 0.144942 -0.065150
v -0.301814 0.508891 -0.073779
v -0.305943 0.325997 -0.077132
v -0.256569 0.145090 -0.128909
v -0.256569 0.326991 -0.128909
v -0.256569 0.508891 -0.128909
v -0.201441 0.145090 -0.174154
v -0.201441 0.508891 -0.174151
v -0.201441 0.326991 -0.174153
v -0.138544 0.145090 -0.207773
v -0.138544 0.326991 -0.207771
v -0.138546 0.508891 -0.207771
v -0.070297 0.145090 -0.228474
v -0.070297 0.326991 -0.228474
v -0.070299 0.508891 -0.228474
v 0.000675 0.326991 -0.235465
v 0.000677 0.145090 -0.235465
v 0.000675 0.508891 -0.235465
v 0.071650 0.145090 -0.228474
v 0.063138 0.330314 -0.228726
v 0.063138 0.512215 -0.228726
v 0.139897 0.145090 -0.207773
v 0.113483 0.337301 -0.208554
v 0.113481 0.519202 -0.208554
v 0.202794 0.145090 -0.174154
v 0.176378 0.337301 -0.174935
v 0.176378 0.519202 -0.174935
vt 0.309100 0.237100
vt 0.495800 0.218900
vt 0.495700 0.255600
vt 0.305700 0.232000
vt 0.374400 0.046900
vt 0.411400 0.070200
vt 0.488500 0.291600
vt 0.336700 0.035200
vt 0.474400 0.325600
vt 0.299800 0.035000
vt 0.454000 0.356100
vt 0.263500 0.042000
vt 0.428000 0.382100
vt 0.229200 0.055800
vt 0.401700 0.413500
vt 0.198300 0.076100
vt 0.367700 0.427500
vt 0.171900 0.102000
vt 0.331700 0.434700
vt 0.151100 0.132500
vt 0.295000 0.434700
vt 0.136500 0.166500
vt 0.258900 0.427500
vt 0.123800 0.206300
vt 0.225000 0.413500
vt 0.112500 0.251600
vt 0.194400 0.393100
vt 0.119600 0.287900
vt 0.168500 0.367100
vt 0.133600 0.322100
vt 0.143800 0.325600
vt 0.154100 0.352900
vt 0.129700 0.291700
vt 0.192200 0.371600
vt 0.122500 0.255700
vt 0.229500 0.384900
vt 0.122400 0.218900
vt 0.263600 0.399000
vt 0.129600 0.182900
vt 0.299900 0.406200
vt 0.136300 0.148800
vt 0.336900 0.406200
vt 0.142900 0.122600
vt 0.372500 0.402900
vt 0.169000 0.096700
vt 0.406300 0.390700
vt 0.199600 0.076300
vt 0.437100 0.370100
vt 0.247700 0.057200
vt 0.463300 0.344100
vt 0.291100 0.050300
vt 0.485600 0.312900
vt 0.327800 0.050400
vt 0.503600 0.277800
vt 0.363900 0.057600
vt 0.510900 0.241600
vt 0.397800 0.071700
vt 0.511100 0.204600
vt 0.428300 0.092200
vt 0.504100 0.168300
vt 0.454300 0.118200
vt 0.490200 0.134100
vt 0.474600 0.148800
vt 0.471000 0.106800
vt 0.488600 0.182800
vt 0.443700 0.090400
vt 0.849200 0.647700
vt 0.782500 0.538900
vt 0.849200 0.538900
vt 0.783500 0.762600
vt 0.782500 0.647700
vt 0.850200 0.871400
vt 0.850200 0.762600
vt 0.833400 0.871400
vt 0.909800 0.976000
vt 0.888100 0.871400
vt 0.706400 0.538900
vt 0.706700 0.758400
vt 0.706400 0.647700
vt 0.706700 0.867200
vt 0.783500 0.871400
vt 0.706400 0.974000
vt 0.623800 0.647700
vt 0.623800 0.538900
vt 0.623800 0.756500
vt 0.623800 0.865200
vt 0.623800 0.974000
vt 0.537900 0.538900
vt 0.537900 0.647700
vt 0.537900 0.756500
vt 0.537900 0.865200
vt 0.452100 0.647700
vt 0.452100 0.538900
vt 0.452100 0.756500
vt 0.452100 0.974000
vt 0.452100 0.865200
vt 0.355900 0.646300
vt 0.355900 0.537600
vt 0.355900 0.755100
vt 0.369500 0.865200
vt 0.279700 0.646300
vt 0.279700 0.537600
vt 0.293400 0.865200
vt 0.279700 0.755100
vt 0.369500 0.974000
vt 0.213000 0.537600
vt 0.213000 0.646300
vt 0.213000 0.755100
vt 0.293400 0.974000
vt 0.226700 0.865200
vt 0.889400 0.646300
vt 0.822700 0.537600
vt 0.889400 0.537600
vt 0.822700 0.755100
vt 0.822700 0.646300
vt 0.865300 0.865200
vt 0.889400 0.755100
vt 0.865300 0.974000
vt 0.798600 0.865200
vt 0.746600 0.537600
vt 0.746600 0.646300
vt 0.746600 0.755100
vt 0.798600 0.974000
vt 0.722500 0.865200
vt 0.664000 0.646300
vt 0.664000 0.537600
vt 0.664000 0.755100
vt 0.718900 0.980700
vt 0.639900 0.865200
vt 0.578100 0.537600
vt 0.578100 0.646300
vt 0.578100 0.755100
vt 0.628800 0.994900
vt 0.554000 0.865200
vt 0.492200 0.537600
vt 0.492200 0.646300
vt 0.492200 0.755100
vt 0.543000 0.994900
vt 0.468100 0.865200
vt 0.385600 0.538900
vt 0.385600 0.647700
vt 0.385600 0.756500
vt 0.374500 0.994900
vt 0.385600 0.865200
vt 0.309400 0.538900
vt 0.309400 0.647700
vt 0.313200 0.758700
vt 0.131200 0.865200
vt 0.159300 0.983400
vt 0.174100 0.867500
vt 0.242700 0.538900
vt 0.174100 0.758700
vt 0.226700 0.647700
vt 0.171900 0.647700
vt 0.233400 0.763400
vt 0.233400 0.872200
vt 0.293400 0.538900
vt 0.226700 0.538900
vt 0.300100 0.763400
vt 0.293400 0.647700
vt 0.300100 0.872200
vt 0.300100 0.980900
vt 0.369500 0.538900
vt 0.369500 0.647700
vt 0.376200 0.872200
vt 0.376200 0.763400
vt 0.376200 0.980900
vt 0.441600 0.647600
vt 0.441600 0.538900
vt 0.458800 0.872200
vt 0.462800 0.762800
vt 0.497000 0.539900
vt 0.497000 0.648700
vt 0.540100 0.867500
vt 0.544200 0.758100
vt 0.540100 0.976200
vt 0.582900 0.648700
vt 0.582900 0.539900
vt 0.623800 0.865200
vt 0.627900 0.755900
vt 0.623800 0.974000
vt 0.665500 0.539900
vt 0.665500 0.648700
vt 0.706400 0.865200
vt 0.710500 0.755900
vt 0.706400 0.974000
vt 0.772100 0.647600
vt 0.772100 0.538900
vt 0.782500 0.865200
vt 0.786600 0.755900
vt 0.849200 0.538900
vt 0.849200 0.647700
vt 0.849200 0.756500
vt 0.853100 0.971500
vt 0.849200 0.865200
vt 0.242700 0.538900
vt 0.309400 0.647700
vt 0.309400 0.538900
vt 0.242700 0.756500
vt 0.242700 0.647700
vt 0.309400 0.865200
vt 0.309400 0.756500
vt 0.242700 0.865200
vt 0.309300 0.966300
vt 0.385600 0.647700
vt 0.385600 0.538900
vt 0.385600 0.756500
vt 0.385600 0.865200
vt 0.468100 0.647700
vt 0.468100 0.538900
vt 0.468100 0.756500
vt 0.468100 0.865200
vt 0.385400 0.966300
vt 0.554000 0.538900
vt 0.554000 0.756500
vt 0.554000 0.647700
vt 0.554000 0.865200
vt 0.468000 0.966300
vt 0.639900 0.647700
vt 0.639900 0.538900
vt 0.629600 0.758400
vt 0.553900 0.966300
vt 0.629600 0.867200
vt 0.722500 0.647700
vt 0.722500 0.538900
vt 0.690500 0.762600
vt 0.639700 0.966300
vt 0.690500 0.871400
vt 0.798600 0.647700
vt 0.798600 0.538900
vt 0.766600 0.762600
vt 0.766600 0.871400
vt 0.713600 0.968000
vt 0.865300 0.538900
vt 0.865300 0.647700
vt 0.833400 0.762600
vt 0.766600 0.977700
vt 0.833400 0.980100
vt 0.782800 0.976000
vt 0.537900 0.974000
vt 0.226700 0.974000
vt 0.457100 0.994900
vt 0.313200 0.867500
vt 0.088200 0.994900
vt 0.242700 0.647700
vt 0.233400 0.980900
vt 0.458800 0.980900
vt 0.782500 0.974000
vt 0.242700 0.971500
vn -0.0020 -1.0000 -0.0024
vn 0.5147 -0.6857 -0.5147
vn 0.6052 -0.6857 -0.4044
vn 0.0064 0.9993 -0.0366
vn 0.6151 0.6377 -0.4638
vn 0.4713 0.7106 -0.5224
vn 0.6725 -0.6857 -0.2785
vn 0.7052 0.6282 -0.3288
vn 0.7139 -0.6857 -0.1420
vn 0.7356 0.6592 -0.1563
vn 0.7279 -0.6857 -0.0000
vn 0.7467 0.6651 -0.0002
vn 0.7006 -0.7131 0.0264
vn 0.7327 0.6648 0.1456
vn 0.7281 -0.6618 0.1786
vn 0.6905 0.6645 0.2858
vn 0.6036 -0.6877 0.4033
vn 0.6217 0.6642 0.4152
vn 0.5133 -0.6877 0.5133
vn 0.5289 0.6639 0.5287
vn 0.4033 -0.6877 0.6036
vn 0.4829 0.6505 0.5863
vn 0.2778 -0.6877 0.6707
vn 0.5106 0.6200 0.5957
vn 0.1416 -0.6878 0.7120
vn 0.2965 0.6431 0.7060
vn -0.0000 -0.6878 0.7259
vn -0.0020 0.6374 0.7705
vn -0.1683 -0.6846 0.7092
vn -0.1511 0.6356 0.7571
vn -0.3027 -0.6884 0.6591
vn -0.4557 0.6249 0.6339
vn -0.4044 -0.6857 0.6052
vn -0.6462 0.6126 0.4551
vn -0.5147 -0.6857 0.5147
vn -0.5802 0.6934 0.4273
vn -0.6052 -0.6857 0.4044
vn -0.6137 0.6747 0.4100
vn -0.6237 -0.7067 0.3340
vn -0.6818 0.6748 0.2823
vn -0.6372 -0.7077 0.3053
vn -0.7018 0.6998 0.1331
vn -0.7531 -0.6465 0.1216
vn -0.7542 0.6567 0.0040
vn -0.7153 -0.6842 -0.1423
vn -0.7418 0.6543 -0.1473
vn -0.6768 -0.6813 -0.2788
vn -0.6902 0.6647 -0.2861
vn -0.5987 -0.6855 -0.4143
vn -0.6086 0.6749 -0.4172
vn -0.5024 -0.6894 -0.5219
vn -0.5079 0.6709 -0.5404
vn -0.4044 -0.6857 -0.6052
vn -0.4256 0.6196 -0.6595
vn -0.2786 -0.6857 -0.6725
vn -0.2949 0.6339 -0.7149
vn -0.1420 -0.6857 -0.7139
vn -0.1504 0.6330 -0.7594
vn 0.0000 -0.6857 -0.7279
vn 0.0010 0.6322 -0.7748
vn 0.1420 -0.6857 -0.7139
vn 0.1594 0.6172 -0.7705
vn 0.2785 -0.6857 -0.6725
vn 0.3263 0.5849 -0.7426
vn 0.4044 -0.6857 -0.6052
vn 0.3587 0.7159 -0.5990
vn 0.7085 0.0472 -0.7042
vn 0.7748 0.0505 -0.6302
vn 0.8254 0.0394 -0.5631
vn 0.7003 -0.0165 -0.7136
vn 0.7041 0.0468 -0.7085
vn 0.7774 -0.0322 -0.6281
vn 0.8622 0.0346 -0.5053
vn 0.9215 0.0125 -0.3882
vn 0.8587 -0.0115 -0.5124
vn 0.9808 0.0000 -0.1951
vn 0.9704 0.0084 -0.2414
vn 0.9688 0.0000 -0.2480
vn 1.0000 -0.0000 -0.0000
vn 0.9985 -0.0000 0.0540
vn 0.9972 0.0214 0.0713
vn 0.9808 -0.0000 0.1951
vn 0.9688 -0.0000 0.2478
vn 0.9664 0.0587 0.2503
vn 0.9303 0.0381 0.3648
vn 0.8315 -0.0000 0.5556
vn 0.8297 0.0618 0.5547
vn 0.8301 0.0614 0.5543
vn 0.7071 -0.0000 0.7071
vn 0.7066 0.0593 0.7051
vn 0.7051 0.0597 0.7066
vn 0.5561 0.0551 0.8293
vn 0.5556 -0.0000 0.8315
vn 0.5533 0.0553 0.8312
vn 0.3827 -0.0000 0.9239
vn 0.3844 0.0488 0.9219
vn 0.3877 0.0332 0.9212
vn 0.1951 -0.0000 0.9808
vn 0.1978 0.0406 0.9794
vn 0.2084 -0.0162 0.9779
vn 0.0000 -0.0000 1.0000
vn 0.0033 0.0308 0.9995
vn -0.0021 -0.0513 0.9987
vn -0.2211 -0.0000 0.9752
vn -0.2164 0.0183 0.9761
vn -0.2020 -0.0707 0.9768
vn -0.4071 -0.0000 0.9134
vn -0.4215 0.0074 0.9068
vn -0.4178 -0.0623 0.9064
vn -0.5578 0.0055 0.8299
vn -0.6084 0.0168 0.7934
vn -0.6171 -0.0293 0.7863
vn -0.7111 0.0209 0.7028
vn -0.7409 0.0270 0.6711
vn -0.7490 -0.0115 0.6625
vn -0.8311 0.0286 0.5554
vn -0.8312 0.0285 0.5552
vn -0.8315 0.0000 0.5556
vn -0.8817 0.0287 0.4708
vn -0.9239 -0.0000 0.3827
vn -0.9131 0.0421 0.4055
vn -0.8960 0.0455 0.4416
vn -0.9692 0.0052 0.2462
vn -0.9612 0.0748 0.2654
vn -0.9831 0.0626 0.1722
vn -0.9974 0.0108 0.0709
vn -0.9953 0.0810 0.0526
vn -0.9816 0.0439 -0.1861
vn -0.9846 0.0129 -0.1743
vn -0.9814 0.0526 -0.1846
vn -0.9246 0.0173 -0.3804
vn -0.9239 0.0139 -0.3824
vn -0.9203 0.0269 -0.3904
vn -0.8201 -0.0022 -0.5723
vn -0.8300 0.0067 -0.5577
vn -0.8098 0.0140 -0.5865
vn -0.6924 -0.0029 -0.7215
vn -0.6836 0.0056 -0.7298
vn -0.7107 -0.0122 -0.7034
vn -0.5556 0.0000 -0.8315
vn -0.5562 -0.0246 -0.8307
vn -0.3827 0.0000 -0.9239
vn -0.3832 -0.0273 -0.9233
vn -0.1951 0.0000 -0.9808
vn -0.1953 -0.0289 -0.9803
vn 0.0040 0.0007 -1.0000
vn 0.0000 0.0000 -1.0000
vn 0.0054 -0.0289 -0.9996
vn 0.2006 0.0086 -0.9796
vn 0.2394 0.0051 -0.9709
vn 0.2423 -0.0324 -0.9697
vn 0.3862 0.0249 -0.9221
vn 0.4153 0.0192 -0.9095
vn 0.4194 -0.0472 -0.9066
vn 0.5582 0.0367 -0.8289
vn 0.5522 0.0361 -0.8329
vn 0.5671 -0.0249 -0.8232
s 1
f 1/1/1 2/2/2 3/3/3
f 4/4/4 5/5/5 6/6/6
f 1/1/1 3/3/3 7/7/7
f 4/4/4 8/8/8 5/5/5
f 1/1/1 7/7/7 9/9/9
f 4/4/4 10/10/10 8/8/8
f 1/1/1 9/9/9 11/11/11
f 4/4/4 12/12/12 10/10/10
f 1/1/1 11/11/11 13/13/13
f 4/4/4 14/14/14 12/12/12
f 1/1/1 13/13/13 15/15/15
f 4/4/4 16/16/16 14/14/14
f 1/1/1 15/15/15 17/17/17
f 4/4/4 18/18/18 16/16/16
f 1/1/1 17/17/17 19/19/19
f 4/4/4 20/20/20 18/18/18
f 1/1/1 19/19/19 21/21/21
f 4/4/4 22/22/22 20/20/20
f 1/1/1 21/21/21 23/23/23
f 4/4/4 24/24/24 22/22/22
f 1/1/1 23/23/23 25/25/25
f 4/4/4 26/26/26 24/24/24
f 1/1/1 25/25/25 27/27/27
f 4/4/4 28/28/28 26/26/26
f 1/1/1 27/27/27 29/29/29
f 4/4/4 30/30/30 28/28/28
f 1/1/1 29/29/29 31/31/31
f 4/4/4 32/32/32 30/30/30
f 1/1/1 31/31/31 33/33/33
f 4/4/4 34/34/34 32/32/32
f 1/1/1 33/33/33 35/35/35
f 4/4/4 36/36/36 34/34/34
f 1/1/1 35/35/35 37/37/37
f 4/4/4 38/38/38 36/36/36
f 1/1/1 37/37/37 39/39/39
f 4/4/4 40/40/40 38/38/38
f 1/1/1 39/39/39 41/41/41
f 4/4/4 42/42/42 40/40/40
f 1/1/1 41/41/41 43/43/43
f 4/4/4 44/44/44 42/42/42
f 1/1/1 43/43/43 45/45/45
f 4/4/4 46/46/46 44/44/44
f 1/1/1 45/45/45 47/47/47
f 4/4/4 48/48/48 46/46/46
f 1/1/1 47/47/47 49/49/49
f 4/4/4 50/50/50 48/48/48
f 1/1/1 49/49/49 51/51/51
f 4/4/4 52/52/52 50/50/50
f 1/1/1 51/51/51 53/53/53
f 4/4/4 54/54/54 52/52/52
f 1/1/1 53/53/53 55/55/55
f 4/4/4 56/56/56 54/54/54
f 1/1/1 55/55/55 57/57/57
f 4/4/4 58/58/58 56/56/56
f 1/1/1 57/57/57 59/59/59
f 4/4/4 60/60/60 58/58/58
f 1/1/1 59/59/59 61/61/61
f 4/4/4 62/62/62 60/60/60
f 1/1/1 61/61/61 63/63/63
f 4/4/4 64/64/64 62/62/62
f 1/1/1 63/63/63 65/65/65
f 4/4/4 66/66/66 64/64/64
f 65/65/65 2/2/2 1/1/1
f 4/4/4 6/6/6 66/66/66
f 67/67/67 3/68/3 2/69/2
f 67/67/67 68/70/68 69/71/69
f 70/72/70 68/70/68 71/73/71
f 70/74/70 5/75/5 72/76/72
f 69/71/69 7/77/7 3/68/3
f 69/71/69 73/78/73 74/79/74
f 68/70/68 75/80/75 73/78/73
f 72/81/72 8/82/8 75/80/75
f 7/77/7 76/83/76 9/84/9
f 74/79/74 77/85/77 76/83/76
f 73/78/73 78/86/78 77/85/77
f 75/80/75 10/87/10 78/86/78
f 76/83/76 11/88/11 9/84/9
f 77/85/77 79/89/79 76/83/76
f 78/86/78 80/90/79 77/85/77
f 10/87/10 81/91/79 78/86/78
f 11/88/11 82/92/80 13/93/13
f 80/90/79 82/92/80 79/89/79
f 81/91/79 83/94/81 80/90/79
f 81/91/79 14/95/14 84/96/82
f 13/93/13 85/97/83 15/98/15
f 82/92/80 86/99/84 85/97/83
f 83/94/81 87/100/85 86/99/84
f 14/95/14 87/100/85 84/96/82
f 15/98/15 88/101/86 17/102/17
f 86/99/84 88/101/86 85/97/83
f 86/99/84 89/103/87 90/104/88
f 16/105/16 89/103/87 87/100/85
f 88/101/86 19/106/19 17/102/17
f 90/104/88 91/107/89 88/101/86
f 89/103/87 92/108/90 90/104/88
f 18/109/18 93/110/91 89/103/87
f 91/111/89 21/112/21 19/113/19
f 91/111/89 94/114/92 95/115/93
f 93/116/91 94/114/92 92/117/90
f 20/118/20 96/119/94 93/116/91
f 95/115/93 23/120/23 21/112/21
f 94/114/92 97/121/95 95/115/93
f 96/119/94 98/122/96 94/114/92
f 22/123/22 99/124/97 96/119/94
f 23/120/23 100/125/98 25/126/25
f 97/121/95 101/127/99 100/125/98
f 99/124/97 101/127/99 98/122/96
f 24/128/24 102/129/100 99/124/97
f 100/125/98 27/130/27 25/126/25
f 101/127/99 103/131/101 100/125/98
f 102/129/100 104/132/102 101/127/99
f 26/133/26 105/134/103 102/129/100
f 103/131/101 29/135/29 27/130/27
f 104/132/102 106/136/104 103/131/101
f 105/134/103 107/137/105 104/132/102
f 28/138/28 108/139/106 105/134/103
f 106/136/104 31/140/31 29/135/29
f 107/137/105 109/141/107 106/136/104
f 108/139/106 110/142/108 107/137/105
f 108/139/106 32/143/32 111/144/109
f 109/141/107 33/145/33 31/140/31
f 110/142/108 112/146/110 109/141/107
f 111/144/109 113/147/111 110/142/108
f 111/148/109 34/149/34 114/150/112
f 112/146/110 35/151/35 33/145/33
f 113/152/111 115/153/113 112/154/110
f 114/150/112 116/155/114 113/152/111
f 34/149/34 117/156/115 114/150/112
f 115/153/113 37/157/37 35/158/35
f 115/153/113 118/159/116 119/160/117
f 116/155/114 120/161/118 118/159/116
f 117/156/115 38/162/38 120/161/118
f 119/160/117 39/163/39 37/157/37
f 118/159/116 121/164/119 119/160/117
f 118/159/116 122/165/120 123/166/121
f 120/161/118 40/167/40 122/165/120
f 39/163/39 124/168/122 41/169/41
f 123/166/121 124/168/122 121/164/119
f 123/166/121 125/170/123 126/171/124
f 40/167/40 125/170/123 122/165/120
f 124/168/122 43/172/43 41/169/41
f 126/171/124 127/173/125 124/168/122
f 126/171/124 128/174/126 129/175/127
f 125/170/123 44/176/44 128/174/126
f 43/172/43 130/177/128 45/178/45
f 129/175/127 130/177/128 127/173/125
f 129/175/127 131/179/129 132/180/130
f 128/174/126 46/181/46 131/179/129
f 130/177/128 47/182/47 45/178/45
f 132/180/130 133/183/131 130/177/128
f 132/180/130 134/184/132 135/185/133
f 131/179/129 48/186/48 134/184/132
f 47/182/47 136/187/134 49/188/49
f 135/185/133 136/187/134 133/183/131
f 135/185/133 137/189/135 138/190/136
f 48/186/48 137/189/135 134/184/132
f 136/187/134 51/191/51 49/188/49
f 138/190/136 139/192/137 136/187/134
f 137/189/135 140/193/138 138/190/136
f 137/189/135 52/194/52 141/195/139
f 51/196/51 142/197/140 53/198/53
f 140/199/138 142/197/140 139/200/137
f 140/199/138 143/201/141 144/202/140
f 141/203/139 54/204/54 143/201/141
f 53/198/53 145/205/142 55/206/55
f 142/197/140 146/207/142 145/205/142
f 144/202/140 147/208/143 146/207/142
f 54/204/54 147/208/143 143/201/141
f 55/206/55 148/209/144 57/210/57
f 145/205/142 149/211/144 148/209/144
f 146/207/142 150/212/145 149/211/144
f 56/213/56 150/212/145 147/208/143
f 148/209/144 59/214/59 57/210/57
f 148/209/144 151/215/146 152/216/147
f 149/211/144 153/217/148 151/215/146
f 58/218/58 153/217/148 150/212/145
f 59/214/59 154/219/149 61/220/61
f 151/215/146 154/219/149 152/216/147
f 153/217/148 155/221/150 151/215/146
f 60/222/60 156/223/151 153/217/148
f 61/220/61 157/224/152 63/225/63
f 154/219/149 158/226/153 157/224/152
f 156/223/151 158/226/153 155/221/150
f 62/227/62 159/228/154 156/223/151
f 63/225/63 160/229/155 65/230/65
f 157/224/152 161/231/156 160/229/155
f 158/226/153 162/232/157 161/231/156
f 64/233/64 162/232/157 159/228/154
f 2/234/2 160/229/155 67/235/67
f 160/229/155 71/236/71 67/235/67
f 161/231/156 70/74/70 71/236/71
f 66/237/66 70/74/70 162/232/157
f 67/67/67 69/71/69 3/68/3
f 67/67/67 71/73/71 68/70/68
f 70/72/70 72/81/72 68/70/68
f 70/74/70 6/238/6 5/75/5
f 69/71/69 74/79/74 7/77/7
f 69/71/69 68/70/68 73/78/73
f 68/70/68 72/81/72 75/80/75
f 72/81/72 5/239/5 8/82/8
f 7/77/7 74/79/74 76/83/76
f 74/79/74 73/78/73 77/85/77
f 73/78/73 75/80/75 78/86/78
f 75/80/75 8/82/8 10/87/10
f 76/83/76 79/89/79 11/88/11
f 77/85/77 80/90/79 79/89/79
f 78/86/78 81/91/79 80/90/79
f 10/87/10 12/240/12 81/91/79
f 11/88/11 79/89/79 82/92/80
f 80/90/79 83/94/81 82/92/80
f 81/91/79 84/96/82 83/94/81
f 81/91/79 12/240/12 14/95/14
f 13/93/13 82/92/80 85/97/83
f 82/92/80 83/94/81 86/99/84
f 83/94/81 84/96/82 87/100/85
f 14/95/14 16/105/16 87/100/85
f 15/98/15 85/97/83 88/101/86
f 86/99/84 90/104/88 88/101/86
f 86/99/84 87/100/85 89/103/87
f 16/105/16 18/109/18 89/103/87
f 88/101/86 91/107/89 19/106/19
f 90/104/88 92/108/90 91/107/89
f 89/103/87 93/110/91 92/108/90
f 18/109/18 20/241/20 93/110/91
f 91/111/89 95/115/93 21/112/21
f 91/111/89 92/117/90 94/114/92
f 93/116/91 96/119/94 94/114/92
f 20/118/20 22/123/22 96/119/94
f 95/115/93 97/121/95 23/120/23
f 94/114/92 98/122/96 97/121/95
f 96/119/94 99/124/97 98/122/96
f 22/123/22 24/128/24 99/124/97
f 23/120/23 97/121/95 100/125/98
f 97/121/95 98/122/96 101/127/99
f 99/124/97 102/129/100 101/127/99
f 24/128/24 26/133/26 102/129/100
f 100/125/98 103/131/101 27/130/27
f 101/127/99 104/132/102 103/131/101
f 102/129/100 105/134/103 104/132/102
f 26/133/26 28/138/28 105/134/103
f 103/131/101 106/136/104 29/135/29
f 104/132/102 107/137/105 106/136/104
f 105/134/103 108/139/106 107/137/105
f 28/138/28 30/242/30 108/139/106
f 106/136/104 109/141/107 31/140/31
f 107/137/105 110/142/108 109/141/107
f 108/139/106 111/144/109 110/142/108
f 108/139/106 30/242/30 32/143/32
f 109/141/107 112/146/110 33/145/33
f 110/142/108 113/147/111 112/146/110
f 111/144/109 114/243/112 113/147/111
f 111/148/109 32/244/32 34/149/34
f 112/146/110 115/245/113 35/151/35
f 113/152/111 116/155/114 115/153/113
f 114/150/112 117/156/115 116/155/114
f 34/149/34 36/246/36 117/156/115
f 115/153/113 119/160/117 37/157/37
f 115/153/113 116/155/114 118/159/116
f 116/155/114 117/156/115 120/161/118
f 117/156/115 36/246/36 38/162/38
f 119/160/117 121/164/119 39/163/39
f 118/159/116 123/166/121 121/164/119
f 118/159/116 120/161/118 122/165/120
f 120/161/118 38/162/38 40/167/40
f 39/163/39 121/164/119 124/168/122
f 123/166/121 126/171/124 124/168/122
f 123/166/121 122/165/120 125/170/123
f 40/167/40 42/247/42 125/170/123
f 124/168/122 127/173/125 43/172/43
f 126/171/124 129/175/127 127/173/125
f 126/171/124 125/170/123 128/174/126
f 125/170/123 42/247/42 44/176/44
f 43/172/43 127/173/125 130/177/128
f 129/175/127 132/180/130 130/177/128
f 129/175/127 128/174/126 131/179/129
f 128/174/126 44/176/44 46/181/46
f 130/177/128 133/183/131 47/182/47
f 132/180/130 135/185/133 133/183/131
f 132/180/130 131/179/129 134/184/132
f 131/179/129 46/181/46 48/186/48
f 47/182/47 133/183/131 136/187/134
f 135/185/133 138/190/136 136/187/134
f 135/185/133 134/184/132 137/189/135
f 48/186/48 50/248/50 137/189/135
f 136/187/134 139/192/137 51/191/51
f 138/190/136 140/193/138 139/192/137
f 137/189/135 141/195/139 140/193/138
f 137/189/135 50/248/50 52/194/52
f 51/196/51 139/200/137 142/197/140
f 140/199/138 144/202/140 142/197/140
f 140/199/138 141/203/139 143/201/141
f 141/203/139 52/249/52 54/204/54
f 53/198/53 142/197/140 145/205/142
f 142/197/140 144/202/140 146/207/142
f 144/202/140 143/201/141 147/208/143
f 54/204/54 56/213/56 147/208/143
f 55/206/55 145/205/142 148/209/144
f 145/205/142 146/207/142 149/211/144
f 146/207/142 147/208/143 150/212/145
f 56/213/56 58/218/58 150/212/145
f 148/209/144 152/216/147 59/214/59
f 148/209/144 149/211/144 151/215/146
f 149/211/144 150/212/145 153/217/148
f 58/218/58 60/222/60 153/217/148
f 59/214/59 152/216/147 154/219/149
f 151/215/146 155/221/150 154/219/149
f 153/217/148 156/223/151 155/221/150
f 60/222/60 62/227/62 156/223/151
f 61/220/61 154/219/149 157/224/152
f 154/219/149 155/221/150 158/226/153
f 156/223/151 159/228/154 158/226/153
f 62/227/62 64/233/64 159/228/154
f 63/225/63 157/224/152 160/229/155
f 157/224/152 158/226/153 161/231/156
f 158/226/153 159/228/154 162/232/157
f 64/233/64 66/237/66 162/232/157
f 2/234/2 65/230/65 160/229/155
f 160/229/155 161/231/156 71/236/71
f 161/231/156 162/232/157 70/74/70
f 66/237/66 6/238/6 70/74/70
