# Blender v2.79 (sub 0) OBJ File: ''
# www.blender.org
o pCylinder1
v 0.019570 -0.001534 0.148987
v 0.125519 -0.002563 0.056881
v 0.053614 -0.004457 -0.126305
v -0.135691 -0.002408 0.059155
v 0.193873 0.096036 -0.032165
v -0.104672 0.004644 -0.099179
v -0.162724 0.147402 0.130708
v -0.016973 0.148094 0.209671
v 0.109186 0.134859 0.178970
v 0.196691 0.160787 0.047484
v 0.171626 0.152615 -0.105972
v 0.023931 0.142315 -0.197156
v -0.095304 0.157926 -0.175717
v -0.173931 0.150447 -0.104467
v -0.205532 0.152776 0.016436
v -0.098691 0.291620 0.161029
v 0.115817 0.297852 0.144871
v 0.102359 0.290845 -0.146525
v -0.020638 0.718850 0.124241
v -0.118334 0.675416 0.051441
v 0.097367 0.688128 0.077818
v 0.117287 0.680176 -0.010216
v 0.081623 0.685085 -0.083209
v -0.021151 0.716377 -0.112474
v -0.108180 0.687026 -0.052203
v -0.101737 1.075918 0.028596
v 0.076578 1.082110 0.069730
v 0.099170 1.076358 -0.023110
v 0.008013 1.076667 -0.101080
v -0.091217 1.076997 -0.051548
v -0.204366 1.138344 0.184850
v -0.023755 1.076700 0.107770
v 0.139231 1.138001 -0.216940
v -0.019853 1.138243 -0.255672
v -0.233777 1.140390 -0.134291
v 0.168459 1.136711 0.209864
v 0.271219 1.139077 -0.013409
v -0.068497 1.132026 0.287683
v -0.361913 1.006208 0.268775
v -0.093771 1.005033 0.441518
v 0.156948 1.011902 0.412380
v 0.374575 1.004157 0.243000
v 0.438840 1.007344 -0.025025
v 0.331687 0.986731 -0.328344
v 0.083936 1.001936 -0.431997
v -0.216446 0.974129 -0.439603
v -0.364038 1.006208 -0.255697
v -0.447343 1.002675 0.017664
v 0.231555 0.983350 0.464495
v 0.511857 0.996982 0.125465
v 0.093158 0.995846 -0.509905
v -0.512576 0.993038 -0.126247
v -0.437599 0.985762 0.290828
v -0.074418 0.992883 0.522333
v 0.185018 1.035496 0.484535
v 0.477420 1.035497 -0.181980
v 0.413573 0.984594 -0.300713
v -0.186158 1.031713 -0.468762
v -0.406578 1.043010 -0.293373
v -0.481497 1.035497 0.192134
v -0.264814 1.044363 0.441117
v 0.291537 1.037600 -0.411902
v -0.321520 1.172367 0.273517
v -0.070266 1.179290 0.416396
v 0.213662 1.172367 0.362289
v 0.414497 1.027712 0.298008
v 0.414212 1.172366 -0.024310
v 0.317441 1.172367 -0.263364
v 0.098641 1.172367 -0.399882
v -0.418289 1.172366 0.034463
v -0.284310 1.350880 0.164793
v 0.207233 1.374861 0.229639
v 0.229047 1.397308 -0.161608
v 0.131526 1.376706 -0.267842
v -0.056833 1.350235 0.335415
v 0.313788 1.368930 0.026565
v -0.029677 1.381113 -0.295411
v -0.331940 1.338795 -0.049645
v -0.034232 1.441685 0.189948
v -0.208683 1.375524 -0.220923
v -0.209454 1.432644 0.034397
v 0.082830 1.460138 0.037242
v -0.024576 1.462885 -0.069871
vt 0.623341 0.038452
vt 0.576898 0.055323
vt 0.584244 0.029429
vt 0.537395 0.041189
vt 0.499961 0.163749
vt 0.753009 0.112910
vt 0.816862 0.046739
vt 0.767602 0.172402
vt 0.877941 0.055953
vt 0.932755 0.056876
vt 0.903800 0.164398
vt 0.677308 0.119732
vt 0.650642 0.176205
vt 0.866418 0.174083
vt 0.819497 0.160708
vt 0.612208 0.289023
vt 0.599856 0.155471
vt 0.688710 0.265618
vt 0.547257 0.171663
vt 0.566927 0.608844
vt 0.526906 0.628973
vt 0.614550 0.609047
vt 0.645351 0.611666
vt 0.806850 0.613303
vt 0.785986 0.612913
vt 0.848871 0.619003
vt 0.888335 0.609599
vt 0.867791 0.935016
vt 0.567217 0.933778
vt 0.536995 0.933247
vt 0.599901 0.934074
vt 0.628248 0.934225
vt 0.833848 0.933963
vt 0.897902 0.934633
vt 0.237768 0.853575
vt 0.182021 0.869911
vt 0.207773 0.833330
vt 0.271589 0.800293
vt 0.284227 0.731734
vt 0.331776 0.799778
vt 0.223235 0.727044
vt 0.235455 0.780522
vt 0.156314 0.777806
vt 0.206213 0.804246
vt 0.274427 0.836299
vt 0.307061 0.885593
vt 0.226610 0.912450
vt 0.229286 0.971323
vt 0.131367 0.929360
vt 0.322793 0.945982
vt 0.384369 0.881193
vt 0.393545 0.782710
vt 0.347069 0.696665
vt 0.163086 0.678082
vt 0.255326 0.658128
vt 0.083904 0.845273
vt 0.098268 0.748762
vt 0.436570 0.355859
vt 0.370601 0.370121
vt 0.374706 0.341209
vt 0.257292 0.358798
vt 0.306496 0.390350
vt 0.112517 0.021924
vt 0.174952 0.049530
vt 0.081008 0.037600
vt 0.240711 0.383710
vt 0.423651 0.383077
vt 0.368033 0.047271
vt 0.319265 0.064313
vt 0.258160 0.031584
vt 0.247765 0.059419
vt 0.122436 0.386954
vt 0.106440 0.461444
vt 0.043077 0.385069
vt 0.174528 0.372976
vt 0.182965 0.461917
vt 0.259495 0.461446
vt 0.378220 0.461197
vt 0.122283 0.062659
vt 0.112911 0.136899
vt 0.052099 0.061124
vt 0.180398 0.136832
vt 0.069795 0.133705
vt 0.152329 0.262109
vt 0.120457 0.255976
vt 0.429396 0.059000
vt 0.382900 0.136702
vt 0.195386 0.563484
vt 0.126482 0.567450
vt 0.330771 0.574659
vt 0.183862 0.251547
vt 0.225285 0.255872
vt 0.330783 0.237188
vt 0.367043 0.240842
vt 0.063058 0.458204
vt 0.271352 0.576550
vt 0.215131 0.615847
vt 0.313069 0.287099
vt 0.319242 0.616568
vt 0.257725 0.632721
vt 0.237803 0.308049
vt 0.271971 0.252374
vt 0.200853 0.308659
vt 0.275714 0.309823
vt 0.650591 0.034519
vt 0.947956 0.166505
vt 0.473104 0.149099
vt 0.527009 0.280778
vt 0.792570 0.281276
vt 0.923107 0.585333
vt 0.482029 0.310656
vt 0.807687 0.933643
vt 0.124563 0.342200
vt 0.071322 0.359982
vt 0.197149 0.342782
vt 0.258088 0.343079
vt 0.313410 0.343186
vt 0.063813 0.015689
vt 0.178233 0.018339
vt 0.322753 0.018283
vt 0.394484 0.017971
vt 0.435302 0.031045
vt 0.082425 0.341203
vt 0.232260 0.638476
vt 0.173785 0.621481
vn 0.5646 -0.7986 0.2083
vn 0.0400 -0.7753 0.6303
vn 0.2385 -0.7821 -0.5757
vn -0.5853 -0.7716 0.2490
vn -0.7450 -0.1513 0.6497
vn 0.9290 -0.3251 -0.1766
vn 0.8136 -0.0859 -0.5750
vn -0.4612 -0.7459 -0.4806
vn -0.8562 -0.1311 -0.4997
vn 0.9684 -0.0466 0.2452
vn -0.4289 -0.1104 -0.8966
vn 0.1339 -0.1682 -0.9766
vn 0.5978 0.1566 0.7862
vn 0.5600 -0.1442 0.8158
vn -0.1199 -0.1255 0.9848
vn -0.1308 0.0966 0.9867
vn -0.9123 0.1279 0.3891
vn 0.7617 0.1160 0.6375
vn 0.9873 0.1114 -0.1133
vn 0.6528 0.1102 -0.7494
vn -0.1674 0.0909 -0.9817
vn -0.8683 0.1131 -0.4830
vn -0.6445 -0.6257 -0.4396
vn -0.1421 -0.6114 0.7785
vn -0.8165 -0.5517 0.1701
vn 0.5623 -0.6736 0.4797
vn 0.7161 -0.6605 -0.2255
vn 0.1453 -0.6230 -0.7686
vn 0.2250 -0.9630 -0.1482
vn -0.1425 -0.9706 0.1939
vn -0.2631 -0.9644 0.0253
vn 0.0253 -0.9731 0.2292
vn 0.2248 -0.9669 0.1206
vn -0.1744 -0.9668 -0.1865
vn 0.0893 -0.9067 -0.4123
vn 0.0949 -0.9234 -0.3718
vn 0.3256 -0.9136 -0.2436
vn -0.1511 -0.8742 -0.4614
vn -0.3563 -0.8948 -0.2690
vn -0.4424 -0.8940 0.0713
vn -0.1972 -0.9645 0.1757
vn -0.3060 -0.8726 -0.3807
vn -0.0635 -0.9442 0.3231
vn 0.3974 -0.9168 -0.0381
vn 0.4815 -0.7686 0.4212
vn 0.6521 -0.5644 -0.5061
vn 0.8760 -0.4221 0.2332
vn 0.4185 -0.6713 0.6117
vn 0.8131 -0.0374 0.5810
vn 0.1092 -0.4520 -0.8853
vn 0.3079 0.2534 0.9170
vn 0.9500 0.0580 -0.3069
vn -0.8575 -0.4722 -0.2043
vn -0.7885 0.0586 -0.6122
vn -0.3314 0.1271 -0.9349
vn -0.5235 0.1106 0.8448
vn -0.6412 0.5256 0.5591
vn -0.9485 0.1246 0.2911
vn -0.1268 -0.5390 0.8327
vn -0.1291 0.5120 0.8492
vn 0.4033 0.5219 0.7516
vn 0.8552 0.5146 -0.0616
vn 0.5543 0.1202 -0.8236
vn 0.6474 0.5383 -0.5396
vn 0.2019 0.5123 -0.8347
vn 0.5228 0.7781 -0.3481
vn 0.7052 0.7074 0.0476
vn -0.8653 0.4981 0.0557
vn -0.1276 0.6486 0.7504
vn -0.6362 0.6616 0.3969
vn 0.2989 0.7240 -0.6217
vn -0.0688 0.7472 -0.6610
vn -0.7616 0.6357 -0.1258
vn 0.4498 0.7347 0.5078
vn -0.0709 0.9341 0.3500
vn -0.3985 0.9155 0.0546
vn 0.1820 0.9815 0.0592
vn -0.0518 0.9859 -0.1591
vn -0.4566 0.7433 -0.4890
vn -0.9915 -0.1268 0.0281
vn -0.5465 0.1463 0.8246
vn 0.5182 0.1334 -0.8448
vn -0.6479 -0.5510 0.5260
s 1
f 2/1/1 1/2/2 3/3/3
f 1/2/2 4/4/4 3/3/3
f 4/4/4 1/2/2 7/5/5
f 5/6/6 3/7/3 11/8/7
f 6/9/8 4/10/4 14/11/9
f 5/12/6 10/13/10 2/1/1
f 13/14/11 12/15/12 3/7/3
f 10/13/10 17/16/13 9/17/14
f 11/18/7 10/13/10 5/12/6
f 17/16/13 8/19/15 9/17/14
f 19/20/16 20/21/17 7/5/5
f 21/22/18 19/20/16 8/19/15
f 22/23/19 21/22/18 10/13/10
f 10/13/10 11/18/7 22/23/19
f 23/24/20 22/25/19 11/8/7
f 12/15/12 13/14/11 24/26/21
f 13/14/11 14/11/9 25/27/22
f 25/27/22 24/26/21 13/14/11
f 25/27/22 30/28/23 24/26/21
f 20/21/17 32/29/24 26/30/25
f 19/20/16 32/29/24 20/21/17
f 27/31/26 32/29/24 19/20/16
f 21/22/18 28/32/27 27/31/26
f 24/26/21 29/33/28 23/24/20
f 24/26/21 30/28/23 29/33/28
f 25/27/22 26/34/25 30/28/23
f 32/35/24 31/36/29 26/37/25
f 28/38/27 33/39/30 37/40/31
f 28/38/27 34/41/32 33/39/30
f 29/42/28 35/43/33 34/41/32
f 26/37/25 31/36/29 30/44/23
f 30/44/23 31/36/29 35/43/33
f 27/45/26 37/40/31 36/46/34
f 38/47/35 40/48/36 39/49/37
f 38/47/35 41/50/38 40/48/36
f 36/46/34 42/51/39 41/50/38
f 37/40/31 43/52/40 42/51/39
f 37/40/31 44/53/41 43/52/40
f 34/41/32 46/54/42 45/55/43
f 35/43/33 48/56/44 47/57/45
f 57/58/46 50/59/47 43/60/40
f 49/61/48 50/59/47 66/62/49
f 44/63/41 51/64/50 57/65/46
f 66/62/49 55/66/51 49/61/48
f 57/58/46 56/67/52 50/59/47
f 52/68/53 59/69/54 46/70/42
f 59/69/54 58/71/55 46/70/42
f 61/72/56 63/73/57 60/74/58
f 54/75/59 64/76/60 61/72/56
f 55/66/51 65/77/61 64/76/60
f 55/66/51 64/76/60 54/75/59
f 66/62/49 65/77/61 55/66/51
f 56/67/52 67/78/62 50/59/47
f 62/79/63 68/80/64 56/81/52
f 58/71/55 69/82/65 51/64/50
f 67/83/62 73/84/66 76/85/67
f 60/86/58 70/87/68 52/68/53
f 63/73/57 75/88/69 71/89/70
f 64/76/60 75/88/69 63/73/57
f 67/78/62 76/90/67 66/62/49
f 68/80/64 74/91/71 73/84/66
f 69/82/65 74/91/71 68/80/64
f 58/71/55 77/92/72 69/82/65
f 70/87/68 78/93/73 59/69/54
f 70/87/68 71/94/70 78/93/73
f 63/73/57 71/89/70 70/95/68
f 72/96/74 79/97/75 75/88/69
f 71/94/70 81/98/76 78/93/73
f 76/90/67 73/99/66 82/100/77
f 74/91/71 77/92/72 83/101/78
f 80/102/79 81/98/76 83/101/78
f 73/84/66 83/101/78 82/103/77
f 81/98/76 79/104/75 83/101/78
f 6/9/8 3/7/3 4/10/4
f 3/105/3 5/12/6 2/1/1
f 2/1/1 9/17/14 1/2/2
f 6/9/8 13/14/11 3/7/3
f 7/5/5 1/2/2 8/19/15
f 8/19/15 1/2/2 9/17/14
f 9/17/14 2/1/1 10/13/10
f 11/8/7 3/7/3 12/15/12
f 13/14/11 6/9/8 14/11/9
f 14/11/9 4/10/4 15/106/80
f 15/107/80 4/4/4 7/5/5
f 8/19/15 16/108/81 7/5/5
f 12/15/12 18/109/82 11/8/7
f 16/108/81 19/20/16 7/5/5
f 8/19/15 19/20/16 16/108/81
f 17/16/13 21/22/18 8/19/15
f 10/13/10 21/22/18 17/16/13
f 18/109/82 23/24/20 11/8/7
f 23/24/20 18/109/82 24/26/21
f 12/15/12 24/26/21 18/109/82
f 15/106/80 25/27/22 14/11/9
f 25/27/22 15/106/80 20/110/17
f 7/5/5 20/21/17 15/111/80
f 19/20/16 21/22/18 27/31/26
f 21/22/18 22/23/19 28/32/27
f 22/25/19 23/24/20 28/112/27
f 23/24/20 29/33/28 28/112/27
f 25/27/22 20/110/17 26/34/25
f 31/36/29 32/35/24 36/46/34
f 27/45/26 28/38/27 37/40/31
f 28/38/27 29/42/28 34/41/32
f 29/42/28 30/44/23 35/43/33
f 32/35/24 27/45/26 36/46/34
f 31/36/29 36/46/34 38/47/35
f 31/36/29 38/47/35 39/49/37
f 38/47/35 36/46/34 41/50/38
f 36/46/34 37/40/31 42/51/39
f 37/40/31 33/39/30 44/53/41
f 33/39/30 45/55/43 44/53/41
f 33/39/30 34/41/32 45/55/43
f 34/41/32 35/43/33 46/54/42
f 35/43/33 47/57/45 46/54/42
f 35/43/33 31/36/29 48/56/44
f 31/36/29 39/49/37 48/56/44
f 39/113/37 54/75/59 53/114/83
f 39/113/37 40/115/36 54/75/59
f 40/115/36 49/61/48 54/75/59
f 40/115/36 41/116/38 49/61/48
f 41/116/38 42/117/39 49/61/48
f 42/117/39 50/59/47 49/61/48
f 42/117/39 43/60/40 50/59/47
f 43/118/40 44/63/41 57/65/46
f 45/119/43 51/64/50 44/63/41
f 45/119/43 46/70/42 51/64/50
f 47/120/45 52/68/53 46/70/42
f 47/120/45 48/121/44 52/68/53
f 48/121/44 53/122/83 52/68/53
f 48/123/44 39/113/37 53/114/83
f 53/114/83 54/75/59 61/72/56
f 54/75/59 49/61/48 55/66/51
f 57/65/46 51/64/50 62/79/63
f 51/64/50 46/70/42 58/71/55
f 52/68/53 53/122/83 60/86/58
f 53/114/83 61/72/56 60/74/58
f 57/65/46 62/79/63 56/81/52
f 61/72/56 64/76/60 63/73/57
f 50/59/47 67/78/62 66/62/49
f 56/81/52 68/80/64 67/83/62
f 62/79/63 51/64/50 69/82/65
f 62/79/63 69/82/65 68/80/64
f 52/68/53 70/87/68 59/69/54
f 60/74/58 63/73/57 70/95/68
f 64/76/60 65/77/61 75/88/69
f 65/77/61 72/96/74 75/88/69
f 65/77/61 66/62/49 72/96/74
f 66/62/49 76/90/67 72/96/74
f 79/97/75 71/89/70 75/88/69
f 69/82/65 77/92/72 74/91/71
f 58/71/55 80/102/79 77/92/72
f 58/71/55 59/69/54 80/102/79
f 59/69/54 78/93/73 80/102/79
f 80/102/79 78/93/73 81/98/76
f 79/97/75 72/96/74 82/100/77
f 72/96/74 76/90/67 82/100/77
f 73/84/66 74/91/71 83/101/78
f 77/92/72 80/102/79 83/101/78
f 79/97/75 82/100/77 83/124/78
f 67/83/62 68/80/64 73/84/66
f 79/97/75 81/125/76 71/89/70
