# Blender v2.79 (sub 0) OBJ File: ''
# www.blender.org
mtllib Tree.mtl
o Tree
v 0.796049 4.443638 -1.635156
v -1.112499 3.760530 -1.729150
v -0.688070 2.378735 -0.304886
v 1.220479 3.061843 -0.210892
v -1.883528 4.094254 0.756160
v -0.451080 3.838986 2.170712
v 0.594420 2.653528 0.898058
v -0.838029 2.908797 -0.516494
v -0.544936 4.547629 2.005503
v 1.452647 4.246738 1.812748
v 1.097346 2.690968 0.559207
v -0.900237 2.991858 0.751962
v -1.774649 3.581309 -0.711372
v -2.105297 1.585684 -0.873176
v -0.242384 1.218948 -0.156871
v 0.088262 3.214574 0.004933
v 0.150273 5.346481 1.403602
v 1.842274 5.009310 0.335202
v 1.060433 3.267882 -0.353411
v -0.631567 3.605055 0.714989
v -0.029877 5.320485 0.300597
v -1.189649 4.793268 0.081149
v -0.733057 3.638813 0.441630
v 0.426715 4.166031 0.661079
v 1.343376 4.583769 1.159940
v 0.508687 5.225803 0.410090
v -0.034171 4.107105 0.056523
v 0.800518 3.465073 0.806373
v 0.098597 3.110551 -2.529435
v -1.382163 3.879859 -2.314913
v -2.209785 3.432654 0.173324
v -2.151623 3.987227 -1.413992
v -1.498485 2.770712 0.859721
v -0.327381 3.115598 -0.760079
v 0.809898 2.448610 -1.843038
v -1.041237 1.665549 1.381957
v 0.496429 2.097746 0.218797
v 1.267146 1.343446 -1.320801
v -0.159248 2.414491 -0.368171
v -1.741597 1.905896 -0.014146
v -1.614841 2.715952 0.834249
v -0.111656 3.032621 0.973552
v 1.466178 1.679259 -0.277015
v 1.592934 2.489315 0.571380
v -1.507114 3.069057 1.844403
v 1.700661 2.842420 1.581534
v -0.330128 3.346615 2.766933
v 0.739129 3.271070 2.679310
v 0.815178 2.987869 0.032227
v 1.597566 3.063444 1.113125
v 2.280120 3.248775 0.100087
v 1.208635 2.772555 -1.462384
v 2.150476 3.151812 -0.758415
v -0.294794 1.873871 -1.116714
v 0.160222 2.069071 1.387852
v -0.268627 2.488693 0.165130
v 0.477049 3.436556 0.091428
v 0.278290 3.185997 -1.055494
v 0.170221 2.963372 1.201577
v -0.691119 4.522246 -1.036782
v -0.967152 4.048975 1.243162
v -1.472149 4.671566 -0.273386
v -1.537315 4.575253 0.484894
v -0.157226 3.261221 -0.079800
v -0.318119 2.916505 1.221703
v 0.008619 4.388610 0.298306
v 0.929703 3.262509 -0.996529
v -0.243729 4.652754 1.583893
v 1.085475 5.006370 -0.647093
v 0.419728 5.575396 1.099094
v 0.862796 5.693269 0.355432
v 0.435837 3.431832 0.686203
v 0.776071 3.242149 2.568672
v 1.669828 4.646972 1.947562
v 1.584028 4.584159 -0.860277
v 1.939146 5.094309 0.804579
v 0.959592 3.626672 -1.382149
v 0.151634 2.284661 2.046799
v 0.811783 2.362544 -1.911727
v -0.255707 2.082415 -0.140288
v 0.003826 1.020535 1.517222
v 0.059464 -0.186197 -0.864337
v 0.038722 0.312068 -0.277995
v 0.859049 -0.302507 0.538891
v 0.419248 -0.019568 0.016339
v -0.103784 0.060358 0.322107
v 0.248046 0.316508 0.106744
v -0.890756 -0.222903 0.255890
v -0.306312 -0.109305 0.244832
v -0.549375 -0.174303 0.807083
v -0.462508 0.101924 0.262085
v -0.297143 0.043314 -0.132491
v -0.188820 0.319300 0.172543
v 0.100811 2.370258 0.152539
v 0.143293 2.112547 -0.067797
v -0.162687 2.387171 -0.097436
v -0.007980 2.458851 -0.135667
v 0.227099 2.622872 -0.002672
v 1.234058 2.891005 -0.208223
v -0.014151 2.585608 0.073776
v 0.005461 2.536421 0.641184
v 0.047156 3.025768 1.624965
v 0.033793 3.482466 -0.003337
v 0.364486 4.985268 0.514998
v -0.900367 3.342867 -1.095982
v 0.012022 3.638505 0.183031
v -0.513335 4.002911 0.124285
vt 0.426915 -0.071253
vt 0.466249 -0.140923
vt 0.630922 -0.228944
vt 0.661544 0.038974
vt 0.807612 -0.100998
vt 0.369701 0.047742
vt 0.347664 -0.111448
vt 0.337078 -0.066954
vt 0.308750 -0.098710
vt 0.335213 -0.060759
vt 0.416419 -0.104619
vt 0.369584 -0.102384
vt 0.806705 1.703719
vt 1.104528 1.857956
vt 0.999182 2.599826
vt 0.565389 1.838584
vt 0.585886 2.023923
vt 0.527380 2.156955
vt 0.576229 1.850480
vt 0.642064 1.947769
vt 0.408422 1.913301
vt 0.260594 1.787229
vt 0.428750 2.750282
vt 0.317797 1.752286
vt -0.056086 2.761707
vt 0.273232 1.776377
vt -0.259904 1.794818
vt -0.111495 1.866853
vt 0.497137 1.907161
vt 0.431931 2.389827
vt 0.427997 3.668655
vt -0.054921 2.364110
vt 0.142964 2.387611
vt 0.750000 2.375577
vt 0.540293 2.936087
vt 0.956741 0.030863
vt 1.007866 1.624573
vt 0.120952 2.899535
vt 0.969997 2.401639
vt 0.729961 1.900615
vt 0.023172 -0.129824
vt 0.199221 -0.064445
vt 0.007373 0.164208
vt 0.983348 -0.155008
vt 0.224845 -0.107850
vt 0.261023 -0.084788
vt 0.385613 -0.043218
vt 1.387792 1.979650
vt 0.223583 3.687830
vt 0.675000 0.207812
vt 0.325000 0.557813
vt 0.675000 0.557813
vt 0.325000 0.557813
vt 0.675000 0.207812
vt 0.325000 0.207812
vt 0.325000 0.207812
vt 0.675000 0.557813
vt 0.675000 0.207812
vt 0.675000 0.207812
vt 0.325000 0.557813
vt 0.675000 0.557813
vt 0.325000 0.557813
vt 0.675000 0.207812
vt 0.325000 0.207812
vt 0.675000 0.207812
vt 0.325000 0.557813
vt 0.675000 0.557813
vt 0.325000 0.557813
vt 0.675000 0.207812
vt 0.325000 0.207812
vt 0.325000 0.207812
vt 0.675000 0.557813
vt 0.325000 0.557813
vt 0.325000 0.207812
vt 0.675000 0.557813
vt 0.325000 0.207812
vt 0.675000 0.557813
vt 1.024239 0.977465
vt 1.450000 1.150000
vt 1.150000 1.450000
vt 0.550000 1.150000
vt 0.850000 1.450000
vt 0.550000 0.850000
vt 1.450000 0.850000
vt 1.022536 0.975762
vt 0.550000 1.150000
vt 0.550000 0.850000
vt 0.850000 1.450000
vt 1.450000 1.150000
vt 1.150000 1.450000
vt 1.024240 0.977465
vt 1.450000 1.150000
vt 1.150000 1.450000
vt 0.550000 1.150000
vt 0.850000 1.450000
vt 0.550000 0.554234
vt 1.013101 0.550000
vt 1.450000 0.552585
vt 1.013100 0.550000
vt 1.450000 0.553451
vt 1.453611 1.151446
vt 0.550000 0.556662
vt 0.550000 1.150000
vt 0.850000 1.450000
vt 1.013099 0.550000
vt 1.450000 0.553451
vt 1.025500 0.988114
vt 0.550000 1.150000
vt 0.550000 0.554234
vt 1.150000 1.450000
vt 0.850000 1.450000
vt 1.450000 1.150000
vt 1.026935 0.987492
vt 1.450000 1.150000
vt 1.150000 1.450000
vt 0.550000 1.150000
vt 0.850000 1.450000
vt 0.550000 0.850000
vt 1.013101 0.550000
vt 1.450000 0.550000
vt 1.450000 0.850000
vt 1.013100 0.550000
vt 1.450000 0.550000
vt 1.013100 0.550000
vt 1.150000 1.450000
vt 1.450000 0.850000
vt 1.450000 0.550000
vt 0.550000 0.550000
vt 0.550000 0.550000
vt 0.550000 0.550000
vn 0.4208 -0.0909 0.9026
vn 0.7833 -0.4694 -0.4075
vn 0.7445 -0.4731 0.4711
vn 0.4555 0.3206 0.8305
vn -0.4766 0.5057 0.7191
vn -0.8904 -0.4155 0.1861
vn -0.7152 0.5964 0.3643
vn -0.4074 -0.3650 0.8371
vn 0.0451 -0.9880 0.1476
vn 0.7800 -0.1687 -0.6027
vn 0.1066 0.6439 -0.7576
vn 0.9009 0.4045 -0.1574
vn 0.2644 -0.3313 0.9057
vn 0.6191 0.7851 -0.0174
vn 0.3027 -0.8500 0.4312
vn -0.8502 0.4851 0.2045
vn -0.9937 -0.0173 0.1106
vn 0.0633 0.3557 0.9325
vn -0.5282 0.6055 -0.5954
vn -0.7042 0.3935 0.5909
vn 0.1534 0.9616 0.2276
vn 0.1490 0.1977 -0.9689
vn -0.6460 0.7624 0.0370
vn 0.1297 0.3395 -0.9316
vn 0.0557 -0.3285 -0.9429
vn -0.8651 -0.0422 -0.4999
vn -0.2678 0.6504 0.7108
vn 0.4861 0.8018 -0.3476
vn 0.0188 0.6247 -0.7806
vn -0.3615 -0.0157 0.9322
vn -0.3954 0.4858 -0.7795
vn -0.2653 0.1902 0.9452
vn -0.6378 0.0670 0.7673
vn 0.4775 0.8317 0.2833
vn 0.5333 0.8365 0.1260
vn 0.4098 0.8975 0.1632
vn 0.3337 0.8628 0.3799
vn 0.3380 0.9039 0.2620
vn 0.3973 0.7294 0.5568
vn 0.7109 0.6775 0.1888
vn 0.0215 0.9476 -0.3188
vn 0.1937 0.9392 -0.2836
vn 0.2515 0.8388 -0.4829
vn 0.1147 0.9744 -0.1934
vn -0.1271 0.9614 -0.2439
vn -0.0054 0.9849 -0.1731
vn -0.3827 0.9239 -0.0026
vn -0.3444 0.9204 0.1849
vn -0.1742 0.9844 -0.0233
vn -0.3971 0.8878 -0.2324
vn -0.2026 0.9690 -0.1413
vn -0.4909 0.8127 -0.3138
vn -0.4191 0.9079 -0.0071
vn -0.4241 0.8316 0.3587
vn 0.5217 0.8169 0.2459
vn 0.7800 0.5695 -0.2596
vn 0.6028 0.7882 0.1239
vn 0.5598 0.7653 0.3176
vn 0.6147 0.7542 0.2310
vn 0.4459 0.8682 0.2177
vn -0.8512 0.2751 -0.4469
vn -0.9813 0.1273 -0.1442
vn -0.8530 0.3131 -0.4175
vn -0.7232 0.3456 -0.5979
vn -0.6675 0.2575 -0.6987
vn -0.8022 0.4990 -0.3278
vn -0.7443 0.5064 -0.4353
vn -0.9270 0.2875 -0.2410
vn -0.8379 0.5445 0.0368
vn -0.8263 0.5256 0.2023
vn -0.7618 0.6336 0.1350
vn -0.7672 0.6339 -0.0973
vn -0.7423 0.6698 0.0198
vn -0.8347 0.4854 -0.2601
vn 0.5954 0.6855 0.4190
vn 0.8647 0.4566 0.2092
vn -0.2324 0.8650 -0.4447
vn 0.0108 0.8490 -0.5283
vn -0.3627 0.7005 -0.6146
vn -0.9297 0.3613 -0.0712
vn 0.3220 0.9353 0.1465
vn -0.9350 0.3055 0.1803
vn -0.9830 0.0398 0.1794
vn 0.4156 0.5234 0.7439
vn 0.3347 0.6561 -0.6764
vn -0.8391 0.2907 -0.4597
FE3D_PART trunk
FE3D_DIFFUSE_MAP trees\tree_lowpoly_trunk.png
s 1
f 86/1/1 85/2/2 84/3/3
f 87/4/4 86/1/1 84/3/3
f 85/5/2 87/4/4 84/3/3
f 93/6/5 88/7/6 91/8/7
f 90/9/8 91/8/7 89/10/9
f 90/9/8 89/11/9 86/1/1
f 91/8/7 88/12/6 89/10/9
f 86/1/1 87/4/4 93/6/5
f 95/13/10 97/14/11 99/15/12
f 95/13/10 99/15/12 94/16/13
f 98/17/14 94/16/13 99/15/12
f 101/18/15 94/19/13 100/20/16
f 100/21/16 96/22/17 102/23/18
f 97/24/11 105/25/19 96/26/17
f 105/25/19 97/27/11 95/28/10
f 100/29/16 94/16/13 106/30/20
f 104/31/21 103/32/22 106/33/20
f 103/34/22 107/35/23 106/30/20
f 94/16/13 96/22/17 93/6/5
f 87/4/4 95/13/10 94/16/13
f 95/13/10 83/36/24 96/37/17
f 107/38/23 100/29/16 106/30/20
f 103/39/22 98/17/14 97/40/11
f 82/41/25 92/42/26 83/43/24
f 83/36/24 85/5/2 82/44/25
f 92/42/26 89/45/9 88/7/6
f 93/6/5 92/42/26 88/7/6
f 90/9/8 93/6/5 91/8/7
f 86/1/1 93/6/5 90/9/8
f 92/42/26 82/41/25 89/45/9
f 82/46/25 85/2/2 89/47/9
f 96/26/17 100/29/16 97/24/11
f 97/14/11 98/48/14 99/15/12
f 101/18/15 96/22/17 94/16/13
f 102/23/18 96/22/17 101/18/15
f 102/23/18 101/18/15 100/20/16
f 104/49/21 94/16/13 98/17/14
f 95/28/10 96/22/17 105/25/19
f 104/49/21 106/30/20 94/16/13
f 103/32/22 97/24/11 100/29/16
f 103/32/22 100/29/16 107/38/23
f 86/1/1 89/47/9 85/2/2
f 96/22/17 83/43/24 92/42/26
f 93/6/5 96/22/17 92/42/26
f 93/6/5 87/4/4 94/16/13
f 87/4/4 85/5/2 95/13/10
f 95/13/10 85/5/2 83/36/24
f 103/39/22 104/49/21 98/17/14
FE3D_PART leaves
FE3D_DIFFUSE_MAP trees\tree_lowpoly_leaves.png
s off
f 3/50/27 1/51/27 2/52/27
f 5/53/28 7/54/28 8/55/28
f 12/56/29 10/57/29 11/58/29
f 15/59/30 13/60/30 14/61/30
f 17/62/31 19/63/31 20/64/31
f 23/65/32 21/66/32 22/67/32
f 25/68/33 27/69/33 28/70/33
f 3/50/27 4/71/27 1/51/27
f 5/53/28 6/72/28 7/54/28
f 12/56/29 9/73/29 10/57/29
f 15/59/30 16/74/30 13/60/30
f 17/62/31 18/75/31 19/63/31
f 23/65/32 24/76/32 21/66/32
f 25/68/33 26/77/33 27/69/33
s 1
f 34/78/34 29/79/35 30/80/36
f 31/81/37 34/78/34 32/82/38
f 34/78/34 31/81/37 33/83/39
f 29/79/35 34/78/34 35/84/40
f 42/85/41 46/86/42 44/87/43
f 46/86/42 42/85/41 48/88/44
f 42/85/41 45/89/45 47/90/46
f 49/91/47 50/92/48 51/93/49
f 52/94/50 49/91/47 53/95/51
f 49/91/47 52/94/50 54/96/52
f 56/97/53 55/98/54 49/91/47
f 57/99/55 58/100/56 60/101/57
f 59/102/58 60/101/57 61/103/59
f 61/103/59 60/101/57 63/104/60
f 64/105/61 65/106/62 66/107/63
f 66/107/63 69/108/64 67/109/65
f 66/107/63 70/110/66 71/111/67
f 69/108/64 66/107/63 71/111/67
f 66/107/63 68/112/68 70/110/66
f 72/113/69 73/114/70 74/115/71
f 75/116/72 72/113/69 76/117/73
f 77/118/74 72/113/69 75/116/72
f 33/83/39 37/119/75 34/78/34
f 34/78/34 30/80/36 32/82/38
f 35/84/40 37/119/75 38/120/76
f 41/121/77 39/122/78 40/123/79
f 44/87/43 39/122/78 42/85/41
f 77/118/74 80/124/80 72/113/69
f 41/121/77 45/89/45 42/85/41
f 42/85/41 47/90/46 48/88/44
f 49/91/47 51/93/49 53/95/51
f 49/91/47 55/98/54 50/92/48
f 56/97/53 49/91/47 54/96/52
f 57/99/55 60/101/57 59/102/58
f 60/101/57 62/125/81 63/104/60
f 64/105/61 66/107/63 67/109/65
f 65/106/62 68/112/68 66/107/63
f 72/113/69 74/115/71 76/117/73
f 72/113/69 78/126/82 73/114/70
f 78/126/82 80/124/80 81/127/83
f 33/83/39 36/128/84 37/119/75
f 35/84/40 34/78/34 37/119/75
f 41/121/77 42/85/41 39/122/78
f 44/87/43 43/129/85 39/122/78
f 77/118/74 79/130/86 80/124/80
f 78/126/82 72/113/69 80/124/80
