# Blender v2.79 (sub 0) OBJ File: ''
# www.blender.org
o Palette
v -0.125000 2.923682 -1.500000
v 0.125000 2.923682 -1.500000
v -0.125000 2.773682 -1.500000
v 0.125000 2.773682 -1.500000
v -0.125000 2.773682 1.500000
v 0.125000 2.773682 1.500000
v -0.125000 2.923682 1.500000
v 0.125000 2.923682 1.500000
v 0.125000 2.773682 -1.500000
v 0.125000 2.773682 1.500000
v -0.125000 2.773682 -1.500000
v -0.125000 2.773682 1.500000
v 0.125000 2.923682 -1.500000
v 0.125000 2.923682 1.500000
v 0.125000 2.773682 -1.500000
v 0.125000 2.773682 1.500000
v -0.125000 2.923682 -1.500000
v -0.125000 2.923682 1.500000
v 0.125000 2.923682 -1.500000
v 0.125000 2.923682 1.500000
v -0.125000 2.773682 -1.500000
v -0.125000 2.773682 1.500000
v -0.125000 2.923682 -1.500000
v -0.125000 2.923682 1.500000
v -0.125000 1.038801 -1.500000
v 0.125000 1.038801 -1.500000
v -0.125000 0.888801 -1.500000
v 0.125000 0.888801 -1.500000
v -0.125000 0.888801 1.500000
v 0.125000 0.888801 1.500000
v -0.125000 1.038801 1.500000
v 0.125000 1.038801 1.500000
v 0.125000 0.888801 -1.500000
v 0.125000 0.888801 1.500000
v -0.125000 0.888801 -1.500000
v -0.125000 0.888801 1.500000
v 0.125000 1.038801 -1.500000
v 0.125000 1.038801 1.500000
v 0.125000 0.888801 -1.500000
v 0.125000 0.888801 1.500000
v -0.125000 1.038801 -1.500000
v -0.125000 1.038801 1.500000
v 0.125000 1.038801 -1.500000
v 0.125000 1.038801 1.500000
v -0.125000 0.888801 -1.500000
v -0.125000 0.888801 1.500000
v -0.125000 1.038801 -1.500000
v -0.125000 1.038801 1.500000
v 0.125000 0.493379 -0.425000
v 0.000000 0.493379 -0.250000
v 0.000000 -0.006876 -0.425000
v 0.000000 -0.006876 -0.425000
v -0.125000 0.493379 -0.425000
v 0.000000 0.493379 -0.600000
v 0.000000 0.493379 -0.600000
v 0.125000 0.493379 -0.425000
v 0.000000 -0.006876 -0.425000
v 0.000000 -0.006876 -0.425000
v 0.000000 0.493379 -0.250000
v -0.125000 0.493379 -0.425000
v -0.125000 0.493379 -0.425000
v -0.053571 0.714507 -0.425000
v 0.000000 0.493379 -0.600000
v 0.000000 0.714507 -0.500000
v 0.000000 0.493379 -0.600000
v 0.000000 0.714507 -0.500000
v 0.125000 0.493379 -0.425000
v 0.053571 0.714507 -0.425000
v 0.125000 0.493379 -0.425000
v 0.053571 0.714507 -0.425000
v 0.000000 0.493379 -0.250000
v 0.000000 0.714507 -0.350000
v 0.000000 0.493379 -0.250000
v 0.000000 0.714507 -0.350000
v -0.125000 0.493379 -0.425000
v -0.053571 0.714507 -0.425000
v -0.053571 0.714507 -0.425000
v -0.053571 3.927533 -0.425000
v 0.000000 0.714507 -0.500000
v 0.000000 3.927533 -0.500000
v 0.000000 0.714507 -0.500000
v 0.000000 3.927533 -0.500000
v 0.053571 0.714507 -0.425000
v 0.053571 3.927533 -0.425000
v 0.053571 0.714507 -0.425000
v 0.053571 3.927533 -0.425000
v 0.000000 0.714507 -0.350000
v 0.000000 3.927533 -0.350000
v 0.000000 0.714507 -0.350000
v 0.000000 3.927533 -0.350000
v -0.053571 0.714507 -0.425000
v -0.053571 3.927533 -0.425000
v 0.125000 0.493379 -0.850000
v 0.000000 0.493379 -0.675000
v 0.000000 -0.006876 -0.850000
v 0.000000 -0.006876 -0.850000
v -0.125000 0.493379 -0.850000
v 0.000000 0.493379 -1.025000
v 0.000000 0.493379 -1.025000
v 0.125000 0.493379 -0.850000
v 0.000000 -0.006876 -0.850000
v 0.000000 -0.006876 -0.850000
v 0.000000 0.493379 -0.675000
v -0.125000 0.493379 -0.850000
v -0.125000 0.493379 -0.850000
v -0.053571 0.714507 -0.850000
v 0.000000 0.493379 -1.025000
v 0.000000 0.714507 -0.925000
v 0.000000 0.493379 -1.025000
v 0.000000 0.714507 -0.925000
v 0.125000 0.493379 -0.850000
v 0.053571 0.714507 -0.850000
v 0.125000 0.493379 -0.850000
v 0.053571 0.714507 -0.850000
v 0.000000 0.493379 -0.675000
v 0.000000 0.714507 -0.775000
v 0.000000 0.493379 -0.675000
v 0.000000 0.714507 -0.775000
v -0.125000 0.493379 -0.850000
v -0.053571 0.714507 -0.850000
v -0.053571 0.714507 -0.850000
v -0.053571 3.807388 -0.850000
v 0.000000 0.714507 -0.925000
v 0.000000 3.807388 -0.925000
v 0.000000 0.714507 -0.925000
v 0.000000 3.807388 -0.925000
v 0.053571 0.714507 -0.850000
v 0.053571 3.807388 -0.850000
v 0.053571 0.714507 -0.850000
v 0.053571 3.807388 -0.850000
v 0.000000 0.714507 -0.775000
v 0.000000 3.807388 -0.775000
v 0.000000 0.714507 -0.775000
v 0.000000 3.807388 -0.775000
v -0.053571 0.714507 -0.850000
v -0.053571 3.807388 -0.850000
v 0.125000 0.493379 -1.250000
v 0.000000 0.493379 -1.075000
v 0.000000 -0.006876 -1.250000
v 0.000000 -0.006876 -1.250000
v -0.125000 0.493379 -1.250000
v 0.000000 0.493379 -1.425000
v 0.000000 0.493379 -1.425000
v 0.125000 0.493379 -1.250000
v 0.000000 -0.006876 -1.250000
v 0.000000 -0.006876 -1.250000
v 0.000000 0.493379 -1.075000
v -0.125000 0.493379 -1.250000
v -0.125000 0.493379 -1.250000
v -0.053571 0.714507 -1.250000
v 0.000000 0.493379 -1.425000
v 0.000000 0.714507 -1.325000
v 0.000000 0.493379 -1.425000
v 0.000000 0.714507 -1.325000
v 0.125000 0.493379 -1.250000
v 0.053571 0.714507 -1.250000
v 0.125000 0.493379 -1.250000
v 0.053571 0.714507 -1.250000
v 0.000000 0.493379 -1.075000
v 0.000000 0.714507 -1.175000
v 0.000000 0.493379 -1.075000
v 0.000000 0.714507 -1.175000
v -0.125000 0.493379 -1.250000
v -0.053571 0.714507 -1.250000
v -0.053571 0.714507 -1.250000
v -0.053571 3.580166 -1.250000
v 0.000000 0.714507 -1.325000
v 0.000000 3.580166 -1.325000
v 0.000000 0.714507 -1.325000
v 0.000000 3.580166 -1.325000
v 0.053571 0.714507 -1.250000
v 0.053571 3.580166 -1.250000
v 0.053571 0.714507 -1.250000
v 0.053571 3.580166 -1.250000
v 0.000000 0.714507 -1.175000
v 0.000000 3.580166 -1.175000
v 0.000000 0.714507 -1.175000
v 0.000000 3.580166 -1.175000
v -0.053571 0.714507 -1.250000
v -0.053571 3.580166 -1.250000
v 0.000000 0.493379 -0.175000
v 0.125000 0.493379 -0.000000
v 0.000000 -0.006876 -0.000000
v -0.125000 0.493379 -0.000000
v 0.000000 -0.006876 -0.000000
v 0.000000 0.493379 0.175000
v 0.125000 0.493379 -0.000000
v 0.000000 0.493379 0.175000
v 0.000000 -0.006876 -0.000000
v 0.000000 0.493379 -0.175000
v 0.000000 -0.006876 -0.000000
v -0.125000 0.493379 -0.000000
v -0.053571 0.714507 -0.000000
v -0.125000 0.493379 -0.000000
v 0.000000 0.714507 0.075000
v 0.000000 0.493379 0.175000
v 0.000000 0.714507 0.075000
v 0.000000 0.493379 0.175000
v 0.053571 0.714507 -0.000000
v 0.125000 0.493379 -0.000000
v 0.053571 0.714507 -0.000000
v 0.125000 0.493379 -0.000000
v 0.000000 0.714507 -0.075000
v 0.000000 0.493379 -0.175000
v 0.000000 0.714507 -0.075000
v 0.000000 0.493379 -0.175000
v -0.053571 0.714507 -0.000000
v -0.125000 0.493379 -0.000000
v -0.053571 4.006876 0.000000
v -0.053571 0.714507 -0.000000
v 0.000000 4.006876 0.075000
v 0.000000 0.714507 0.075000
v 0.000000 4.006876 0.075000
v 0.000000 0.714507 0.075000
v 0.053571 4.006876 0.000000
v 0.053571 0.714507 -0.000000
v 0.053571 4.006876 0.000000
v 0.053571 0.714507 -0.000000
v 0.000000 4.006876 -0.075000
v 0.000000 0.714507 -0.075000
v 0.000000 4.006876 -0.075000
v 0.000000 0.714507 -0.075000
v -0.053571 4.006876 0.000000
v -0.053571 0.714507 -0.000000
v 0.000000 0.493379 0.250000
v 0.125000 0.493379 0.425000
v 0.000000 -0.006876 0.425000
v -0.125000 0.493379 0.425000
v 0.000000 -0.006876 0.425000
v 0.000000 0.493379 0.600000
v 0.125000 0.493379 0.425000
v 0.000000 0.493379 0.600000
v 0.000000 -0.006876 0.425000
v 0.000000 0.493379 0.250000
v 0.000000 -0.006876 0.425000
v -0.125000 0.493379 0.425000
v -0.053571 0.714507 0.425000
v -0.125000 0.493379 0.425000
v 0.000000 0.714507 0.500000
v 0.000000 0.493379 0.600000
v 0.000000 0.714507 0.500000
v 0.000000 0.493379 0.600000
v 0.053571 0.714507 0.425000
v 0.125000 0.493379 0.425000
v 0.053571 0.714507 0.425000
v 0.125000 0.493379 0.425000
v 0.000000 0.714507 0.350000
v 0.000000 0.493379 0.250000
v 0.000000 0.714507 0.350000
v 0.000000 0.493379 0.250000
v -0.053571 0.714507 0.425000
v -0.125000 0.493379 0.425000
v -0.053571 3.927533 0.425000
v -0.053571 0.714507 0.425000
v 0.000000 3.927533 0.500000
v 0.000000 0.714507 0.500000
v 0.000000 3.927533 0.500000
v 0.000000 0.714507 0.500000
v 0.053571 3.927533 0.425000
v 0.053571 0.714507 0.425000
v 0.053571 3.927533 0.425000
v 0.053571 0.714507 0.425000
v 0.000000 3.927533 0.350000
v 0.000000 0.714507 0.350000
v 0.000000 3.927533 0.350000
v 0.000000 0.714507 0.350000
v -0.053571 3.927533 0.425000
v -0.053571 0.714507 0.425000
v 0.000000 0.493379 0.675000
v 0.125000 0.493379 0.850000
v 0.000000 -0.006876 0.850000
v -0.125000 0.493379 0.850000
v 0.000000 -0.006876 0.850000
v 0.000000 0.493379 1.025000
v 0.125000 0.493379 0.850000
v 0.000000 0.493379 1.025000
v 0.000000 -0.006876 0.850000
v 0.000000 0.493379 0.675000
v 0.000000 -0.006876 0.850000
v -0.125000 0.493379 0.850000
v -0.053571 0.714507 0.850000
v -0.125000 0.493379 0.850000
v 0.000000 0.714507 0.925000
v 0.000000 0.493379 1.025000
v 0.000000 0.714507 0.925000
v 0.000000 0.493379 1.025000
v 0.053571 0.714507 0.850000
v 0.125000 0.493379 0.850000
v 0.053571 0.714507 0.850000
v 0.125000 0.493379 0.850000
v 0.000000 0.714507 0.775000
v 0.000000 0.493379 0.675000
v 0.000000 0.714507 0.775000
v 0.000000 0.493379 0.675000
v -0.053571 0.714507 0.850000
v -0.125000 0.493379 0.850000
v -0.053571 3.807388 0.850000
v -0.053571 0.714507 0.850000
v 0.000000 3.807388 0.925000
v 0.000000 0.714507 0.925000
v 0.000000 3.807388 0.925000
v 0.000000 0.714507 0.925000
v 0.053571 3.807388 0.850000
v 0.053571 0.714507 0.850000
v 0.053571 3.807388 0.850000
v 0.053571 0.714507 0.850000
v 0.000000 3.807388 0.775000
v 0.000000 0.714507 0.775000
v 0.000000 3.807388 0.775000
v 0.000000 0.714507 0.775000
v -0.053571 3.807388 0.850000
v -0.053571 0.714507 0.850000
v 0.000000 0.493379 1.075000
v 0.125000 0.493379 1.250000
v 0.000000 -0.006876 1.250000
v -0.125000 0.493379 1.250000
v 0.000000 -0.006876 1.250000
v 0.000000 0.493379 1.425000
v 0.125000 0.493379 1.250000
v 0.000000 0.493379 1.425000
v 0.000000 -0.006876 1.250000
v 0.000000 0.493379 1.075000
v 0.000000 -0.006876 1.250000
v -0.125000 0.493379 1.250000
v -0.053571 0.714507 1.250000
v -0.125000 0.493379 1.250000
v 0.000000 0.714507 1.325000
v 0.000000 0.493379 1.425000
v 0.000000 0.714507 1.325000
v 0.000000 0.493379 1.425000
v 0.053571 0.714507 1.250000
v 0.125000 0.493379 1.250000
v 0.053571 0.714507 1.250000
v 0.125000 0.493379 1.250000
v 0.000000 0.714507 1.175000
v 0.000000 0.493379 1.075000
v 0.000000 0.714507 1.175000
v 0.000000 0.493379 1.075000
v -0.053571 0.714507 1.250000
v -0.125000 0.493379 1.250000
v -0.053571 3.580166 1.250000
v -0.053571 0.714507 1.250000
v 0.000000 3.580166 1.325000
v 0.000000 0.714507 1.325000
v 0.000000 3.580166 1.325000
v 0.000000 0.714507 1.325000
v 0.053571 3.580166 1.250000
v 0.053571 0.714507 1.250000
v 0.053571 3.580166 1.250000
v 0.053571 0.714507 1.250000
v 0.000000 3.580166 1.175000
v 0.000000 0.714507 1.175000
v 0.000000 3.580166 1.175000
v 0.000000 0.714507 1.175000
v -0.053571 3.580166 1.250000
v -0.053571 0.714507 1.250000
vt 0.946398 0.768089
vt 0.948938 0.768089
vt 0.946398 0.768089
vt 0.948938 0.768089
vt 0.946398 0.737610
vt 0.948938 0.737610
vt 0.946398 0.737610
vt 0.948938 0.737610
vt 0.948938 0.768089
vt 0.948938 0.737610
vt 0.946398 0.768089
vt 0.946398 0.737610
vt 0.948938 0.768089
vt 0.948938 0.737610
vt 0.948938 0.768089
vt 0.948938 0.737610
vt 0.946398 0.768089
vt 0.946398 0.737610
vt 0.948938 0.768089
vt 0.948938 0.737610
vt 0.946398 0.768089
vt 0.946398 0.737610
vt 0.946398 0.768089
vt 0.946398 0.737610
vt 0.946398 0.768089
vt 0.948938 0.768089
vt 0.946398 0.768089
vt 0.948938 0.768089
vt 0.946398 0.737610
vt 0.948938 0.737610
vt 0.946398 0.737610
vt 0.948938 0.737610
vt 0.948938 0.768089
vt 0.948938 0.737610
vt 0.946398 0.768089
vt 0.946398 0.737610
vt 0.948938 0.768089
vt 0.948938 0.737610
vt 0.948938 0.768089
vt 0.948938 0.737610
vt 0.946398 0.768089
vt 0.946398 0.737610
vt 0.948938 0.768089
vt 0.948938 0.737610
vt 0.946398 0.768089
vt 0.946398 0.737610
vt 0.946398 0.768089
vt 0.946398 0.737610
vt 0.948938 0.757168
vt 0.947668 0.755390
vt 0.947668 0.757168
vt 0.947668 0.757168
vt 0.946398 0.757168
vt 0.947668 0.758945
vt 0.947668 0.758945
vt 0.948938 0.757168
vt 0.947668 0.757168
vt 0.947668 0.757168
vt 0.947668 0.755390
vt 0.946398 0.757168
vt 0.946398 0.757168
vt 0.947124 0.757168
vt 0.947668 0.758945
vt 0.947668 0.757929
vt 0.947668 0.758945
vt 0.947668 0.757929
vt 0.948938 0.757168
vt 0.948213 0.757168
vt 0.948938 0.757168
vt 0.948213 0.757168
vt 0.947668 0.755390
vt 0.947668 0.756406
vt 0.947668 0.755390
vt 0.947668 0.756406
vt 0.946398 0.757168
vt 0.947124 0.757168
vt 0.947124 0.757168
vt 0.947124 0.757168
vt 0.947668 0.757929
vt 0.947668 0.757929
vt 0.947668 0.757929
vt 0.947668 0.757929
vt 0.948213 0.757168
vt 0.948213 0.757168
vt 0.948213 0.757168
vt 0.948213 0.757168
vt 0.947668 0.756406
vt 0.947668 0.756406
vt 0.947668 0.756406
vt 0.947668 0.756406
vt 0.947124 0.757168
vt 0.947124 0.757168
vt 0.948938 0.761485
vt 0.947668 0.759707
vt 0.947668 0.761485
vt 0.947668 0.761485
vt 0.946398 0.761485
vt 0.947668 0.763263
vt 0.947668 0.763263
vt 0.948938 0.761485
vt 0.947668 0.761485
vt 0.947668 0.761485
vt 0.947668 0.759707
vt 0.946398 0.761485
vt 0.946398 0.761485
vt 0.947124 0.761485
vt 0.947668 0.763263
vt 0.947668 0.762247
vt 0.947668 0.763263
vt 0.947668 0.762247
vt 0.948938 0.761485
vt 0.948213 0.761485
vt 0.948938 0.761485
vt 0.948213 0.761485
vt 0.947668 0.759707
vt 0.947668 0.760723
vt 0.947668 0.759707
vt 0.947668 0.760723
vt 0.946398 0.761485
vt 0.947124 0.761485
vt 0.947124 0.761485
vt 0.947124 0.761485
vt 0.947668 0.762247
vt 0.947668 0.762247
vt 0.947668 0.762247
vt 0.947668 0.762247
vt 0.948213 0.761485
vt 0.948213 0.761485
vt 0.948213 0.761485
vt 0.948213 0.761485
vt 0.947668 0.760723
vt 0.947668 0.760723
vt 0.947668 0.760723
vt 0.947668 0.760723
vt 0.947124 0.761485
vt 0.947124 0.761485
vt 0.948938 0.765549
vt 0.947668 0.763771
vt 0.947668 0.765549
vt 0.947668 0.765549
vt 0.946398 0.765549
vt 0.947668 0.767327
vt 0.947668 0.767327
vt 0.948938 0.765549
vt 0.947668 0.765549
vt 0.947668 0.765549
vt 0.947668 0.763771
vt 0.946398 0.765549
vt 0.946398 0.765549
vt 0.947124 0.765549
vt 0.947668 0.767327
vt 0.947668 0.766311
vt 0.947668 0.767327
vt 0.947668 0.766311
vt 0.948938 0.765549
vt 0.948213 0.765549
vt 0.948938 0.765549
vt 0.948213 0.765549
vt 0.947668 0.763771
vt 0.947668 0.764787
vt 0.947668 0.763771
vt 0.947668 0.764787
vt 0.946398 0.765549
vt 0.947124 0.765549
vt 0.947124 0.765549
vt 0.947124 0.765549
vt 0.947668 0.766311
vt 0.947668 0.766311
vt 0.947668 0.766311
vt 0.947668 0.766311
vt 0.948213 0.765549
vt 0.948213 0.765549
vt 0.948213 0.765549
vt 0.948213 0.765549
vt 0.947668 0.764787
vt 0.947668 0.764787
vt 0.947668 0.764787
vt 0.947668 0.764787
vt 0.947124 0.765549
vt 0.947124 0.765549
vt 0.947668 0.754628
vt 0.948938 0.752850
vt 0.947668 0.752850
vt 0.946398 0.752850
vt 0.947668 0.752850
vt 0.947668 0.751072
vt 0.948938 0.752850
vt 0.947668 0.751072
vt 0.947668 0.752850
vt 0.947668 0.754628
vt 0.947668 0.752850
vt 0.946398 0.752850
vt 0.947124 0.752850
vt 0.946398 0.752850
vt 0.947668 0.752088
vt 0.947668 0.751072
vt 0.947668 0.752088
vt 0.947668 0.751072
vt 0.948213 0.752850
vt 0.948938 0.752850
vt 0.948213 0.752850
vt 0.948938 0.752850
vt 0.947668 0.753612
vt 0.947668 0.754628
vt 0.947668 0.753612
vt 0.947668 0.754628
vt 0.947124 0.752850
vt 0.946398 0.752850
vt 0.947124 0.752850
vt 0.947124 0.752850
vt 0.947668 0.752088
vt 0.947668 0.752088
vt 0.947668 0.752088
vt 0.947668 0.752088
vt 0.948213 0.752850
vt 0.948213 0.752850
vt 0.948213 0.752850
vt 0.948213 0.752850
vt 0.947668 0.753612
vt 0.947668 0.753612
vt 0.947668 0.753612
vt 0.947668 0.753612
vt 0.947124 0.752850
vt 0.947124 0.752850
vt 0.947668 0.750310
vt 0.948938 0.748532
vt 0.947668 0.748532
vt 0.946398 0.748532
vt 0.947668 0.748532
vt 0.947668 0.746754
vt 0.948938 0.748532
vt 0.947668 0.746754
vt 0.947668 0.748532
vt 0.947668 0.750310
vt 0.947668 0.748532
vt 0.946398 0.748532
vt 0.947124 0.748532
vt 0.946398 0.748532
vt 0.947668 0.747770
vt 0.947668 0.746754
vt 0.947668 0.747770
vt 0.947668 0.746754
vt 0.948213 0.748532
vt 0.948938 0.748532
vt 0.948213 0.748532
vt 0.948938 0.748532
vt 0.947668 0.749294
vt 0.947668 0.750310
vt 0.947668 0.749294
vt 0.947668 0.750310
vt 0.947124 0.748532
vt 0.946398 0.748532
vt 0.947124 0.748532
vt 0.947124 0.748532
vt 0.947668 0.747770
vt 0.947668 0.747770
vt 0.947668 0.747770
vt 0.947668 0.747770
vt 0.948213 0.748532
vt 0.948213 0.748532
vt 0.948213 0.748532
vt 0.948213 0.748532
vt 0.947668 0.749294
vt 0.947668 0.749294
vt 0.947668 0.749294
vt 0.947668 0.749294
vt 0.947124 0.748532
vt 0.947124 0.748532
vt 0.947668 0.745992
vt 0.948938 0.744214
vt 0.947668 0.744214
vt 0.946398 0.744214
vt 0.947668 0.744214
vt 0.947668 0.742436
vt 0.948938 0.744214
vt 0.947668 0.742436
vt 0.947668 0.744214
vt 0.947668 0.745992
vt 0.947668 0.744214
vt 0.946398 0.744214
vt 0.947124 0.744214
vt 0.946398 0.744214
vt 0.947668 0.743452
vt 0.947668 0.742436
vt 0.947668 0.743452
vt 0.947668 0.742436
vt 0.948213 0.744214
vt 0.948938 0.744214
vt 0.948213 0.744214
vt 0.948938 0.744214
vt 0.947668 0.744976
vt 0.947668 0.745992
vt 0.947668 0.744976
vt 0.947668 0.745992
vt 0.947124 0.744214
vt 0.946398 0.744214
vt 0.947124 0.744214
vt 0.947124 0.744214
vt 0.947668 0.743452
vt 0.947668 0.743452
vt 0.947668 0.743452
vt 0.947668 0.743452
vt 0.948213 0.744214
vt 0.948213 0.744214
vt 0.948213 0.744214
vt 0.948213 0.744214
vt 0.947668 0.744976
vt 0.947668 0.744976
vt 0.947668 0.744976
vt 0.947668 0.744976
vt 0.947124 0.744214
vt 0.947124 0.744214
vt 0.947668 0.741928
vt 0.948938 0.740150
vt 0.947668 0.740150
vt 0.946398 0.740150
vt 0.947668 0.740150
vt 0.947668 0.738372
vt 0.948938 0.740150
vt 0.947668 0.738372
vt 0.947668 0.740150
vt 0.947668 0.741928
vt 0.947668 0.740150
vt 0.946398 0.740150
vt 0.947124 0.740150
vt 0.946398 0.740150
vt 0.947668 0.739388
vt 0.947668 0.738372
vt 0.947668 0.739388
vt 0.947668 0.738372
vt 0.948213 0.740150
vt 0.948938 0.740150
vt 0.948213 0.740150
vt 0.948938 0.740150
vt 0.947668 0.740912
vt 0.947668 0.741928
vt 0.947668 0.740912
vt 0.947668 0.741928
vt 0.947124 0.740150
vt 0.946398 0.740150
vt 0.947124 0.740150
vt 0.947124 0.740150
vt 0.947668 0.739388
vt 0.947668 0.739388
vt 0.947668 0.739388
vt 0.947668 0.739388
vt 0.948213 0.740150
vt 0.948213 0.740150
vt 0.948213 0.740150
vt 0.948213 0.740150
vt 0.947668 0.740912
vt 0.947668 0.740912
vt 0.947668 0.740912
vt 0.947668 0.740912
vt 0.947124 0.740150
vt 0.947124 0.740150
vn 0.0000 0.0000 -1.0000
vn 0.0000 0.0000 1.0000
vn 0.0000 -1.0000 -0.0000
vn 1.0000 0.0000 0.0000
vn 0.0000 1.0000 0.0000
vn -1.0000 0.0000 0.0000
vn 0.7974 -0.1993 0.5696
vn -0.7974 -0.1993 -0.5696
vn 0.7974 -0.1993 -0.5696
vn -0.7974 -0.1993 0.5696
vn -0.7870 0.2542 -0.5621
vn 0.7870 0.2542 -0.5621
vn 0.7870 0.2542 0.5621
vn -0.7870 0.2542 0.5621
vn -0.8137 0.0000 -0.5812
vn 0.8137 0.0000 -0.5812
vn 0.8137 -0.0000 0.5812
vn -0.8137 -0.0000 0.5812
s 1
f 1/1/1 2/2/1 3/3/1
f 3/3/1 2/2/1 4/4/1
f 5/5/2 6/6/2 7/7/2
f 7/7/2 6/6/2 8/8/2
f 9/9/3 10/10/3 11/11/3
f 11/11/3 10/10/3 12/12/3
f 13/13/4 14/14/4 15/15/4
f 15/15/4 14/14/4 16/16/4
f 17/17/5 18/18/5 19/19/5
f 19/19/5 18/18/5 20/20/5
f 21/21/6 22/22/6 23/23/6
f 23/23/6 22/22/6 24/24/6
f 25/25/1 26/26/1 27/27/1
f 27/27/1 26/26/1 28/28/1
f 29/29/2 30/30/2 31/31/2
f 31/31/2 30/30/2 32/32/2
f 33/33/3 34/34/3 35/35/3
f 35/35/3 34/34/3 36/36/3
f 37/37/4 38/38/4 39/39/4
f 39/39/4 38/38/4 40/40/4
f 41/41/5 42/42/5 43/43/5
f 43/43/5 42/42/5 44/44/5
f 45/45/6 46/46/6 47/47/6
f 47/47/6 46/46/6 48/48/6
f 49/49/7 50/50/7 51/51/7
f 52/52/8 53/53/8 54/54/8
f 55/55/9 56/56/9 57/57/9
f 58/58/10 59/59/10 60/60/10
f 61/61/11 62/62/11 63/63/11
f 63/63/11 62/62/11 64/64/11
f 65/65/12 66/66/12 67/67/12
f 67/67/12 66/66/12 68/68/12
f 69/69/13 70/70/13 71/71/13
f 71/71/13 70/70/13 72/72/13
f 73/73/14 74/74/14 75/75/14
f 75/75/14 74/74/14 76/76/14
f 77/77/15 78/78/15 79/79/15
f 79/79/15 78/78/15 80/80/15
f 81/81/16 82/82/16 83/83/16
f 83/83/16 82/82/16 84/84/16
f 85/85/17 86/86/17 87/87/17
f 87/87/17 86/86/17 88/88/17
f 89/89/18 90/90/18 91/91/18
f 91/91/18 90/90/18 92/92/18
f 93/93/7 94/94/7 95/95/7
f 96/96/8 97/97/8 98/98/8
f 99/99/9 100/100/9 101/101/9
f 102/102/10 103/103/10 104/104/10
f 105/105/11 106/106/11 107/107/11
f 107/107/11 106/106/11 108/108/11
f 109/109/12 110/110/12 111/111/12
f 111/111/12 110/110/12 112/112/12
f 113/113/13 114/114/13 115/115/13
f 115/115/13 114/114/13 116/116/13
f 117/117/14 118/118/14 119/119/14
f 119/119/14 118/118/14 120/120/14
f 121/121/15 122/122/15 123/123/15
f 123/123/15 122/122/15 124/124/15
f 125/125/16 126/126/16 127/127/16
f 127/127/16 126/126/16 128/128/16
f 129/129/17 130/130/17 131/131/17
f 131/131/17 130/130/17 132/132/17
f 133/133/18 134/134/18 135/135/18
f 135/135/18 134/134/18 136/136/18
f 137/137/7 138/138/7 139/139/7
f 140/140/8 141/141/8 142/142/8
f 143/143/9 144/144/9 145/145/9
f 146/146/10 147/147/10 148/148/10
f 149/149/11 150/150/11 151/151/11
f 151/151/11 150/150/11 152/152/11
f 153/153/12 154/154/12 155/155/12
f 155/155/12 154/154/12 156/156/12
f 157/157/13 158/158/13 159/159/13
f 159/159/13 158/158/13 160/160/13
f 161/161/14 162/162/14 163/163/14
f 163/163/14 162/162/14 164/164/14
f 165/165/15 166/166/15 167/167/15
f 167/167/15 166/166/15 168/168/15
f 169/169/16 170/170/16 171/171/16
f 171/171/16 170/170/16 172/172/16
f 173/173/17 174/174/17 175/175/17
f 175/175/17 174/174/17 176/176/17
f 177/177/18 178/178/18 179/179/18
f 179/179/18 178/178/18 180/180/18
f 181/181/9 182/182/9 183/183/9
f 184/184/10 185/185/10 186/186/10
f 187/187/7 188/188/7 189/189/7
f 190/190/8 191/191/8 192/192/8
f 193/193/14 194/194/14 195/195/14
f 195/195/14 194/194/14 196/196/14
f 197/197/13 198/198/13 199/199/13
f 199/199/13 198/198/13 200/200/13
f 201/201/12 202/202/12 203/203/12
f 203/203/12 202/202/12 204/204/12
f 205/205/11 206/206/11 207/207/11
f 207/207/11 206/206/11 208/208/11
f 209/209/18 210/210/18 211/211/18
f 211/211/18 210/210/18 212/212/18
f 213/213/17 214/214/17 215/215/17
f 215/215/17 214/214/17 216/216/17
f 217/217/16 218/218/16 219/219/16
f 219/219/16 218/218/16 220/220/16
f 221/221/15 222/222/15 223/223/15
f 223/223/15 222/222/15 224/224/15
f 225/225/9 226/226/9 227/227/9
f 228/228/10 229/229/10 230/230/10
f 231/231/7 232/232/7 233/233/7
f 234/234/8 235/235/8 236/236/8
f 237/237/14 238/238/14 239/239/14
f 239/239/14 238/238/14 240/240/14
f 241/241/13 242/242/13 243/243/13
f 243/243/13 242/242/13 244/244/13
f 245/245/12 246/246/12 247/247/12
f 247/247/12 246/246/12 248/248/12
f 249/249/11 250/250/11 251/251/11
f 251/251/11 250/250/11 252/252/11
f 253/253/18 254/254/18 255/255/18
f 255/255/18 254/254/18 256/256/18
f 257/257/17 258/258/17 259/259/17
f 259/259/17 258/258/17 260/260/17
f 261/261/16 262/262/16 263/263/16
f 263/263/16 262/262/16 264/264/16
f 265/265/15 266/266/15 267/267/15
f 267/267/15 266/266/15 268/268/15
f 269/269/9 270/270/9 271/271/9
f 272/272/10 273/273/10 274/274/10
f 275/275/7 276/276/7 277/277/7
f 278/278/8 279/279/8 280/280/8
f 281/281/14 282/282/14 283/283/14
f 283/283/14 282/282/14 284/284/14
f 285/285/13 286/286/13 287/287/13
f 287/287/13 286/286/13 288/288/13
f 289/289/12 290/290/12 291/291/12
f 291/291/12 290/290/12 292/292/12
f 293/293/11 294/294/11 295/295/11
f 295/295/11 294/294/11 296/296/11
f 297/297/18 298/298/18 299/299/18
f 299/299/18 298/298/18 300/300/18
f 301/301/17 302/302/17 303/303/17
f 303/303/17 302/302/17 304/304/17
f 305/305/16 306/306/16 307/307/16
f 307/307/16 306/306/16 308/308/16
f 309/309/15 310/310/15 311/311/15
f 311/311/15 310/310/15 312/312/15
f 313/313/9 314/314/9 315/315/9
f 316/316/10 317/317/10 318/318/10
f 319/319/7 320/320/7 321/321/7
f 322/322/8 323/323/8 324/324/8
f 325/325/14 326/326/14 327/327/14
f 327/327/14 326/326/14 328/328/14
f 329/329/13 330/330/13 331/331/13
f 331/331/13 330/330/13 332/332/13
f 333/333/12 334/334/12 335/335/12
f 335/335/12 334/334/12 336/336/12
f 337/337/11 338/338/11 339/339/11
f 339/339/11 338/338/11 340/340/11
f 341/341/18 342/342/18 343/343/18
f 343/343/18 342/342/18 344/344/18
f 345/345/17 346/346/17 347/347/17
f 347/347/17 346/346/17 348/348/17
f 349/349/16 350/350/16 351/351/16
f 351/351/16 350/350/16 352/352/16
f 353/353/15 354/354/15 355/355/15
f 355/355/15 354/354/15 356/356/15
