# Blender v2.77 (sub 0) OBJ File: ''
# www.blender.org
o Plane
v -0.000000 -0.000000 -1.000000
v 0.000000 0.000000 1.000000
v -0.000000 2.000000 -1.000000
v 0.000000 2.000000 1.000000
vt 0.9999 0.0001
vt 0.0001 0.9999
vt 0.0001 0.0001
vt 0.9999 0.9999
vn -1.0000 -0.0000 0.0000
s off
f 2/1/1 3/2/1 1/3/1
f 2/1/1 4/4/1 3/2/1
o Plane.001
v -1.000000 0.000000 -0.000000
v 1.000000 0.000000 -0.000000
v -1.000000 2.000000 0.000000
v 1.000000 2.000000 0.000000
vt 0.9999 0.0001
vt 0.0001 0.9999
vt 0.0001 0.0001
vt 0.9999 0.9999
vn 0.0000 -0.0000 1.0000
s off
f 6/5/2 7/6/2 5/7/2
f 6/5/2 8/8/2 7/6/2
