# Blender v2.79 (sub 0) OBJ File: ''
# www.blender.org
o Log_011
v 0.055184 0.109627 -0.201024
v -0.932524 0.315569 -0.220803
v 0.067476 0.328066 -0.242264
v -0.911540 0.482704 -0.118070
v 0.088460 0.529940 -0.154613
v -0.906064 0.531235 0.054989
v 0.093936 0.593195 -0.001101
v 0.085888 0.474753 0.190419
v -0.909772 0.435122 0.207876
v 0.090576 0.300355 0.204225
v -0.913044 0.240079 0.248715
v 0.077200 0.102988 0.097654
v -0.922800 0.067756 0.151336
v 0.065824 0.021364 -0.070742
v -0.933664 0.039651 -0.014390
v -0.942296 0.131893 -0.160034
v -1.913044 0.230477 0.264965
v -1.944816 0.174252 -0.208198
v -1.922800 0.065169 0.163543
v -1.906064 0.508636 0.052672
v -1.909772 0.422141 0.221818
v -1.911540 0.458906 -0.136152
v -1.932524 0.334716 -0.252351
v -1.934176 0.056563 -0.040059
v 2.088460 0.502575 -0.159347
v 2.065824 0.045584 -0.065565
v 2.067476 0.337696 -0.257929
v 2.093936 0.556302 0.015807
v 2.086956 0.264190 0.208165
v 2.077200 0.093943 0.119086
v 2.055184 0.150558 -0.218775
v 1.067476 0.369343 -0.311248
v 1.052984 0.197382 -0.310087
v 1.088460 0.509203 -0.209100
v 1.093936 0.574684 -0.028231
v 2.090228 0.445297 0.178441
v 1.090228 0.465593 0.145503
v 1.086956 0.286655 0.169956
v 1.077200 0.112632 0.086555
v 1.065876 0.070619 -0.145386
vt 0.000000 0.500000
vt 0.069400 0.250000
vt 0.069400 0.500000
vt 0.128300 0.250000
vt 0.128300 0.500000
vt 0.187100 0.250000
vt 0.187100 0.500000
vt 0.256500 0.500000
vt 0.256500 0.250000
vt 0.318400 0.500000
vt 0.325900 0.250000
vt 0.384800 0.500000
vt 0.384800 0.250000
vt 0.443700 0.500000
vt 0.439000 0.250000
vt 0.513100 0.500000
vt 0.513100 0.250000
vt 0.663000 0.219700
vt 0.827600 0.387600
vt 0.662100 0.317100
vt 0.829900 0.152500
vt 0.732600 0.151500
vt 0.898100 0.222000
vt 0.897200 0.319400
vt 0.730300 0.386600
vt 0.664700 0.852900
vt 0.899800 0.855200
vt 0.732900 0.922400
vt 0.665700 0.755500
vt 0.832600 0.688300
vt 0.900800 0.757800
vt 0.830300 0.923400
vt 0.000000 1.000000
vt 0.069400 0.750000
vt 0.069400 1.000000
vt 0.000000 0.750000
vt 0.069400 0.000000
vt 0.000000 0.250000
vt 0.000000 0.000000
vt 0.128300 0.750000
vt 0.128300 1.000000
vt 0.128300 0.000000
vt 0.187100 0.750000
vt 0.187100 1.000000
vt 0.187100 0.000000
vt 0.256500 1.000000
vt 0.256500 0.750000
vt 0.325900 1.000000
vt 0.325900 0.750000
vt 0.256500 0.000000
vt 0.384800 1.000000
vt 0.384800 0.750000
vt 0.325900 0.000000
vt 0.443700 1.000000
vt 0.450600 0.750000
vt 0.384800 0.000000
vt 0.513100 1.000000
vt 0.513100 0.750000
vt 0.443700 0.000000
vt 0.735200 0.687300
vt 0.513100 0.000000
vn -0.0368 -0.5677 -0.8224
vn -0.0054 0.0889 -0.9960
vn -0.0538 0.0772 -0.9956
vn -0.0296 0.8055 -0.5919
vn -0.0453 0.6859 -0.7263
vn -0.0357 0.9844 0.1722
vn -0.0169 0.9981 0.0588
vn 0.0391 0.5214 0.8524
vn -0.0008 0.5683 0.8228
vn 0.0599 -0.2003 0.9779
vn 0.0352 -0.1441 0.9889
vn -0.0046 -0.7226 0.6912
vn 0.0201 -0.8230 0.5676
vn -0.0404 -0.9974 -0.0603
vn -0.0156 -0.9794 -0.2011
vn -0.0441 -0.6234 -0.7806
vn -0.9986 0.0302 0.0424
vn -0.9965 0.0662 0.0502
vn -0.9979 0.0149 0.0625
vn -0.9990 0.0435 0.0131
vn -0.9976 0.0539 0.0445
vn -0.9934 0.1137 0.0132
vn -0.9924 0.0969 0.0757
vn -0.9984 -0.0100 0.0562
vn 0.9850 -0.1658 0.0476
vn 0.9960 -0.0525 -0.0730
vn 0.9922 -0.0741 -0.1005
vn 0.9986 -0.0525 -0.0020
vn 0.9988 -0.0391 -0.0307
vn 0.9981 -0.0290 -0.0539
vn 0.9870 -0.0924 -0.1319
vn 0.0420 -0.6057 -0.7946
vn -0.0004 0.3833 -0.9236
vn 0.0591 0.1237 -0.9906
vn -0.0549 -0.4366 -0.8980
vn 0.0290 0.2532 -0.9670
vn 0.0126 -0.5501 -0.8350
vn 0.0122 0.8139 -0.5809
vn 0.0405 0.7969 -0.6028
vn -0.0002 0.8734 -0.4871
vn 0.0182 0.9954 0.0941
vn 0.0076 0.9829 0.1842
vn -0.0119 0.9952 0.0969
vn -0.0209 0.5354 0.8444
vn 0.0104 0.5535 0.8328
vn -0.0392 -0.1573 0.9868
vn -0.0018 -0.1439 0.9896
vn 0.0074 0.6223 0.7827
vn -0.0375 -0.7597 0.6492
vn -0.0154 -0.8111 0.5847
vn 0.0138 -0.1761 0.9843
vn -0.0024 -0.9943 -0.1070
vn -0.0063 -0.9569 -0.2903
vn -0.0060 -0.8823 0.4707
vn -0.0157 -0.9447 -0.3274
vn 0.9967 0.0264 0.0763
s 1
f 1/1/1 2/2/2 3/3/3
f 3/3/3 4/4/4 5/5/5
f 5/5/5 6/6/6 7/7/7
f 8/8/8 6/6/6 9/9/9
f 10/10/10 9/9/9 11/11/11
f 12/12/12 11/11/11 13/13/13
f 14/14/14 13/13/13 15/15/15
f 1/16/1 15/15/15 16/17/16
f 17/18/17 18/19/18 19/20/19
f 20/21/20 18/19/18 21/22/21
f 22/23/22 23/24/23 18/19/18
f 24/25/24 19/20/19 18/19/18
f 25/26/25 26/27/26 27/28/27
f 28/29/28 29/30/29 26/27/26
f 29/30/29 30/31/30 26/27/26
f 31/32/31 27/28/27 26/27/26
f 31/33/32 32/34/33 27/35/34
f 33/36/35 3/3/3 32/34/33
f 23/37/36 16/38/16 18/39/37
f 27/35/34 34/40/38 25/41/39
f 32/34/33 5/5/5 34/40/38
f 22/42/40 2/2/2 23/37/36
f 25/41/39 35/43/41 28/44/42
f 34/40/38 7/7/7 35/43/41
f 20/45/43 4/4/4 22/42/40
f 36/46/44 35/43/41 37/47/45
f 37/47/45 7/7/7 8/8/8
f 20/45/43 9/9/9 6/6/6
f 29/48/46 37/47/45 38/49/47
f 37/47/45 10/10/10 38/49/47
f 21/50/48 11/11/11 9/9/9
f 30/51/49 38/49/47 39/52/50
f 39/52/50 10/10/10 12/12/12
f 17/53/51 13/13/13 11/11/11
f 26/54/52 39/52/50 40/55/53
f 40/55/53 12/12/12 14/14/14
f 19/56/54 15/15/15 13/13/13
f 31/57/32 40/55/53 33/58/35
f 33/58/35 14/14/14 1/16/1
f 24/59/55 16/17/16 15/15/15
f 1/1/1 16/38/16 2/2/2
f 3/3/3 2/2/2 4/4/4
f 5/5/5 4/4/4 6/6/6
f 8/8/8 7/7/7 6/6/6
f 10/10/10 8/8/8 9/9/9
f 12/12/12 10/10/10 11/11/11
f 14/14/14 12/12/12 13/13/13
f 1/16/1 14/14/14 15/15/15
f 17/18/17 21/22/21 18/19/18
f 20/21/20 22/23/22 18/19/18
f 25/26/25 28/29/28 26/27/26
f 28/29/28 36/60/56 29/30/29
f 31/33/32 33/36/35 32/34/33
f 33/36/35 1/1/1 3/3/3
f 23/37/36 2/2/2 16/38/16
f 27/35/34 32/34/33 34/40/38
f 32/34/33 3/3/3 5/5/5
f 22/42/40 4/4/4 2/2/2
f 25/41/39 34/40/38 35/43/41
f 34/40/38 5/5/5 7/7/7
f 20/45/43 6/6/6 4/4/4
f 36/46/44 28/44/42 35/43/41
f 37/47/45 35/43/41 7/7/7
f 20/45/43 21/50/48 9/9/9
f 29/48/46 36/46/44 37/47/45
f 37/47/45 8/8/8 10/10/10
f 21/50/48 17/53/51 11/11/11
f 30/51/49 29/48/46 38/49/47
f 39/52/50 38/49/47 10/10/10
f 17/53/51 19/56/54 13/13/13
f 26/54/52 30/51/49 39/52/50
f 40/55/53 39/52/50 12/12/12
f 19/56/54 24/59/55 15/15/15
f 31/57/32 26/54/52 40/55/53
f 33/58/35 40/55/53 14/14/14
f 24/59/55 18/61/37 16/17/16
