v 2.767592 0.828246 -0.247342
v 2.767592 0.617844 -0.400208
v 1.657098 0.602472 -0.424644
v 1.657098 0.825720 -0.262444
v 2.767592 0.357773 -0.400208
v 1.657098 0.326521 -0.424643
v 2.767592 0.147371 -0.247342
v 1.657098 0.103273 -0.262444
v 2.767592 0.067005 0.000000
v 1.657098 0.018000 0.000000
v 2.767592 0.147371 0.247342
v 1.657098 0.103273 0.262444
v 2.767592 0.357773 0.400208
v 1.657098 0.326522 0.424644
v 2.767592 0.617844 0.400208
v 1.657098 0.602472 0.424644
v 2.767592 0.828246 0.247342
v 1.657098 0.825720 0.262444
v 2.767592 0.908612 0.000000
v 1.657098 0.910993 0.000000
v 2.767592 0.617844 0.000000
v -2.784879 0.908612 0.000000
v -2.784879 0.617844 0.000000
v -2.784879 0.617844 0.400208
v -2.784879 0.828246 0.247342
v -2.784879 0.828246 -0.247342
v -2.784879 0.617844 -0.400208
v -2.784879 0.357774 0.000000
v -2.784879 0.357773 -0.400208
v -2.784879 0.147372 -0.247342
v -2.784879 0.067005 0.000000
v -2.784879 0.357773 0.400208
v -2.784879 0.147371 0.247342
v 2.767592 0.357773 0.000000
v -1.674385 0.121711 0.302358
v -1.674385 0.347972 0.466746
v -1.674385 0.035287 0.036372
v -1.674385 0.121711 -0.229614
v -1.674385 0.347972 -0.394002
v -1.674385 0.627645 -0.394002
v -1.674385 0.853907 -0.229614
v -1.674385 0.940330 0.036372
v -1.674385 0.853907 0.302358
v -1.674385 0.627646 0.466746
v -0.563891 0.158537 0.247342
v -0.563891 0.368939 0.400208
v -0.563891 0.078171 0.000000
v -0.563891 0.158537 -0.247342
v -0.563891 0.368939 -0.400208
v -0.563891 0.629010 -0.400208
v -0.563891 0.839412 -0.247342
v -0.563891 0.919778 0.000000
v -0.563891 0.839412 0.247342
v -0.563891 0.629010 0.400208
v 0.546604 0.112990 0.170052
v 0.546604 0.323391 0.322918
v 0.546604 0.032623 -0.077290
v 0.546604 0.112990 -0.324632
v 0.546604 0.323391 -0.477498
v 0.546604 0.583462 -0.477498
v 0.546604 0.793864 -0.324632
v 0.546604 0.874230 -0.077290
v 0.546604 0.793864 0.170052
v 0.546604 0.583462 0.322918
vt 0.196717 0.604346
vt 0.160412 0.561666
vt 0.196717 0.535289
vt 0.733495 0.600718
vt 0.769801 0.558038
vt 0.783668 0.600718
vt 0.769801 0.643398
vt 0.688619 0.600718
vt 0.652313 0.643398
vt 0.638446 0.600718
vt 0.652313 0.558038
vt 0.688619 0.531661
vt 0.733495 0.669776
vt 0.733495 0.531661
vt 0.160412 0.647026
vt 0.196717 0.673404
vt 0.241593 0.604346
vt 0.241594 0.535289
vt 0.241594 0.673404
vt 0.277899 0.561667
vt 0.291767 0.604346
vt 0.277899 0.647026
vt 0.146544 0.604346
vt 0.688619 0.669776
vt 0.019240 0.055908
vt 0.211444 0.099463
vt 0.018925 0.100921
vt 0.019047 0.010968
vt 0.212344 0.052316
vt 0.016963 0.418097
vt 0.208972 0.471351
vt 0.014740 0.462952
vt 0.018023 0.372994
vt 0.209893 0.423872
vt 0.209379 0.330549
vt 0.209970 0.376917
vt 0.018442 0.327548
vt 0.208691 0.284511
vt 0.018381 0.282033
vt 0.208356 0.238571
vt 0.018218 0.236551
vt 0.209018 0.192491
vt 0.018251 0.191216
vt 0.210144 0.146143
vt 0.018570 0.146067
vt 0.785503 0.335253
vt 0.975964 0.288770
vt 0.976241 0.334699
vt 0.785268 0.382128
vt 0.977147 0.380333
vt 0.785032 0.429476
vt 0.978510 0.425606
vt 0.784793 0.477447
vt 0.980216 0.470514
vt 0.787853 0.005608
vt 0.980625 0.060551
vt 0.787230 0.053692
vt 0.979036 0.105682
vt 0.786724 0.101414
vt 0.977558 0.151079
vt 0.786348 0.148716
vt 0.976413 0.196767
vt 0.786082 0.195631
vt 0.975839 0.242704
vt 0.785884 0.242242
vt 0.785714 0.288669
vt 0.595561 0.285668
vt 0.594125 0.330989
vt 0.592469 0.376370
vt 0.591125 0.421698
vt 0.590430 0.466743
vt 0.593247 0.015448
vt 0.593461 0.060449
vt 0.594347 0.105406
vt 0.595535 0.150322
vt 0.596449 0.195277
vt 0.596591 0.240379
vt 0.401567 0.286580
vt 0.400842 0.333151
vt 0.400385 0.379134
vt 0.400395 0.424556
vt 0.401002 0.469579
vt 0.403275 0.054615
vt 0.403217 0.100073
vt 0.403115 0.146096
vt 0.402825 0.192698
vt 0.402348 0.239641
vt 0.212467 0.004790
vt 0.982254 0.015641
vt 0.403553 0.009559
vn 1.0000 -0.0000 -0.0000
vn 0.2015 0.8748 0.4406
vn 0.2686 0.4280 0.8630
vn -1.0000 -0.0000 0.0000
vn -0.2197 0.7922 0.5694
vn -0.2286 0.9735 -0.0062
vn -0.6172 0.2050 -0.7596
vn -0.1835 -0.7923 -0.5819
vn -0.2286 -0.9735 -0.0062
vn -0.2197 -0.7922 0.5693
vn -0.2903 -0.2975 0.9095
vn -0.3531 0.5906 -0.7256
vn -0.6562 0.5920 0.4679
vn 0.1824 0.7968 -0.5760
vn 0.2686 0.4280 -0.8630
vn 0.2885 -0.1642 0.9433
vn 0.2885 -0.1642 -0.9433
vn 0.2320 -0.6884 0.6873
vn 0.2545 -0.9565 -0.1426
vn 0.2320 -0.6884 -0.6873
vn 0.6438 0.6166 -0.4531
vn -0.6442 0.2026 -0.7375
vn 0.0076 0.8119 -0.5838
vn 0.0283 0.3100 -0.9503
vn 0.0379 -0.3118 -0.9494
vn 0.0327 -0.8122 -0.5824
vn -0.0082 -0.8062 0.5916
vn 0.0149 -0.9999 0.0068
vn -0.0279 -0.3080 0.9510
vn -0.0373 0.3058 0.9513
vn -0.0329 0.8050 0.5923
vn -0.0159 0.9999 0.0067
vn 0.0040 -0.8063 0.5915
vn 0.0050 -1.0000 0.0064
vn 0.0041 -0.8124 -0.5831
vn 0.0016 -0.3118 -0.9501
vn -0.0016 0.3100 -0.9507
vn -0.0041 0.8117 -0.5840
vn -0.0050 1.0000 0.0064
vn -0.0040 0.8056 0.5924
vn -0.0015 0.3063 0.9519
vn 0.0015 -0.3080 0.9514
vn 0.0585 -0.3030 0.9512
vn 0.0330 -0.8052 0.5920
vn -0.0002 -1.0000 0.0034
vn -0.0276 -0.8086 -0.5877
vn -0.0387 -0.3053 -0.9515
vn -0.0290 0.3144 -0.9488
vn -0.0027 0.8125 -0.5830
vn 0.0300 0.9995 0.0034
vn 0.0566 0.8078 0.5867
vn 0.0673 0.3113 0.9479
vn -0.0179 -0.3176 0.9481
vn -0.0249 -0.8169 0.5763
vn -0.0267 -0.9996 -0.0137
vn -0.0230 -0.8040 -0.5942
vn -0.0153 -0.3095 -0.9508
vn -0.0070 0.2999 -0.9539
vn 0.0007 0.8007 -0.5990
vn 0.0041 0.9999 -0.0134
vn 0.0012 0.8132 0.5820
vn -0.0072 0.3073 0.9516
FE3D_PART end
FE3D_DIFFUSE_MAP misc\timber_end.png
FE3D_NORMAL_MAP misc\timber_end.png
s 1
f 21/1/1 17/2/2 15/3/3
f 23/4/4 25/5/5 22/6/6
f 26/7/7 23/4/4 22/6/6
f 28/8/4 30/9/8 31/10/9
f 28/8/4 33/11/10 32/12/11
f 27/13/12 28/8/4 23/4/4
f 24/14/13 28/8/4 32/12/11
f 1/15/14 21/1/1 2/16/15
f 34/17/1 15/3/3 13/18/16
f 2/16/15 34/17/1 5/19/17
f 34/17/1 11/20/18 9/21/19
f 34/17/1 7/22/20 5/19/17
f 21/1/1 19/23/21 17/2/2
f 23/4/4 24/14/13 25/5/5
f 26/7/7 27/13/12 23/4/4
f 28/8/4 29/24/22 30/9/8
f 28/8/4 31/10/9 33/11/10
f 27/13/12 29/24/22 28/8/4
f 24/14/13 23/4/4 28/8/4
f 1/15/14 19/23/21 21/1/1
f 34/17/1 21/1/1 15/3/3
f 2/16/15 21/1/1 34/17/1
f 34/17/1 13/18/16 11/20/18
f 34/17/1 9/21/19 7/22/20
FE3D_PART main
FE3D_DIFFUSE_MAP misc\timber_main.png
FE3D_NORMAL_MAP misc\timber_main.png
f 2/25/15 4/26/23 1/27/14
f 5/28/17 3/29/24 2/25/15
f 7/30/20 6/31/25 5/32/17
f 9/33/19 8/34/26 7/30/20
f 9/33/19 12/35/27 10/36/28
f 11/37/18 14/38/29 12/35/27
f 13/39/16 16/40/30 14/38/29
f 15/41/3 18/42/31 16/40/30
f 17/43/2 20/44/32 18/42/31
f 1/27/14 20/44/32 19/45/21
f 35/46/33 32/47/11 33/48/10
f 37/49/34 33/48/10 31/50/9
f 38/51/35 31/50/9 30/52/8
f 39/53/36 30/52/8 29/54/22
f 39/55/36 27/56/12 40/57/37
f 40/57/37 26/58/7 41/59/38
f 41/59/38 22/60/6 42/61/39
f 42/61/39 25/62/5 43/63/40
f 43/63/40 24/64/13 44/65/41
f 44/65/41 32/47/11 36/66/42
f 46/67/43 35/46/33 45/68/44
f 45/68/44 37/49/34 47/69/45
f 47/69/45 38/51/35 48/70/46
f 48/70/46 39/53/36 49/71/47
f 49/72/47 40/57/37 50/73/48
f 51/74/49 40/57/37 41/59/38
f 52/75/50 41/59/38 42/61/39
f 53/76/51 42/61/39 43/63/40
f 54/77/52 43/63/40 44/65/41
f 46/67/43 44/65/41 36/66/42
f 56/78/53 45/68/44 55/79/54
f 55/79/54 47/69/45 57/80/55
f 57/80/55 48/70/46 58/81/56
f 58/81/56 49/71/47 59/82/57
f 60/83/58 49/72/47 50/73/48
f 61/84/59 50/73/48 51/74/49
f 62/85/60 51/74/49 52/75/50
f 63/86/61 52/75/50 53/76/51
f 64/87/62 53/76/51 54/77/52
f 64/87/62 46/67/43 56/78/53
f 12/35/27 56/78/53 55/79/54
f 10/36/28 55/79/54 57/80/55
f 8/34/26 57/80/55 58/81/56
f 6/31/25 58/81/56 59/82/57
f 6/88/25 60/83/58 3/29/24
f 3/29/24 61/84/59 4/26/23
f 4/26/23 62/85/60 20/44/32
f 20/44/32 63/86/61 18/42/31
f 18/42/31 64/87/62 16/40/30
f 14/38/29 64/87/62 56/78/53
f 2/25/15 3/29/24 4/26/23
f 5/28/17 6/88/25 3/29/24
f 7/30/20 8/34/26 6/31/25
f 9/33/19 10/36/28 8/34/26
f 9/33/19 11/37/18 12/35/27
f 11/37/18 13/39/16 14/38/29
f 13/39/16 15/41/3 16/40/30
f 15/41/3 17/43/2 18/42/31
f 17/43/2 19/45/21 20/44/32
f 1/27/14 4/26/23 20/44/32
f 35/46/33 36/66/42 32/47/11
f 37/49/34 35/46/33 33/48/10
f 38/51/35 37/49/34 31/50/9
f 39/53/36 38/51/35 30/52/8
f 39/55/36 29/89/22 27/56/12
f 40/57/37 27/56/12 26/58/7
f 41/59/38 26/58/7 22/60/6
f 42/61/39 22/60/6 25/62/5
f 43/63/40 25/62/5 24/64/13
f 44/65/41 24/64/13 32/47/11
f 46/67/43 36/66/42 35/46/33
f 45/68/44 35/46/33 37/49/34
f 47/69/45 37/49/34 38/51/35
f 48/70/46 38/51/35 39/53/36
f 49/72/47 39/55/36 40/57/37
f 51/74/49 50/73/48 40/57/37
f 52/75/50 51/74/49 41/59/38
f 53/76/51 52/75/50 42/61/39
f 54/77/52 53/76/51 43/63/40
f 46/67/43 54/77/52 44/65/41
f 56/78/53 46/67/43 45/68/44
f 55/79/54 45/68/44 47/69/45
f 57/80/55 47/69/45 48/70/46
f 58/81/56 48/70/46 49/71/47
f 60/83/58 59/90/57 49/72/47
f 61/84/59 60/83/58 50/73/48
f 62/85/60 61/84/59 51/74/49
f 63/86/61 62/85/60 52/75/50
f 64/87/62 63/86/61 53/76/51
f 64/87/62 54/77/52 46/67/43
f 12/35/27 14/38/29 56/78/53
f 10/36/28 12/35/27 55/79/54
f 8/34/26 10/36/28 57/80/55
f 6/31/25 8/34/26 58/81/56
f 6/88/25 59/90/57 60/83/58
f 3/29/24 60/83/58 61/84/59
f 4/26/23 61/84/59 62/85/60
f 20/44/32 62/85/60 63/86/61
f 18/42/31 63/86/61 64/87/62
f 14/38/29 16/40/30 64/87/62
