# Blender v2.79 (sub 0) OBJ File: ''
# www.blender.org
o props.014
v 0.972000 0.150000 0.972000
v 1.000000 0.178000 0.972000
v 0.972000 0.178000 1.000000
v 1.000000 0.028000 -0.972000
v 0.972000 0.000000 -0.972000
v 0.972000 0.028000 -1.000000
v -1.000000 0.178000 0.972000
v -0.972000 0.150000 0.972000
v -0.972000 0.178000 1.000000
v -0.972000 0.178000 -1.000000
v -0.972000 0.150000 -0.972000
v -1.000000 0.178000 -0.972000
v -0.528000 0.150000 -0.972000
v -0.505386 0.178000 -1.000000
v -0.272207 0.013324 -0.974102
v -0.477793 0.136676 -0.974102
v -0.480976 0.171239 -1.000000
v -0.251857 0.033768 -1.000000
v -0.222000 0.000000 -0.972000
v -0.231034 0.028000 -1.000000
v 0.972000 -0.000000 0.222000
v 1.000000 0.028000 0.231034
v 0.974102 0.136676 0.477793
v 0.974102 0.013324 0.272207
v 1.000000 0.033767 0.251857
v 1.000000 0.171239 0.480976
v 0.972000 0.150000 0.528000
v 1.000000 0.178000 0.505386
v -0.272207 0.013324 -0.465484
v -0.222000 0.000000 -0.489804
v -0.224885 0.013324 -0.153688
v -0.175843 0.000000 -0.185682
v -0.081241 0.013324 0.081241
v -0.038668 -0.000000 0.038668
v 0.153688 0.013324 0.224885
v 0.185682 -0.000000 0.175843
v 0.465484 0.013324 0.272207
v 0.489804 -0.000000 0.222000
v -0.528000 0.150000 -0.235578
v -0.477793 0.136676 -0.259898
v -0.479514 0.150000 0.083891
v -0.430471 0.136676 0.051898
v -0.329401 0.150000 0.329401
v -0.286827 0.136676 0.286827
v -0.083891 0.150000 0.479514
v -0.051898 0.136676 0.430471
v 0.235578 0.150000 0.528000
v 0.259898 0.136676 0.477793
v -0.972000 0.250000 1.000000
v 0.972000 0.250000 1.000000
v 0.972000 0.250000 -1.000000
v 1.000000 0.250000 0.972000
v -1.000000 0.250000 0.972000
v -0.972000 0.250000 -1.000000
v -1.000000 0.250000 -0.972000
v 1.000000 0.250000 -0.972000
v -1.000000 0.300000 1.000000
v 1.000000 0.300000 1.000000
v 1.000000 0.300000 -1.000000
v -1.000000 0.300000 -1.000000
v 1.000000 0.250000 -1.000000
v -1.000000 0.250000 -1.000000
v 1.000000 0.250000 1.000000
v -1.000000 0.250000 1.000000
vt 0.981367 0.070360
vt 0.977271 0.064722
vt 0.982909 0.060626
vt 0.607805 0.379298
vt 0.611901 0.384936
vt 0.602167 0.383394
vt 0.959234 0.137200
vt 0.955150 0.131579
vt 0.964855 0.133116
vt 0.563353 0.424825
vt 0.564890 0.415120
vt 0.568974 0.420741
vt 0.508161 0.490154
vt 0.019301 0.508321
vt 0.019141 0.501277
vt 0.000975 0.012418
vt 0.008018 0.012258
vt 0.847152 0.066862
vt 0.941994 0.006694
vt 0.846688 0.075937
vt 0.834920 0.071591
vt 0.773502 0.084101
vt 0.774624 0.076905
vt 0.762392 0.081634
vt 0.522674 0.264538
vt 0.518519 0.258819
vt 0.503869 0.301489
vt 0.504081 0.000975
vt 0.510965 0.303602
vt 0.883812 0.145337
vt 0.853375 0.199107
vt 0.879396 0.137912
vt 0.505620 0.378465
vt 0.515204 0.489994
vt 0.184041 0.007725
vt 0.199442 0.129265
vt 0.186951 0.135669
vt 0.212793 0.205503
vt 0.200639 0.213832
vt 0.248584 0.261154
vt 0.238118 0.272107
vt 0.298037 0.306897
vt 0.305804 0.294378
vt 0.376741 0.317017
vt 0.382571 0.304248
vt 0.504686 0.314107
vt 0.119708 0.009717
vt 0.136412 0.188562
vt 0.123921 0.194967
vt 0.150100 0.266724
vt 0.137946 0.275053
vt 0.187578 0.325000
vt 0.177112 0.335953
vt 0.239730 0.372309
vt 0.247497 0.359789
vt 0.320371 0.382678
vt 0.326201 0.369909
vt 0.505862 0.365823
vt 0.511084 0.308840
vt 0.883322 0.132980
vt 0.891971 0.135309
vt 0.840699 0.078179
vt 0.194250 0.000975
vt 0.196683 0.007966
vt 0.983917 0.200960
vt 0.584980 0.468821
vt 0.973463 0.186572
vt 0.555618 0.309881
vt 0.768393 0.086013
vt 0.497038 0.001135
vt 0.132326 0.008901
vt 0.966739 0.050225
vt 0.972376 0.046129
vt 0.975357 0.147570
vt 0.969736 0.151654
vt 0.579475 0.435195
vt 0.573854 0.439279
vt 0.569692 0.338696
vt 0.575330 0.334601
vt 0.850026 0.203314
vt 0.983303 0.500975
vt 0.489279 0.994999
vt 0.489279 0.500975
vt 0.549899 0.314036
vt 0.952679 0.021400
vt 0.958398 0.017244
vt 0.972376 0.046129
vt 0.569692 0.338696
vt 0.573854 0.439279
vt 0.975357 0.147570
vt 0.982550 0.162768
vt 0.982550 0.169684
vt 0.975634 0.169684
vt 0.982550 0.180406
vt 0.975634 0.173489
vt 0.982550 0.173489
vt 0.572125 0.447368
vt 0.577720 0.451434
vt 0.573655 0.457029
vt 0.974406 0.006570
vt 0.968811 0.002505
vt 0.978472 0.000975
vt 0.979058 0.182506
vt 0.579384 0.472887
vt 0.189012 0.001094
vt 0.971799 0.172515
vt 0.581147 0.449316
vt 0.965062 0.036062
vt 0.557318 0.324249
vt 0.508321 0.497198
vt 0.012097 0.501437
vt 0.937839 0.000975
vt 0.860463 0.200246
vt 0.512534 0.372616
vt 0.595433 0.483210
vt 0.983303 0.994999
vt 0.572125 0.462895
vt 0.982649 0.157608
vt 0.562378 0.328629
vt 0.965817 0.027457
vn 0.0087 -0.9994 0.0330
vn 0.9993 -0.0363 0.0062
vn 0.0071 -0.2671 0.9637
vn 0.9960 -0.0878 -0.0161
vn 0.0212 -0.9996 -0.0212
vn 0.0175 -0.0889 -0.9959
vn -0.9637 -0.2671 0.0071
vn -0.0319 -0.9990 0.0318
vn -0.0123 -0.2685 0.9632
vn -0.0023 -0.0328 -0.9995
vn -0.0280 -0.9996 -0.0033
vn -0.9632 -0.2685 -0.0123
vn -0.0391 -0.9992 0.0018
vn -0.0016 -0.0423 -0.9991
vn -0.6208 -0.5392 -0.5691
vn -0.0111 -0.0208 -0.9997
vn -0.4789 -0.8769 -0.0410
vn -0.4458 -0.8363 -0.3190
vn 0.0327 -0.9995 -0.0038
vn 0.9956 -0.0938 0.0010
vn 0.0402 -0.9091 0.4146
vn 0.9997 -0.0211 0.0112
vn 0.9998 -0.0190 0.0105
vn 0.6198 -0.7513 -0.2268
vn -0.0072 -1.0000 0.0004
vn -0.4591 -0.8881 0.0238
vn -0.0055 -1.0000 0.0019
vn -0.3729 -0.9187 0.1303
vn -0.0036 -1.0000 0.0036
vn -0.2572 -0.9315 0.2572
vn -0.1406 -0.9198 0.3663
vn -0.0018 -1.0000 0.0052
vn -0.0395 -0.8884 0.4573
vn -0.0004 -1.0000 0.0077
vn 0.6798 -0.6518 0.3362
vn -0.4509 -0.8923 0.0228
vn -0.0081 -1.0000 0.0004
vn -0.3719 -0.9191 0.1299
vn -0.0041 -1.0000 0.0014
vn -0.2569 -0.9317 0.2569
vn -0.0031 -1.0000 0.0031
vn 0.0166 -0.9998 0.0135
vn -0.1299 -0.9191 0.3719
vn 0.0192 -0.9997 0.0117
vn -0.0228 -0.8923 0.4509
vn 0.9598 -0.1126 0.2572
vn 0.1711 -0.2340 -0.9571
vn 0.2758 -0.3849 -0.8808
vn 0.0070 0.0001 1.0000
vn -0.0057 0.0000 1.0000
vn 0.0748 0.0000 -0.9972
vn 0.5663 0.0001 -0.8242
vn -0.6550 -0.3489 -0.6702
vn 0.7282 -0.0000 -0.6854
vn 0.4037 -0.0000 -0.9149
vn 0.3527 -0.4316 -0.8303
vn 0.0000 1.0000 0.0000
vn 0.0000 0.0000 -1.0000
vn 1.0000 0.0000 0.0000
vn -1.0000 0.0000 0.0000
vn 0.0000 -1.0000 0.0000
vn 0.0000 0.0000 1.0000
s 1
f 1/1/1 2/2/2 3/3/3
f 4/4/4 5/5/5 6/6/6
f 7/7/7 8/8/8 9/9/9
f 10/10/10 11/11/11 12/12/12
f 1/13/1 9/14/9 8/15/8
f 8/15/8 12/16/12 11/17/11
f 13/18/13 10/19/10 14/20/14
f 16/21/15 18/22/16 15/23/17
f 19/24/18 6/25/6 5/26/5
f 21/27/19 4/28/4 22/29/20
f 23/30/21 25/31/22 26/32/23
f 27/33/24 2/34/2 1/13/1
f 15/35/17 30/36/25 29/37/26
f 29/37/26 32/38/27 31/39/28
f 31/39/28 34/40/29 33/41/30
f 35/42/31 34/40/29 36/43/32
f 37/44/33 36/43/32 38/45/34
f 24/46/35 38/45/34 21/27/19
f 13/47/13 40/48/36 39/49/37
f 39/49/37 42/50/38 41/51/39
f 41/51/39 44/52/40 43/53/41
f 45/54/42 44/52/40 46/55/43
f 47/56/44 46/55/43 48/57/45
f 27/33/24 48/57/45 23/58/21
f 25/59/22 24/46/35 22/29/20
f 28/60/46 27/61/24 23/30/21
f 17/62/47 16/21/15 14/20/14
f 20/63/48 19/64/18 15/35/17
f 9/65/9 50/66/49 49/67/50
f 51/68/51 6/25/6 20/69/48
f 31/39/28 40/48/36 29/37/26
f 33/41/30 42/50/38 31/39/28
f 35/42/31 48/57/45 46/55/43
f 33/41/30 46/55/43 44/52/40
f 30/36/25 5/70/5 21/27/19
f 23/58/21 37/44/33 24/46/35
f 16/71/15 29/37/26 40/48/36
f 11/17/11 39/49/37 8/15/8
f 3/3/3 52/72/52 50/73/49
f 7/7/7 49/74/50 53/75/53
f 10/10/10 55/76/54 54/77/55
f 4/4/4 51/78/51 56/79/56
f 22/80/20 56/79/56 25/31/22
f 12/12/12 53/75/53 55/76/54
f 58/81/57 60/82/57 57/83/57
f 61/84/58 54/85/55 62/86/58
f 63/87/59 56/79/56 61/88/59
f 62/89/60 53/75/53 64/90/60
f 52/91/61 63/92/61 50/93/61
f 53/94/61 49/95/61 64/96/61
f 51/97/61 61/98/61 56/99/61
f 62/100/61 54/101/61 55/102/61
f 64/103/62 50/66/49 63/104/62
f 20/63/48 15/35/17 18/105/16
f 16/21/15 13/18/13 14/20/14
f 28/60/46 23/30/21 26/32/23
f 24/46/35 21/27/19 22/29/20
f 63/104/62 57/106/62 64/103/62
f 64/90/60 60/107/60 62/89/60
f 61/88/59 58/108/59 63/87/59
f 62/86/58 59/109/58 61/84/58
f 26/32/23 56/79/56 28/60/46
f 52/72/52 28/60/46 56/79/56
f 26/32/23 25/31/22 56/79/56
f 8/15/8 47/56/44 1/13/1
f 47/56/44 27/33/24 1/13/1
f 8/15/8 43/53/41 45/54/42
f 8/15/8 41/51/39 43/53/41
f 8/15/8 39/49/37 41/51/39
f 32/38/27 36/43/32 34/40/29
f 30/36/25 38/45/34 32/38/27
f 14/20/14 54/85/55 51/68/51
f 51/68/51 17/62/47 14/20/14
f 20/69/48 17/62/47 51/68/51
f 1/13/1 3/110/3 9/14/9
f 8/15/8 7/111/7 12/16/12
f 13/18/13 11/112/11 10/19/10
f 16/21/15 17/62/47 18/22/16
f 19/24/18 20/69/48 6/25/6
f 21/27/19 5/70/5 4/28/4
f 23/30/21 24/113/35 25/31/22
f 27/33/24 28/114/46 2/34/2
f 15/35/17 19/64/18 30/36/25
f 29/37/26 30/36/25 32/38/27
f 31/39/28 32/38/27 34/40/29
f 35/42/31 33/41/30 34/40/29
f 37/44/33 35/42/31 36/43/32
f 24/46/35 37/44/33 38/45/34
f 13/47/13 16/71/15 40/48/36
f 39/49/37 40/48/36 42/50/38
f 41/51/39 42/50/38 44/52/40
f 45/54/42 43/53/41 44/52/40
f 47/56/44 45/54/42 46/55/43
f 27/33/24 47/56/44 48/57/45
f 9/65/9 3/115/3 50/66/49
f 31/39/28 42/50/38 40/48/36
f 33/41/30 44/52/40 42/50/38
f 35/42/31 37/44/33 48/57/45
f 33/41/30 35/42/31 46/55/43
f 30/36/25 19/64/18 5/70/5
f 23/58/21 48/57/45 37/44/33
f 16/71/15 15/35/17 29/37/26
f 11/17/11 13/47/13 39/49/37
f 3/3/3 2/2/2 52/72/52
f 7/7/7 9/9/9 49/74/50
f 10/10/10 12/12/12 55/76/54
f 4/4/4 6/6/6 51/78/51
f 22/80/20 4/4/4 56/79/56
f 12/12/12 7/7/7 53/75/53
f 58/81/57 59/116/57 60/82/57
f 61/84/58 51/68/51 54/85/55
f 63/87/59 52/72/52 56/79/56
f 62/89/60 55/76/54 53/75/53
f 64/103/62 49/67/50 50/66/49
f 63/104/62 58/117/62 57/106/62
f 64/90/60 57/118/60 60/107/60
f 61/88/59 59/119/59 58/108/59
f 62/86/58 60/120/58 59/109/58
f 52/72/52 2/2/2 28/60/46
f 8/15/8 45/54/42 47/56/44
f 32/38/27 38/45/34 36/43/32
f 30/36/25 21/27/19 38/45/34
f 14/20/14 10/19/10 54/85/55
f 20/69/48 18/22/16 17/62/47
