# Blender v2.79 (sub 0) OBJ File: ''
# www.blender.org
o props.012
v -0.971000 0.178000 0.999000
v -0.999000 0.178000 0.971000
v -0.971000 0.150000 0.971000
v -0.971000 0.178000 -0.999000
v -0.971000 0.150000 -0.971000
v -0.999000 0.178000 -0.971000
v 0.971000 0.178000 0.999000
v 0.971000 0.150000 0.971000
v 0.999000 0.178000 0.971000
v 0.999000 0.178000 -0.971000
v 0.971000 0.150000 -0.971000
v 0.971000 0.178000 -0.999000
v -0.971000 0.250000 0.999000
v -0.999000 0.250000 0.971000
v 0.999000 0.250000 -0.971000
v 0.999000 0.250000 0.971000
v 0.971000 0.250000 0.999000
v -0.999000 0.250000 -0.971000
v -0.971000 0.250000 -0.999000
v 0.971000 0.250000 -0.999000
v -1.000000 0.300000 1.000000
v 1.000000 0.300000 1.000000
v 1.000000 0.300000 -1.000000
v -1.000000 0.300000 -1.000000
v 1.000000 0.250000 -1.000000
v -1.000000 0.250000 -1.000000
v 1.000000 0.250000 1.000000
v -1.000000 0.250000 1.000000
vt 0.973557 0.519147
vt 0.980168 0.516999
vt 0.975705 0.525758
vt 0.968033 0.532926
vt 0.965885 0.526316
vt 0.974644 0.530779
vt 0.515058 0.668122
vt 0.517206 0.674733
vt 0.508447 0.670270
vt 0.502924 0.684050
vt 0.507387 0.675291
vt 0.509535 0.681902
vt 0.007950 0.491719
vt 0.000975 0.007950
vt 0.007950 0.007950
vt 0.491719 0.000975
vt 0.491719 0.007950
vt 0.498694 0.491719
vt 0.491719 0.491719
vt 0.007950 0.498694
vt 0.974645 0.500000
vt 0.987754 0.645524
vt 0.527290 0.776488
vt 0.982273 0.628655
vt 0.509535 0.651123
vt 0.968034 0.502148
vt 0.502924 0.814033
vt 0.981321 0.796296
vt 0.981321 0.814033
vt 0.973556 0.549925
vt 0.980167 0.547777
vt 0.515058 0.698901
vt 0.508447 0.701048
vt 0.502924 0.653271
vt 0.994634 0.000975
vt 0.501949 0.493660
vt 0.501949 0.000975
vt 0.521350 0.734138
vt 0.986115 0.570175
vt 0.989921 0.581890
vt 0.520375 0.716594
vt 0.985141 0.552632
vt 0.988948 0.564346
vt 0.519401 0.753631
vt 0.984165 0.589669
vt 0.987972 0.601383
vt 0.520375 0.772149
vt 0.985140 0.608187
vt 0.988946 0.619901
vt 0.500000 0.497076
vt 0.507144 0.497322
vt 0.500246 0.504220
vt 0.500000 0.989751
vt 0.500246 0.982608
vt 0.507144 0.989505
vt 0.985532 0.989505
vt 0.992429 0.982608
vt 0.992675 0.989751
vt 0.992429 0.504220
vt 0.985532 0.497322
vt 0.992675 0.497076
vt 0.000975 0.491719
vt 0.007950 0.000975
vt 0.498694 0.007950
vt 0.491719 0.498694
vt 0.532771 0.793356
vt 0.502924 0.796296
vt 0.994634 0.493660
vt 0.517544 0.722423
vt 0.516569 0.704880
vt 0.515595 0.741917
vt 0.516569 0.760435
vn -0.0089 -0.2676 0.9635
vn -0.9632 -0.2684 0.0120
vn -0.0104 -0.9999 0.0104
vn -0.0118 -0.2683 -0.9633
vn -0.0145 -0.9998 -0.0145
vn -0.9636 -0.2674 -0.0082
vn 0.0071 -0.2671 0.9637
vn 0.0145 -0.9998 0.0145
vn 0.9632 -0.2685 0.0123
vn 0.9637 -0.2671 -0.0071
vn 0.0104 -0.9999 -0.0104
vn 0.0123 -0.2685 -0.9632
vn -0.9998 -0.0000 0.0182
vn 1.0000 0.0000 -0.0075
vn 0.0075 -0.0000 1.0000
vn -0.0142 -0.0000 0.9999
vn -1.0000 0.0000 -0.0075
vn -0.0120 0.0000 -0.9999
vn 0.0182 0.0001 -0.9998
vn 0.9998 -0.0000 0.0182
vn 0.0000 1.0000 0.0000
vn 0.0000 0.0000 -1.0000
vn 1.0000 0.0000 0.0000
vn 0.0000 0.0000 1.0000
vn -1.0000 0.0000 0.0000
vn 0.0000 -1.0000 -0.0000
s 1
f 1/1/1 2/2/2 3/3/3
f 4/4/4 5/5/5 6/6/6
f 7/7/7 8/8/8 9/9/9
f 10/10/10 11/11/11 12/12/12
f 3/13/3 6/14/6 5/15/5
f 5/15/5 12/16/12 11/17/11
f 11/17/11 9/18/9 8/19/8
f 8/19/8 1/20/1 3/13/3
f 11/17/11 3/13/3 5/15/5
f 1/1/1 14/21/13 2/2/2
f 15/22/14 9/23/9 10/24/10
f 1/1/1 17/25/15 13/26/16
f 18/27/17 2/28/2 14/29/13
f 19/30/18 6/6/6 18/31/17
f 10/10/10 20/32/19 15/33/14
f 7/7/7 16/34/20 17/25/15
f 19/30/18 12/12/12 4/4/4
f 22/35/21 24/36/21 21/37/21
f 23/38/22 26/39/22 24/40/22
f 25/41/23 22/42/23 27/43/23
f 21/44/24 27/45/24 22/46/24
f 24/47/25 28/48/25 21/49/25
f 26/50/26 19/51/26 18/52/26
f 18/52/26 28/53/26 26/50/26
f 14/54/26 13/55/26 28/53/26
f 17/56/26 28/53/26 13/55/26
f 17/56/26 16/57/26 27/58/26
f 15/59/26 27/58/26 16/57/26
f 15/59/26 20/60/26 25/61/26
f 19/51/26 25/61/26 20/60/26
f 3/13/3 2/62/2 6/14/6
f 5/15/5 4/63/4 12/16/12
f 11/17/11 10/64/10 9/18/9
f 8/19/8 7/65/7 1/20/1
f 11/17/11 8/19/8 3/13/3
f 1/1/1 13/26/16 14/21/13
f 15/22/14 16/66/20 9/23/9
f 1/1/1 7/7/7 17/25/15
f 18/27/17 6/67/6 2/28/2
f 19/30/18 4/4/4 6/6/6
f 10/10/10 12/12/12 20/32/19
f 7/7/7 9/9/9 16/34/20
f 19/30/18 20/32/19 12/12/12
f 22/35/21 23/68/21 24/36/21
f 23/38/22 25/69/22 26/39/22
f 25/41/23 23/70/23 22/42/23
f 21/44/24 28/71/24 27/45/24
f 24/47/25 26/72/25 28/48/25
f 18/52/26 14/54/26 28/53/26
f 17/56/26 27/58/26 28/53/26
f 15/59/26 25/61/26 27/58/26
f 19/51/26 26/50/26 25/61/26
