# Blender v2.79 (sub 0) OBJ File: ''
# www.blender.org
o props.015
v 0.972000 0.178000 -1.000000
v 1.000000 0.178000 -0.972000
v 0.972000 0.150000 -0.972000
v -0.972000 0.178000 -1.000000
v -0.972000 0.150000 -0.972000
v -1.000000 0.178000 -0.972000
v 0.972000 0.150000 -0.528000
v 1.000000 0.178000 -0.505386
v 0.972000 0.135594 -0.475990
v 1.000000 0.033768 -0.251857
v 0.972000 0.014406 -0.274010
v 0.972000 0.000000 -0.222000
v 1.000000 0.028000 1.000000
v 0.972000 0.000000 1.000000
v -0.972000 -0.000000 -0.222000
v -0.972000 0.014406 -0.274010
v -1.000000 0.028000 1.000000
v -0.972000 -0.000000 1.000000
v -0.972000 0.135594 -0.475990
v -1.000000 0.033767 -0.251857
v -1.000000 0.171238 -0.480976
v -0.972000 0.150000 -0.528000
v 0.972000 0.250000 -1.000000
v 1.000000 0.250000 -0.972000
v 1.000000 0.171239 -0.480976
v -1.000000 0.178000 -0.505386
v 1.000000 0.028000 -0.231034
v -1.000000 0.028000 -0.231034
v 1.000000 0.250000 1.000000
v -1.000000 0.250000 -0.972000
v -0.972000 0.250000 -1.000000
v -1.000000 0.250000 1.000000
v -1.000000 0.300000 1.000000
v 1.000000 0.300000 -1.000000
v -1.000000 0.300000 -1.000000
v 1.000000 0.250000 -1.000000
v -1.000000 0.250000 -1.000000
v 1.000000 0.300000 1.000000
vt 0.977001 0.194602
vt 0.982688 0.190471
vt 0.981133 0.200289
vt 0.582169 0.481465
vt 0.586301 0.487152
vt 0.576482 0.485596
vt 0.356915 0.565710
vt 0.452904 0.504813
vt 0.356445 0.574895
vt 0.344000 0.570543
vt 0.282374 0.583157
vt 0.284045 0.575827
vt 0.271130 0.580660
vt 0.022724 0.769982
vt 0.018519 0.764193
vt 0.184505 0.013028
vt 0.216046 0.503980
vt 0.202898 0.504472
vt 0.917593 0.006763
vt 0.660776 0.184508
vt 0.913388 0.000975
vt 0.628636 0.250685
vt 0.659676 0.195972
vt 0.632959 0.258802
vt 0.620049 0.261474
vt 0.532470 0.333947
vt 0.528265 0.328159
vt 0.026446 0.511076
vt 0.000975 0.019897
vt 0.008053 0.019632
vt 0.966377 0.179979
vt 0.972064 0.175847
vt 0.151837 0.506383
vt 0.120296 0.015431
vt 0.133444 0.014939
vt 0.350384 0.577163
vt 0.628929 0.263866
vt 0.197653 0.012536
vt 0.189840 0.005740
vt 0.195104 0.005543
vt 0.214027 0.511144
vt 0.544382 0.386737
vt 0.981348 0.137838
vt 0.576991 0.431621
vt 0.524968 0.492418
vt 0.056066 0.815873
vt 0.277203 0.585092
vt 0.138689 0.506875
vt 0.565858 0.470973
vt 0.571544 0.466841
vt 0.543284 0.348831
vt 0.950935 0.052655
vt 0.982269 0.497076
vt 0.482456 0.996888
vt 0.482456 0.497076
vt 0.463717 0.519697
vt 0.469506 0.515492
vt 0.941394 0.082846
vt 0.948739 0.092955
vt 0.537496 0.353036
vt 0.972064 0.175847
vt 0.565858 0.470973
vt 0.970760 0.159844
vt 0.977758 0.166841
vt 0.970760 0.166841
vt 0.982631 0.159044
vt 0.975634 0.159044
vt 0.982631 0.152047
vt 0.964685 0.165692
vt 0.545006 0.363372
vt 0.063576 0.826209
vt 0.663114 0.191653
vt 0.586765 0.433169
vt 0.448698 0.499025
vt 0.652188 0.195297
vt 0.019367 0.511341
vt 0.208763 0.511341
vt 0.506575 0.000975
vt 0.982269 0.996888
vt 0.537037 0.376628
vt 0.558480 0.460818
vt 0.958445 0.062991
vt 0.477015 0.525828
vt 0.979800 0.147612
vn 0.0123 -0.2685 -0.9632
vn 0.9995 -0.0321 -0.0022
vn 0.0122 -0.9983 -0.0571
vn -0.0071 -0.2671 -0.9637
vn -0.0145 -0.9981 -0.0591
vn -0.9993 -0.0357 -0.0061
vn 0.0059 -0.9981 -0.0621
vn 0.9993 -0.0362 -0.0004
vn 0.5659 -0.5363 -0.6263
vn 0.9999 -0.0141 -0.0088
vn 0.0090 -0.8816 -0.4720
vn 0.3176 -0.8217 -0.4731
vn 0.9950 -0.0999 0.0000
vn 0.0142 -0.9999 0.0000
vn -0.0138 -0.9998 -0.0112
vn -0.0066 -0.8814 -0.4724
vn -0.9950 -0.0999 -0.0000
vn -0.0107 -0.9999 -0.0000
vn -0.0031 -0.9088 -0.4171
vn -0.9997 -0.0217 -0.0117
vn -0.9996 -0.0253 -0.0130
vn -0.6021 -0.7627 0.2361
vn 0.2087 0.5156 0.8310
vn -0.4805 0.5629 -0.6725
vn 0.9559 -0.2343 0.1772
vn -0.8551 -0.4004 -0.3294
vn 0.8746 -0.3986 0.2759
vn -0.8838 -0.3750 0.2798
vn 0.0000 -0.0000 1.0000
vn 1.0000 0.0000 0.0000
vn -0.6773 -0.7262 -0.1179
vn -0.9564 0.0175 0.2915
vn -1.0000 0.0000 -0.0000
vn -0.0000 1.0000 0.0000
vn 0.0000 0.0000 -1.0000
vn 0.0000 -1.0000 0.0000
s 1
f 1/1/1 2/2/2 3/3/3
f 4/4/4 5/5/5 6/6/6
f 7/7/7 2/8/2 8/9/8
f 9/10/9 10/11/10 11/12/11
f 12/13/12 13/14/13 14/15/14
f 11/16/11 15/17/15 16/18/16
f 17/19/17 15/20/15 18/21/18
f 19/22/19 20/23/20 21/24/21
f 22/25/22 6/26/6 5/27/5
f 5/28/5 1/29/1 3/30/3
f 2/2/2 23/31/23 24/32/24
f 19/33/19 7/34/7 9/35/9
f 9/10/9 8/9/8 25/36/25
f 26/37/26 19/22/19 21/24/21
f 12/38/12 10/39/10 27/40/27
f 28/41/28 16/18/16 15/17/15
f 29/42/29 17/43/29 13/44/29
f 12/38/12 18/45/18 15/17/15
f 29/46/30 13/14/13 27/47/27
f 22/48/22 3/30/3 7/34/7
f 16/18/16 9/35/9 11/16/11
f 4/4/4 30/49/31 31/50/32
f 30/51/31 26/37/26 32/52/33
f 1/1/1 31/50/32 23/31/23
f 33/53/34 34/54/34 35/55/34
f 29/46/30 24/56/24 36/57/30
f 29/42/29 33/58/29 32/59/29
f 37/60/33 30/51/31 32/52/33
f 36/61/35 31/50/32 37/62/35
f 31/63/36 30/64/36 37/65/36
f 36/66/36 24/67/36 23/68/36
f 37/62/35 34/69/35 36/61/35
f 32/52/33 35/70/33 37/60/33
f 36/57/30 38/71/30 29/46/30
f 21/24/21 32/52/33 26/37/26
f 21/24/21 28/72/28 32/52/33
f 28/72/28 17/19/17 32/52/33
f 8/9/8 24/56/24 29/46/30
f 29/46/30 25/36/25 8/9/8
f 27/47/27 25/36/25 29/46/30
f 17/43/29 14/73/29 13/44/29
f 7/7/7 3/74/3 2/8/2
f 9/10/9 25/36/25 10/11/10
f 12/13/12 27/47/27 13/14/13
f 11/16/11 12/38/12 15/17/15
f 17/19/17 28/72/28 15/20/15
f 19/22/19 16/75/16 20/23/20
f 22/25/22 26/37/26 6/26/6
f 5/28/5 4/76/4 1/29/1
f 2/2/2 1/1/1 23/31/23
f 19/33/19 22/48/22 7/34/7
f 9/10/9 7/7/7 8/9/8
f 26/37/26 22/25/22 19/22/19
f 12/38/12 11/16/11 10/39/10
f 28/41/28 20/77/20 16/18/16
f 29/42/29 32/59/29 17/43/29
f 12/38/12 14/78/14 18/45/18
f 22/48/22 5/28/5 3/30/3
f 16/18/16 19/33/19 9/35/9
f 4/4/4 6/6/6 30/49/31
f 30/51/31 6/26/6 26/37/26
f 1/1/1 4/4/4 31/50/32
f 33/53/34 38/79/34 34/54/34
f 29/42/29 38/80/29 33/58/29
f 36/61/35 23/31/23 31/50/32
f 37/62/35 35/81/35 34/69/35
f 32/52/33 33/82/33 35/70/33
f 36/57/30 34/83/30 38/71/30
f 21/24/21 20/23/20 28/72/28
f 8/9/8 2/8/2 24/56/24
f 27/47/27 10/11/10 25/36/25
f 17/43/29 18/84/29 14/73/29
