# Blender v2.79 (sub 0) OBJ File: ''
# www.blender.org
o props.024
v 1.000000 -0.080000 -1.000000
v 1.000000 -0.080000 1.000000
v -1.000000 -0.080000 1.000000
v -1.000000 -0.080000 -1.000000
v -1.000000 -0.040000 -1.000000
v 1.000000 -0.040000 -1.000000
v 1.000000 -0.040000 1.000000
v -1.000000 -0.040000 1.000000
v -0.989142 -0.040000 0.989142
v -0.995000 -0.040000 0.975000
v 0.975000 -0.015858 -0.989142
v 0.986381 -0.018619 -0.986381
v 0.975000 -0.030000 -0.995000
v -0.975000 -0.015858 -0.989142
v -0.975000 -0.030000 -0.995000
v -0.989142 -0.030000 -0.989142
v -0.986381 -0.018619 -0.986381
v -0.989142 -0.015858 -0.975000
v -0.995000 -0.030000 -0.975000
v -0.989142 -0.015858 0.975000
v -0.995000 -0.030000 0.975000
v -0.989142 -0.030000 0.989142
v -0.986381 -0.018619 0.986381
v -0.975000 -0.015858 0.989142
v -0.975000 -0.030000 0.995000
v 0.975000 -0.015858 0.989142
v 0.975000 -0.030000 0.995000
v 0.989142 -0.030000 0.989142
v 0.986381 -0.018619 0.986381
v 0.989142 -0.015858 0.975000
v 0.995000 -0.030000 0.975000
v 0.989142 -0.015858 -0.975000
v 0.995000 -0.030000 -0.975000
v 0.989142 -0.030000 -0.989142
v -0.975000 -0.010000 -0.975000
v 0.975000 -0.010000 -0.975000
v 0.975000 -0.010000 0.975000
v -0.975000 -0.010000 0.975000
v 0.989142 -0.040000 -0.989142
v 0.975000 -0.040000 -0.995000
v -0.989142 -0.040000 -0.989142
v -0.975000 -0.040000 -0.995000
v -0.995000 -0.040000 -0.975000
v -0.975000 -0.040000 0.995000
v 0.975000 -0.040000 0.995000
v 0.989142 -0.040000 0.989142
v 0.995000 -0.040000 0.975000
v 0.995000 -0.040000 -0.975000
vt 0.995966 0.496941
vt 0.500000 0.000975
vt 0.995966 0.000975
vt 0.490212 0.050682
vt 0.021584 0.213379
vt 0.018519 0.203945
vt 0.492160 0.066277
vt 0.023533 0.228973
vt 0.020468 0.219539
vt 0.491185 0.082846
vt 0.022558 0.245542
vt 0.019493 0.236108
vt 0.490210 0.099415
vt 0.021584 0.262111
vt 0.018519 0.252677
vt 0.000975 0.000975
vt 0.003667 0.003667
vt 0.002215 0.007174
vt 0.479427 0.005100
vt 0.482392 0.004873
vt 0.480537 0.008516
vt 0.009490 0.161568
vt 0.008380 0.158152
vt 0.006074 0.162678
vt 0.005848 0.159712
vt 0.020906 0.184360
vt 0.017940 0.184586
vt 0.019796 0.180944
vt 0.490839 0.027892
vt 0.491949 0.031308
vt 0.494256 0.026782
vt 0.494482 0.029748
vt 0.018956 0.172665
vt 0.015990 0.172891
vt 0.017846 0.169248
vt 0.488893 0.016196
vt 0.490003 0.019612
vt 0.492309 0.015086
vt 0.492535 0.018052
vt 0.019931 0.197030
vt 0.016965 0.197256
vt 0.018821 0.193614
vt 0.489865 0.040563
vt 0.490975 0.043979
vt 0.493281 0.039453
vt 0.493507 0.042419
vt 0.004486 0.992131
vt 0.488619 0.988619
vt 0.488619 0.992131
vt 0.001660 0.991445
vt 0.004486 0.988619
vt 0.492131 0.988619
vt 0.491445 0.991445
vt 0.488619 0.504486
vt 0.492131 0.504486
vt 0.488619 0.500975
vt 0.491445 0.501660
vt 0.004486 0.504486
vt 0.004486 0.500975
vt 0.000975 0.504486
vt 0.001660 0.501660
vt 0.000975 0.988619
vt 0.483953 0.007406
vt 0.481321 0.010931
vt 0.010275 0.163983
vt 0.006859 0.165093
vt 0.016379 0.182053
vt 0.019011 0.178528
vt 0.490055 0.025476
vt 0.013645 0.167943
vt 0.014430 0.170358
vt 0.488108 0.013781
vt 0.014620 0.192308
vt 0.015405 0.194724
vt 0.489080 0.038147
vt 0.492496 0.037037
vt 0.007174 0.495704
vt 0.496944 0.496944
vt 0.000975 0.496944
vt 0.490744 0.495704
vt 0.494251 0.494251
vt 0.495704 0.490744
vt 0.495704 0.007174
vt 0.494251 0.003667
vt 0.496944 0.000975
vt 0.490744 0.002215
vt 0.003667 0.494251
vt 0.002215 0.490744
vt 0.007174 0.002215
vt 0.500000 0.496941
vt 0.493277 0.060116
vt 0.495225 0.075711
vt 0.494250 0.092280
vt 0.493276 0.108849
vt 0.484738 0.009821
vt 0.015595 0.179638
vt 0.493471 0.024366
vt 0.017061 0.166833
vt 0.491524 0.012671
vt 0.018036 0.191198
vn 0.0000 -1.0000 -0.0000
vn 0.0000 0.0000 -1.0000
vn 1.0000 0.0000 0.0000
vn 0.0000 0.0000 1.0000
vn -1.0000 0.0000 0.0000
vn -0.0000 1.0000 -0.0000
vn 0.0042 0.7071 -0.7071
vn 0.5774 0.5774 -0.5773
vn 0.0025 0.2356 -0.9719
vn -0.0030 0.2354 -0.9719
vn -0.0042 0.7071 -0.7071
vn -0.6926 0.2012 -0.6926
vn -0.5773 0.5774 -0.5774
vn -0.7071 0.7072 -0.0042
vn -0.9719 0.2355 -0.0028
vn -0.9719 0.2355 0.0027
vn -0.7071 0.7071 0.0042
vn -0.6927 0.2008 0.6927
vn -0.5774 0.5774 0.5773
vn -0.0042 0.7071 0.7071
vn -0.0017 0.2358 0.9718
vn 0.0027 0.2355 0.9719
vn 0.0042 0.7071 0.7071
vn 0.6927 0.2008 0.6927
vn 0.5773 0.5774 0.5774
vn 0.7071 0.7072 0.0042
vn 0.9718 0.2358 0.0017
vn 0.9719 0.2355 -0.0027
vn 0.7071 0.7071 -0.0042
vn 0.6926 0.2012 -0.6926
vn 0.0033 1.0000 -0.0033
vn -0.0031 0.9324 -0.3615
vn 0.0024 1.0000 0.0024
vn -0.0033 1.0000 0.0033
vn 0.0008 0.0000 -1.0000
vn -0.0021 0.0000 -1.0000
vn -0.7071 0.0000 -0.7071
vn -1.0000 -0.0000 -0.0021
vn -1.0000 -0.0000 0.0008
vn -0.7071 0.0000 0.7071
vn 0.0008 -0.0000 1.0000
vn 0.7071 0.0000 0.7071
vn 1.0000 -0.0001 -0.0008
vn 0.7071 0.0000 -0.7071
vn -0.0030 0.0000 1.0000
vn 1.0000 0.0000 0.0030
s 1
f 2/1/1 4/2/1 1/3/1
f 6/4/2 4/5/2 5/6/2
f 7/7/3 1/8/3 6/9/3
f 8/10/4 2/11/4 7/12/4
f 5/13/5 3/14/5 8/15/5
f 8/16/6 9/17/6 10/18/6
f 11/19/7 12/20/8 13/21/9
f 11/19/7 15/22/10 14/23/11
f 16/24/12 17/25/13 15/22/10
f 18/26/14 17/27/13 19/28/15
f 18/26/14 21/29/16 20/30/17
f 22/31/18 23/32/19 21/29/16
f 24/33/20 23/34/19 25/35/21
f 24/33/20 27/36/22 26/37/23
f 28/38/24 29/39/25 27/36/22
f 30/40/26 29/41/25 31/42/27
f 30/40/26 33/43/28 32/44/29
f 34/45/30 12/46/8 33/43/28
f 14/47/11 36/48/31 11/49/7
f 14/47/11 17/50/13 35/51/32
f 32/52/29 12/53/8 36/48/31
f 32/52/29 37/54/33 30/55/26
f 26/56/23 29/57/25 37/54/33
f 26/56/23 38/58/34 24/59/20
f 20/60/17 23/61/19 38/58/34
f 20/60/17 35/51/32 18/62/14
f 35/51/32 37/54/33 36/48/31
f 34/63/30 40/64/35 13/21/9
f 16/24/12 42/65/36 41/66/37
f 16/67/12 43/68/38 19/28/15
f 10/69/39 22/31/18 21/29/16
f 9/70/40 25/35/21 22/71/18
f 45/72/41 28/38/24 27/36/22
f 46/73/42 31/42/27 28/74/24
f 34/45/30 48/75/43 39/76/44
f 40/64/35 15/22/10 13/21/9
f 31/42/27 48/75/43 33/43/28
f 25/35/21 45/72/41 27/36/22
f 19/28/15 10/69/39 21/29/16
f 23/61/19 24/59/20 38/58/34
f 29/57/25 30/55/26 37/54/33
f 12/53/8 11/49/7 36/48/31
f 17/50/13 18/62/14 35/51/32
f 12/46/8 32/44/29 33/43/28
f 29/41/25 28/74/24 31/42/27
f 29/39/25 26/37/23 27/36/22
f 23/34/19 22/71/18 25/35/21
f 23/32/19 20/30/17 21/29/16
f 17/27/13 16/67/12 19/28/15
f 17/25/13 14/23/11 15/22/10
f 12/20/8 34/63/30 13/21/9
f 42/77/6 6/78/6 5/79/6
f 40/80/6 39/81/6 6/78/6
f 39/81/6 48/82/6 6/78/6
f 47/83/6 6/78/6 48/82/6
f 47/83/6 46/84/6 7/85/6
f 46/84/6 45/86/6 7/85/6
f 5/79/6 41/87/6 42/77/6
f 5/79/6 43/88/6 41/87/6
f 44/89/6 7/85/6 45/86/6
f 44/89/6 9/17/6 8/16/6
f 8/16/6 43/88/6 5/79/6
f 2/1/1 3/90/1 4/2/1
f 6/4/2 1/91/2 4/5/2
f 7/7/3 2/92/3 1/8/3
f 8/10/4 3/93/4 2/11/4
f 5/13/5 4/94/5 3/14/5
f 11/19/7 13/21/9 15/22/10
f 18/26/14 19/28/15 21/29/16
f 24/33/20 25/35/21 27/36/22
f 30/40/26 31/42/27 33/43/28
f 14/47/11 35/51/32 36/48/31
f 32/52/29 36/48/31 37/54/33
f 26/56/23 37/54/33 38/58/34
f 20/60/17 38/58/34 35/51/32
f 35/51/32 38/58/34 37/54/33
f 34/63/30 39/95/44 40/64/35
f 16/24/12 15/22/10 42/65/36
f 16/67/12 41/96/37 43/68/38
f 10/69/39 9/97/40 22/31/18
f 9/70/40 44/98/45 25/35/21
f 45/72/41 46/99/42 28/38/24
f 46/73/42 47/100/46 31/42/27
f 34/45/30 33/43/28 48/75/43
f 40/64/35 42/65/36 15/22/10
f 31/42/27 47/100/46 48/75/43
f 25/35/21 44/98/45 45/72/41
f 19/28/15 43/68/38 10/69/39
f 42/77/6 40/80/6 6/78/6
f 47/83/6 7/85/6 6/78/6
f 44/89/6 8/16/6 7/85/6
f 8/16/6 10/18/6 43/88/6
